NunitoSans-ExpandedBlack.ufo
<glyph name="exclam" format="2">
  <advance width="324.9156626506024"/>
  <unicode hex="0021"/>
  <outline>
    <contour>
      <point x="104.44578313253011" y="247.9277108433735" type="line"/>
      <point x="220.46987951807228" y="247.9277108433735" type="line"/>
      <point x="280.5301204819277" y="705.0" type="line"/>
      <point x="44.385542168674704" y="705.0" type="line"/>
    </contour>
    <contour>
      <point x="61.78313253012049" y="0.0" type="line"/>
      <point x="262.31325301204816" y="0.0" type="line"/>
      <point x="262.31325301204816" y="197.0722891566265" type="line"/>
      <point x="61.78313253012049" y="197.0722891566265" type="line"/>
    </contour>
  </outline>
</glyph>
<glyph name="numbersign" format="2">
  <advance width="735.1084337349398"/>
  <unicode hex="0023"/>
  <outline>
    <contour>
      <point x="85.50602409638554" y="0.0" type="line"/>
      <point x="215.61445783132532" y="0.0" type="line"/>
      <point x="253.78313253012047" y="154.95180722891564" type="line"/>
      <point x="385.30120481927713" y="154.95180722891564" type="line"/>
      <point x="347.132530120482" y="0.0" type="line"/>
      <point x="477.2409638554217" y="0.0" type="line"/>
      <point x="515.2289156626506" y="154.95180722891564" type="line"/>
      <point x="662.6265060240963" y="154.95180722891564" type="line"/>
      <point x="662.6265060240963" y="269.68674698795184" type="line"/>
      <point x="542.0722891566264" y="269.68674698795184" type="line"/>
      <point x="585.0481927710844" y="443.3132530120482" type="line"/>
      <point x="689.9036144578314" y="443.3132530120482" type="line"/>
      <point x="689.9036144578314" y="558.0481927710844" type="line"/>
      <point x="611.8915662650602" y="558.0481927710844" type="line"/>
      <point x="648.2409638554217" y="705.0" type="line"/>
      <point x="518.132530120482" y="705.0" type="line"/>
      <point x="481.96385542168673" y="558.0481927710844" type="line"/>
      <point x="350.6265060240964" y="558.0481927710844" type="line"/>
      <point x="386.7951807228916" y="705.0" type="line"/>
      <point x="256.50602409638554" y="705.0" type="line"/>
      <point x="220.51807228915663" y="558.0481927710844" type="line"/>
      <point x="72.48192771084338" y="558.0481927710844" type="line"/>
      <point x="72.48192771084338" y="443.3132530120482" type="line"/>
      <point x="193.67469879518072" y="443.3132530120482" type="line"/>
      <point x="150.6987951807229" y="269.68674698795184" type="line"/>
      <point x="45.204819277108435" y="269.68674698795184" type="line"/>
      <point x="45.204819277108435" y="154.95180722891564" type="line"/>
      <point x="123.49397590361446" y="154.95180722891564" type="line"/>
    </contour>
    <contour>
      <point x="280.8072289156626" y="269.68674698795184" type="line"/>
      <point x="323.96385542168673" y="443.3132530120482" type="line"/>
      <point x="454.9397590361446" y="443.3132530120482" type="line"/>
      <point x="411.7831325301205" y="269.68674698795184" type="line"/>
    </contour>
  </outline>
</glyph>
<glyph name="dollar" format="2">
  <advance width="748.0"/>
  <unicode hex="0024"/>
  <outline>
    <contour>
      <point x="308.289156626506" y="-115.0" type="line"/>
      <point x="462.43373493975906" y="-115.0" type="line"/>
      <point x="462.43373493975906" y="22.469879518072286" type="line"/>
      <point x="417.5783132530121" y="-5.8192771084337345" type="line"/>
      <point x="611.2409638554217" y="7.19277108433735"/>
      <point x="720.7951807228915" y="87.12048192771084"/>
      <point x="720.7951807228915" y="220.42168674698797" type="curve" smooth="yes"/>
      <point x="720.7951807228915" y="329.2409638554217"/>
      <point x="651.8795180722891" y="395.1686746987952"/>
      <point x="505.2530120481928" y="417.9879518072289" type="curve" smooth="yes"/>
      <point x="331.39759036144574" y="445.3614457831325" type="line" smooth="yes"/>
      <point x="275.3734939759036" y="453.62650602409644"/>
      <point x="241.57831325301206" y="465.5903614457831"/>
      <point x="241.57831325301206" y="496.1566265060241" type="curve" smooth="yes"/>
      <point x="241.57831325301206" y="530.1686746987953"/>
      <point x="285.2409638554217" y="547.843373493976"/>
      <point x="374.4457831325301" y="547.843373493976" type="curve" smooth="yes"/>
      <point x="481.45783132530124" y="547.843373493976"/>
      <point x="563.289156626506" y="529.2168674698795"/>
      <point x="626.8192771084337" y="488.1566265060241" type="curve"/>
      <point x="689.5060240963855" y="634.4819277108434" type="line"/>
      <point x="633.5180722891566" y="677.4578313253012"/>
      <point x="543.421686746988" y="704.3614457831326"/>
      <point x="441.0602409638554" y="710.6385542168675" type="curve"/>
      <point x="462.43373493975906" y="691.2650602409639" type="line"/>
      <point x="462.43373493975906" y="820.0" type="line"/>
      <point x="308.289156626506" y="820.0" type="line"/>
      <point x="308.289156626506" y="691.2650602409639" type="line"/>
      <point x="330.2048192771084" y="709.0" type="line"/>
      <point x="154.02409638554215" y="693.6144578313254"/>
      <point x="47.75903614457832" y="607.7831325301205"/>
      <point x="47.75903614457832" y="482.0481927710843" type="curve" smooth="yes"/>
      <point x="47.75903614457832" y="370.13253012048193"/>
      <point x="127.13253012048193" y="299.7469879518072"/>
      <point x="271.5903614457832" y="280.7469879518072" type="curve" smooth="yes"/>
      <point x="445.6265060240964" y="257.46987951807233" type="line" smooth="yes"/>
      <point x="493.89156626506025" y="251.12048192771084"/>
      <point x="526.698795180723" y="239.1566265060241"/>
      <point x="526.698795180723" y="207.04819277108436" type="curve" smooth="yes"/>
      <point x="526.698795180723" y="174.02409638554218"/>
      <point x="480.8433734939759" y="157.1566265060241"/>
      <point x="387.27710843373495" y="157.1566265060241" type="curve" smooth="yes"/>
      <point x="269.7349397590362" y="157.1566265060241"/>
      <point x="176.44578313253012" y="178.6987951807229"/>
      <point x="93.54216867469879" y="224.95180722891567" type="curve"/>
      <point x="30.216867469879517" y="69.6144578313253" type="line"/>
      <point x="102.30120481927712" y="26.5421686746988"/>
      <point x="214.13253012048193" y="-2.180722891566265"/>
      <point x="332.7590361445783" y="-6.63855421686747" type="curve"/>
      <point x="308.289156626506" y="22.10843373493976" type="line"/>
    </contour>
  </outline>
</glyph>
<glyph name="ampersand" format="2">
  <advance width="934.9759036144577"/>
  <unicode hex="0026"/>
  <outline>
    <contour>
      <point x="375.79518072289153" y="-11.27710843373494" type="curve" smooth="yes"/>
      <point x="488.3253012048193" y="-11.27710843373494"/>
      <point x="587.5060240963855" y="20.253012048192772"/>
      <point x="664.3373493975904" y="76.13253012048193" type="curve"/>
      <point x="637.4096385542168" y="76.13253012048193" type="line"/>
      <point x="732.6506024096386" y="0.0" type="line"/>
      <point x="972.2530120481928" y="0.0" type="line"/>
      <point x="747.7951807228917" y="172.67469879518075" type="line"/>
      <point x="750.433734939759" y="152.9397590361446" type="line"/>
      <point x="812.4457831325301" y="227.49397590361446"/>
      <point x="850.6385542168674" y="325.77108433734935"/>
      <point x="857.4578313253013" y="439.4096385542169" type="curve"/>
      <point x="696.1204819277109" y="439.4096385542169" type="line"/>
      <point x="691.3012048192771" y="360.34939759036143"/>
      <point x="667.7590361445784" y="293.55421686746985"/>
      <point x="630.3132530120482" y="243.02409638554215" type="curve"/>
      <point x="654.3253012048192" y="243.02409638554215" type="line"/>
      <point x="481.89156626506025" y="380.43373493975906" type="line"/>
      <point x="451.855421686747" y="344.86746987951807" type="line"/>
      <point x="585.4096385542168" y="392.0361445783132"/>
      <point x="651.867469879518" y="458.578313253012"/>
      <point x="651.867469879518" y="545.4096385542168" type="curve" smooth="yes"/>
      <point x="651.867469879518" y="648.3493975903615"/>
      <point x="559.1927710843373" y="716.277108433735"/>
      <point x="415.1566265060241" y="716.277108433735" type="curve" smooth="yes"/>
      <point x="267.09638554216866" y="716.277108433735"/>
      <point x="162.6867469879518" y="641.433734939759"/>
      <point x="162.6867469879518" y="533.8554216867469" type="curve" smooth="yes"/>
      <point x="162.6867469879518" y="473.14457831325296"/>
      <point x="196.66265060240966" y="420.9638554216868"/>
      <point x="256.66265060240966" y="374.1566265060241" type="curve"/>
      <point x="291.7951807228916" y="413.27710843373495" type="line"/>
      <point x="264.4457831325301" y="403.10843373493975" type="line" smooth="yes"/>
      <point x="140.49397590361448" y="361.7469879518073"/>
      <point x="64.43373493975903" y="290.566265060241"/>
      <point x="64.43373493975903" y="195.13253012048193" type="curve" smooth="yes"/>
      <point x="64.43373493975903" y="72.56626506024097"/>
      <point x="189.20481927710844" y="-11.27710843373494"/>
    </contour>
    <contour>
      <point x="394.27710843373495" y="131.85542168674698" type="curve" smooth="yes"/>
      <point x="306.4216867469879" y="131.85542168674698"/>
      <point x="259.54216867469876" y="162.65060240963854"/>
      <point x="259.54216867469876" y="212.24096385542165" type="curve" smooth="yes"/>
      <point x="259.54216867469876" y="258.54216867469876"/>
      <point x="298.75903614457826" y="290.2530120481928"/>
      <point x="360.6265060240964" y="312.4096385542169" type="curve" smooth="yes"/>
      <point x="385.2409638554216" y="321.93975903614455" type="line"/>
      <point x="319.3614457831325" y="326.2048192771084" type="line"/>
      <point x="536.0240963855422" y="153.57831325301206" type="line"/>
      <point x="536.0240963855422" y="168.49397590361443" type="line"/>
      <point x="496.50602409638554" y="144.55421686746985"/>
      <point x="449.28915662650604" y="131.85542168674698"/>
    </contour>
    <contour>
      <point x="414.33734939759034" y="590.9879518072288" type="curve" smooth="yes"/>
      <point x="460.66265060240966" y="590.9879518072288"/>
      <point x="492.2771084337349" y="569.7703614457831"/>
      <point x="492.2771084337349" y="536.0361445783133" type="curve" smooth="yes"/>
      <point x="492.2771084337349" y="483.71084337349396"/>
      <point x="421.12048192771084" y="455.5421686746988"/>
      <point x="351.84337349397595" y="432.65060240963857" type="curve"/>
      <point x="414.55421686746985" y="431.2048192771084" type="line"/>
      <point x="363.6626506024096" y="471.54216867469876"/>
      <point x="331.3975903614458" y="496.7951807228916"/>
      <point x="331.3975903614458" y="532.3132530120482" type="curve" smooth="yes"/>
      <point x="331.3975903614458" y="568.5925301204819"/>
      <point x="363.73493975903614" y="590.9879518072288"/>
    </contour>
  </outline>
</glyph>
<glyph name="quotesingle" format="2">
  <advance width="319.65060240963857"/>
  <unicode hex="0027"/>
  <outline>
    <contour>
      <point x="95.80722891566265" y="393.30120481927713" type="line"/>
      <point x="223.8433734939759" y="393.30120481927713" type="line"/>
      <point x="271.43373493975906" y="705.0" type="line"/>
      <point x="48.578313253012055" y="705.0" type="line"/>
    </contour>
  </outline>
</glyph>
<glyph name="parenleft" format="2">
  <advance width="481.37349397590356"/>
  <unicode hex="0028"/>
  <outline>
    <contour>
      <point x="311.2530120481928" y="-198.19277108433735" type="curve"/>
      <point x="434.4578313253012" y="-138.95180722891567" type="line"/>
      <point x="356.55421686746985" y="19.433734939759034"/>
      <point x="329.0240963855422" y="121.37349397590361"/>
      <point x="329.0240963855422" y="263.0" type="curve" smooth="yes"/>
      <point x="329.0240963855422" y="404.98795180722897"/>
      <point x="356.55421686746985" y="506.56626506024094"/>
      <point x="434.4578313253012" y="664.9518072289158" type="curve"/>
      <point x="311.2530120481928" y="724.1927710843373" type="line"/>
      <point x="183.74698795180723" y="588.578313253012"/>
      <point x="121.0843373493976" y="437.6626506024096"/>
      <point x="121.0843373493976" y="263.0" type="curve" smooth="yes"/>
      <point x="121.0843373493976" y="88.6987951807229"/>
      <point x="183.74698795180723" y="-62.75903614457832"/>
    </contour>
  </outline>
</glyph>
<glyph name="parenright" format="2">
  <advance width="481.37349397590356"/>
  <unicode hex="0029"/>
  <outline>
    <contour>
      <point x="170.12048192771084" y="-198.19277108433735" type="line"/>
      <point x="297.6265060240964" y="-62.75903614457832"/>
      <point x="360.28915662650604" y="88.6987951807229"/>
      <point x="360.28915662650604" y="263.0" type="curve" smooth="yes"/>
      <point x="360.28915662650604" y="437.48192771084337"/>
      <point x="297.6265060240964" y="588.7590361445783"/>
      <point x="170.12048192771084" y="724.1927710843373" type="curve"/>
      <point x="46.91566265060241" y="664.9518072289158" type="line"/>
      <point x="124.63855421686748" y="506.566265060241"/>
      <point x="152.71084337349396" y="404.8072289156626"/>
      <point x="152.71084337349396" y="263.0" type="curve" smooth="yes"/>
      <point x="152.71084337349396" y="121.19277108433735"/>
      <point x="124.63855421686748" y="19.433734939759034"/>
      <point x="46.91566265060241" y="-138.95180722891567" type="curve"/>
    </contour>
  </outline>
</glyph>
<glyph name="asterisk" format="2">
  <advance width="504.38554216867465"/>
  <unicode hex="002A"/>
  <outline>
    <contour>
      <point x="195.40963855421685" y="280.1927710843373" type="line"/>
      <point x="262.1084337349398" y="431.8192771084337" type="line"/>
      <point x="243.4578313253012" y="431.8192771084337" type="line"/>
      <point x="307.69879518072287" y="278.9156626506024" type="line"/>
      <point x="420.5301204819277" y="343.79518072289153" type="line"/>
      <point x="321.433734939759" y="488.5060240963856" type="line"/>
      <point x="294.31325301204816" y="451.01204819277103" type="line"/>
      <point x="470.30120481927713" y="437.1807228915663" type="line"/>
      <point x="470.30120481927713" y="564.2048192771084" type="line"/>
      <point x="294.31325301204816" y="550.1927710843373" type="line"/>
      <point x="321.433734939759" y="512.4216867469879" type="line"/>
      <point x="420.5301204819277" y="656.5903614457831" type="line"/>
      <point x="307.69879518072287" y="722.8313253012049" type="line"/>
      <point x="243.4578313253012" y="572.2048192771084" type="line"/>
      <point x="262.1084337349398" y="572.2048192771084" type="line"/>
      <point x="197.04819277108433" y="722.8313253012049" type="line"/>
      <point x="84.85542168674698" y="658.2289156626506" type="line"/>
      <point x="184.77108433734938" y="510.7831325301205" type="line"/>
      <point x="211.0722891566265" y="550.1927710843373" type="line"/>
      <point x="34.445783132530124" y="564.2048192771084" type="line"/>
      <point x="34.445783132530124" y="437.81927710843377" type="line"/>
      <point x="210.43373493975903" y="451.01204819277103" type="line"/>
      <point x="183.13253012048193" y="488.5060240963856" type="line"/>
      <point x="83.855421686747" y="343.79518072289153" type="line"/>
    </contour>
  </outline>
</glyph>
<glyph name="plus" format="2">
  <advance width="748.0"/>
  <unicode hex="002B"/>
  <outline>
    <contour>
      <point x="305.7590361445783" y="16.0" type="line"/>
      <point x="442.2409638554217" y="16.0" type="line"/>
      <point x="442.2409638554217" y="222.7590361445783" type="line"/>
      <point x="645.0" y="222.7590361445783" type="line"/>
      <point x="645.0" y="351.421686746988" type="line"/>
      <point x="442.2409638554217" y="351.421686746988" type="line"/>
      <point x="442.2409638554217" y="558.0" type="line"/>
      <point x="305.7590361445783" y="558.0" type="line"/>
      <point x="305.7590361445783" y="351.421686746988" type="line"/>
      <point x="103.0" y="351.421686746988" type="line"/>
      <point x="103.0" y="222.7590361445783" type="line"/>
      <point x="305.7590361445783" y="222.7590361445783" type="line"/>
    </contour>
  </outline>
</glyph>
<glyph name="comma" format="2">
  <advance width="324.09638554216866"/>
  <unicode hex="002C"/>
  <outline>
    <contour>
      <point x="158.06024096385542" y="-162.26506024096383" type="line"/>
      <point x="236.30120481927713" y="-83.28915662650603"/>
      <point x="262.31325301204816" y="-21.253012048192772"/>
      <point x="262.31325301204816" y="66.97590361445783" type="curve" smooth="yes"/>
      <point x="262.31325301204816" y="197.0722891566265" type="line"/>
      <point x="61.78313253012049" y="197.0722891566265" type="line"/>
      <point x="61.78313253012049" y="0.0" type="line"/>
      <point x="200.5421686746988" y="0.0" type="line"/>
      <point x="163.42168674698794" y="40.77108433734939" type="line"/>
      <point x="162.6024096385542" y="-14.43373493975904"/>
      <point x="142.13253012048193" y="-54.096385542168676"/>
      <point x="89.09638554216866" y="-106.67469879518072" type="curve"/>
    </contour>
  </outline>
</glyph>
<glyph name="hyphen" format="2">
  <advance width="547.867469879518"/>
  <unicode hex="002D"/>
  <outline>
    <contour>
      <point x="79.71084337349397" y="193.56626506024097" type="line"/>
      <point x="468.1566265060241" y="193.56626506024097" type="line"/>
      <point x="468.1566265060241" y="344.710843373494" type="line"/>
      <point x="79.71084337349397" y="344.710843373494" type="line"/>
    </contour>
  </outline>
</glyph>
<glyph name="period" format="2">
  <advance width="324.09638554216866"/>
  <unicode hex="002E"/>
  <outline>
    <contour>
      <point x="61.78313253012049" y="0.0" type="line"/>
      <point x="262.31325301204816" y="0.0" type="line"/>
      <point x="262.31325301204816" y="197.0722891566265" type="line"/>
      <point x="61.78313253012049" y="197.0722891566265" type="line"/>
    </contour>
  </outline>
</glyph>
<glyph name="zero" format="2">
  <advance width="748.0"/>
  <unicode hex="0030"/>
  <outline>
    <contour>
      <point x="374.0" y="-11.27710843373494" type="curve" smooth="yes"/>
      <point x="582.566265060241" y="-11.27710843373494"/>
      <point x="704.4096385542169" y="123.27710843373494"/>
      <point x="704.4096385542169" y="353.1807228915663" type="curve" smooth="yes"/>
      <point x="704.4096385542169" y="582.722891566265"/>
      <point x="582.5662650602409" y="716.277108433735"/>
      <point x="374.0" y="716.277108433735" type="curve" smooth="yes"/>
      <point x="165.61445783132532" y="716.277108433735"/>
      <point x="43.59036144578313" y="582.0843373493976"/>
      <point x="43.59036144578313" y="352.0" type="curve" smooth="yes"/>
      <point x="43.59036144578313" y="122.4578313253012"/>
      <point x="165.61445783132532" y="-11.27710843373494"/>
    </contour>
    <contour>
      <point x="374.0" y="147.87951807228916" type="curve" smooth="yes"/>
      <point x="281.91566265060237" y="147.87951807228916"/>
      <point x="236.7831325301205" y="214.19277108433732"/>
      <point x="236.7831325301205" y="352.1807228915663" type="curve" smooth="yes"/>
      <point x="236.7831325301205" y="489.44578313253004"/>
      <point x="281.91566265060237" y="557.1204819277109"/>
      <point x="374.0" y="557.1204819277109" type="curve" smooth="yes"/>
      <point x="466.2650602409638" y="557.1204819277109"/>
      <point x="511.2168674698795" y="490.4457831325301"/>
      <point x="511.2168674698795" y="353.1807228915663" type="curve" smooth="yes"/>
      <point x="511.2168674698795" y="215.19277108433732"/>
      <point x="466.0843373493976" y="147.87951807228916"/>
    </contour>
  </outline>
</glyph>
<glyph name="one" format="2">
  <advance width="748.0"/>
  <unicode hex="0031"/>
  <outline>
    <contour>
      <point x="112.56626506024095" y="0.0" type="line"/>
      <point x="706.1084337349397" y="0.0" type="line"/>
      <point x="706.1084337349397" y="163.0722891566265" type="line"/>
      <point x="520.4939759036145" y="163.0722891566265" type="line"/>
      <point x="520.4939759036145" y="705.0" type="line"/>
      <point x="371.97590361445776" y="705.0" type="line"/>
      <point x="90.16867469879517" y="547.4216867469879" type="line"/>
      <point x="163.78313253012047" y="406.09638554216866" type="line"/>
      <point x="405.99999999999994" y="541.4698795180723" type="line"/>
      <point x="317.37349397590356" y="541.4698795180723" type="line"/>
      <point x="317.37349397590356" y="163.0722891566265" type="line"/>
      <point x="112.56626506024095" y="163.0722891566265" type="line"/>
    </contour>
  </outline>
</glyph>
<glyph name="two" format="2">
  <advance width="748.0"/>
  <unicode hex="0032"/>
  <outline>
    <contour>
      <point x="90.2289156626506" y="0.0" type="line"/>
      <point x="692.1325301204819" y="0.0" type="line"/>
      <point x="692.1325301204819" y="163.0722891566265" type="line"/>
      <point x="324.4578313253012" y="163.0722891566265" type="line"/>
      <point x="330.1927710843373" y="141.6024096385542" type="line"/>
      <point x="503.6626506024097" y="263.9759036144578" type="line" smooth="yes"/>
      <point x="596.5421686746988" y="325.6385542168675"/>
      <point x="659.4096385542168" y="409.0120481927711"/>
      <point x="659.4096385542168" y="508.2530120481928" type="curve" smooth="yes"/>
      <point x="659.4096385542168" y="639.6265060240963"/>
      <point x="550.3855421686748" y="716.277108433735"/>
      <point x="359.7951807228916" y="716.277108433735" type="curve" smooth="yes"/>
      <point x="240.51807228915663" y="716.277108433735"/>
      <point x="131.04819277108436" y="686.0120481927711"/>
      <point x="51.75903614457832" y="630.843373493976" type="curve"/>
      <point x="122.0" y="483.6987951807229" type="line"/>
      <point x="183.9879518072289" y="527.578313253012"/>
      <point x="264.4457831325301" y="551.843373493976"/>
      <point x="346.14457831325296" y="551.843373493976" type="curve" smooth="yes"/>
      <point x="422.0722891566265" y="551.843373493976"/>
      <point x="459.66265060240966" y="528.7831325301205"/>
      <point x="459.66265060240966" y="484.7710843373494" type="curve" smooth="yes"/>
      <point x="459.66265060240966" y="431.66265060240966"/>
      <point x="407.51807228915663" y="388.144578313253"/>
      <point x="371.15662650602405" y="360.8795180722891" type="curve" smooth="yes"/>
      <point x="90.2289156626506" y="148.06024096385542" type="line"/>
    </contour>
  </outline>
</glyph>
<glyph name="three" format="2">
  <advance width="748.0"/>
  <unicode hex="0033"/>
  <outline>
    <contour>
      <point x="355.79518072289153" y="-11.27710843373494" type="curve" smooth="yes"/>
      <point x="558.0240963855421" y="-11.27710843373494"/>
      <point x="686.1445783132531" y="67.27710843373494"/>
      <point x="686.1445783132531" y="197.0120481927711" type="curve" smooth="yes"/>
      <point x="686.1445783132531" y="292.73493975903614"/>
      <point x="616.5060240963855" y="358.3734939759036"/>
      <point x="497.69879518072287" y="373.7349397590361" type="curve"/>
      <point x="497.69879518072287" y="359.0" type="line"/>
      <point x="602.0602409638554" y="379.6385542168675"/>
      <point x="659.5060240963855" y="439.2650602409638"/>
      <point x="659.5060240963855" y="524.0722891566265" type="curve" smooth="yes"/>
      <point x="659.5060240963855" y="641.6265060240963"/>
      <point x="549.301204819277" y="716.277108433735"/>
      <point x="362.71084337349396" y="716.277108433735" type="curve" smooth="yes"/>
      <point x="241.33734939759034" y="716.277108433735"/>
      <point x="127.59036144578313" y="684.5542168674699"/>
      <point x="51.939759036144586" y="630.843373493976" type="curve"/>
      <point x="121.81927710843374" y="484.06024096385545" type="line"/>
      <point x="183.9879518072289" y="529.5783132530121"/>
      <point x="256.89156626506025" y="551.843373493976"/>
      <point x="342.86746987951807" y="551.843373493976" type="curve" smooth="yes"/>
      <point x="423.16867469879514" y="551.843373493976"/>
      <point x="465.4939759036145" y="531.2409638554217"/>
      <point x="465.4939759036145" y="493.67469879518075" type="curve" smooth="yes"/>
      <point x="465.4939759036145" y="454.56626506024094"/>
      <point x="420.90361445783134" y="433.6144578313253"/>
      <point x="335.6987951807229" y="433.6144578313253" type="curve" smooth="yes"/>
      <point x="205.59036144578312" y="433.6144578313253" type="line"/>
      <point x="205.59036144578312" y="275.1927710843373" type="line"/>
      <point x="355.08433734939763" y="275.1927710843373" type="line" smooth="yes"/>
      <point x="448.18072289156623" y="275.1927710843373"/>
      <point x="492.13253012048193" y="256.86746987951807"/>
      <point x="492.13253012048193" y="216.855421686747" type="curve" smooth="yes"/>
      <point x="492.13253012048193" y="174.3855421686747"/>
      <point x="441.34939759036143" y="153.1566265060241"/>
      <point x="351.69879518072287" y="153.1566265060241" type="curve" smooth="yes"/>
      <point x="255.710843373494" y="153.1566265060241"/>
      <point x="180.4457831325301" y="175.24096385542168"/>
      <point x="106.63855421686748" y="221.03614457831327" type="curve"/>
      <point x="37.57831325301205" y="71.25301204819277" type="line"/>
      <point x="106.48192771084338" y="20.44578313253012"/>
      <point x="227.50602409638554" y="-11.27710843373494"/>
    </contour>
  </outline>
</glyph>
<glyph name="four" format="2">
  <advance width="748.0"/>
  <unicode hex="0034"/>
  <outline>
    <contour>
      <point x="414.5180722891566" y="0.0" type="line"/>
      <point x="607.156626506024" y="0.0" type="line"/>
      <point x="607.156626506024" y="112.12048192771084" type="line"/>
      <point x="724.855421686747" y="112.12048192771084" type="line"/>
      <point x="724.855421686747" y="261.69879518072287" type="line"/>
      <point x="607.156626506024" y="261.69879518072287" type="line"/>
      <point x="607.156626506024" y="705.0" type="line"/>
      <point x="443.54216867469876" y="705.0" type="line"/>
      <point x="43.04819277108434" y="252.61445783132527" type="line"/>
      <point x="43.04819277108434" y="112.12048192771084" type="line"/>
      <point x="414.5180722891566" y="112.12048192771084" type="line"/>
    </contour>
    <contour>
      <point x="414.5180722891566" y="261.69879518072287" type="line"/>
      <point x="183.0722891566265" y="261.69879518072287" type="line"/>
      <point x="183.0722891566265" y="195.63855421686748" type="line"/>
      <point x="457.5301204819277" y="501.2409638554217" type="line"/>
      <point x="414.5180722891566" y="501.2409638554217" type="line"/>
    </contour>
  </outline>
</glyph>
<glyph name="five" format="2">
  <advance width="748.0"/>
  <unicode hex="0035"/>
  <outline>
    <contour>
      <point x="376.06024096385545" y="-11.27710843373494" type="curve" smooth="yes"/>
      <point x="581.4698795180723" y="-11.27710843373494"/>
      <point x="710.1325301204819" y="79.4578313253012"/>
      <point x="710.1325301204819" y="232.7469879518072" type="curve" smooth="yes"/>
      <point x="710.1325301204819" y="370.6626506024096"/>
      <point x="604.5783132530121" y="458.3012048192771"/>
      <point x="432.7469879518072" y="458.3012048192771" type="curve" smooth="yes"/>
      <point x="354.6024096385542" y="458.3012048192771"/>
      <point x="282.710843373494" y="439.50602409638554"/>
      <point x="242.26506024096383" y="407.0" type="curve"/>
      <point x="280.10843373493975" y="407.0" type="line"/>
      <point x="280.10843373493975" y="543.566265060241" type="line"/>
      <point x="654.3975903614457" y="543.566265060241" type="line"/>
      <point x="654.3975903614457" y="705.0" type="line"/>
      <point x="93.3855421686747" y="705.0" type="line"/>
      <point x="93.3855421686747" y="262.04819277108436" type="line"/>
      <point x="222.13253012048193" y="262.04819277108436" type="line"/>
      <point x="272.49397590361446" y="289.54216867469876"/>
      <point x="322.5542168674699" y="302.8795180722891"/>
      <point x="382.7831325301205" y="302.8795180722891" type="curve" smooth="yes"/>
      <point x="468.89156626506025" y="302.8795180722891"/>
      <point x="516.1204819277109" y="276.1204819277108"/>
      <point x="516.1204819277109" y="228.74698795180723" type="curve" smooth="yes"/>
      <point x="516.1204819277109" y="178.46987951807228"/>
      <point x="464.34939759036143" y="153.1566265060241"/>
      <point x="373.7831325301205" y="153.1566265060241" type="curve" smooth="yes"/>
      <point x="283.51807228915663" y="153.1566265060241"/>
      <point x="206.61445783132532" y="176.24096385542168"/>
      <point x="136.26506024096386" y="219.3975903614458" type="curve"/>
      <point x="67.20481927710843" y="69.6144578313253" type="line"/>
      <point x="132.289156626506" y="21.265060240963855"/>
      <point x="253.3132530120482" y="-11.27710843373494"/>
    </contour>
  </outline>
</glyph>
<glyph name="six" format="2">
  <advance width="748.0"/>
  <unicode hex="0036"/>
  <outline>
    <contour>
      <point x="400.54216867469876" y="-11.27710843373494" type="curve" smooth="yes"/>
      <point x="588.6746987951808" y="-11.27710843373494"/>
      <point x="707.8674698795181" y="89.27710843373494"/>
      <point x="707.8674698795181" y="233.84337349397592" type="curve" smooth="yes"/>
      <point x="707.8674698795181" y="370.21686746987956"/>
      <point x="602.1445783132531" y="466.95180722891564"/>
      <point x="445.2409638554217" y="466.95180722891564" type="curve" smooth="yes"/>
      <point x="332.3734939759036" y="466.95180722891564"/>
      <point x="245.3132530120482" y="415.9879518072289"/>
      <point x="226.57831325301203" y="338.6867469879518" type="curve"/>
      <point x="243.59036144578315" y="338.6867469879518" type="line"/>
      <point x="243.59036144578315" y="384.421686746988" type="line" smooth="yes"/>
      <point x="243.59036144578315" y="495.7349397590362"/>
      <point x="314.8192771084337" y="551.843373493976"/>
      <point x="440.7469879518072" y="551.843373493976" type="curve" smooth="yes"/>
      <point x="516.4698795180723" y="551.843373493976"/>
      <point x="583.8192771084338" y="531.3975903614457"/>
      <point x="640.9036144578313" y="491.7831325301205" type="curve"/>
      <point x="709.6024096385541" y="638.9277108433735" type="line"/>
      <point x="641.2168674698795" y="688.6506024096386"/>
      <point x="547.5903614457832" y="716.277108433735"/>
      <point x="441.9277108433735" y="716.277108433735" type="curve" smooth="yes"/>
      <point x="198.1566265060241" y="716.277108433735"/>
      <point x="52.85542168674698" y="581.4578313253012"/>
      <point x="52.85542168674698" y="341.65060240963857" type="curve" smooth="yes"/>
      <point x="52.85542168674698" y="116.18072289156626"/>
      <point x="185.33734939759034" y="-11.27710843373494"/>
    </contour>
    <contour>
      <point x="397.3614457831325" y="141.04819277108436" type="curve" smooth="yes"/>
      <point x="319.2530120481928" y="141.04819277108436"/>
      <point x="272.31325301204816" y="173.72289156626505"/>
      <point x="272.31325301204816" y="227.74698795180723" type="curve" smooth="yes"/>
      <point x="272.31325301204816" y="281.9518072289157"/>
      <point x="319.2530120481928" y="314.98795180722885"/>
      <point x="397.3614457831325" y="314.98795180722885" type="curve" smooth="yes"/>
      <point x="474.4698795180723" y="314.98795180722885"/>
      <point x="521.4096385542168" y="281.9518072289157"/>
      <point x="521.4096385542168" y="227.74698795180723" type="curve" smooth="yes"/>
      <point x="521.4096385542168" y="173.72289156626505"/>
      <point x="474.4698795180723" y="141.04819277108436"/>
    </contour>
  </outline>
</glyph>
<glyph name="seven" format="2">
  <advance width="748.0"/>
  <unicode hex="0037"/>
  <outline>
    <contour>
      <point x="82.06024096385542" y="0.0" type="line"/>
      <point x="317.3975903614458" y="0.0" type="line"/>
      <point x="693.7831325301205" y="553.843373493976" type="line"/>
      <point x="693.7831325301205" y="705.0" type="line"/>
      <point x="55.036144578313255" y="705.0" type="line"/>
      <point x="55.036144578313255" y="535.0120481927711" type="line"/>
      <point x="514.2289156626507" y="535.0120481927711" type="line"/>
      <point x="511.77108433734946" y="596.9638554216867" type="line"/>
    </contour>
  </outline>
</glyph>
<glyph name="eight" format="2">
  <advance width="748.0"/>
  <unicode hex="0038"/>
  <outline>
    <contour>
      <point x="374.0" y="-11.27710843373494" type="curve" smooth="yes"/>
      <point x="588.4819277108434" y="-11.27710843373494"/>
      <point x="711.0481927710844" y="69.55421686746988"/>
      <point x="711.0481927710844" y="195.4698795180723" type="curve" smooth="yes"/>
      <point x="711.0481927710844" y="295.46987951807233"/>
      <point x="633.9518072289158" y="366.3855421686747"/>
      <point x="512.6867469879519" y="377.7469879518072" type="curve"/>
      <point x="512.6867469879519" y="345.98795180722897" type="line"/>
      <point x="619.9518072289156" y="363.1686746987952"/>
      <point x="688.7710843373494" y="432.26506024096386"/>
      <point x="688.7710843373494" y="522.6265060240964" type="curve" smooth="yes"/>
      <point x="688.7710843373494" y="644.0"/>
      <point x="572.301204819277" y="716.277108433735"/>
      <point x="374.0" y="716.277108433735" type="curve" smooth="yes"/>
      <point x="175.24096385542165" y="716.277108433735"/>
      <point x="59.59036144578313" y="643.1807228915663"/>
      <point x="59.59036144578313" y="524.2650602409639" type="curve" smooth="yes"/>
      <point x="59.59036144578313" y="432.4457831325301"/>
      <point x="128.40963855421688" y="363.34939759036143"/>
      <point x="235.31325301204816" y="345.98795180722897" type="curve"/>
      <point x="235.31325301204816" y="377.7469879518072" type="line"/>
      <point x="114.40963855421687" y="366.2048192771084"/>
      <point x="36.95180722891566" y="295.28915662650604"/>
      <point x="36.95180722891566" y="195.4698795180723" type="curve" smooth="yes"/>
      <point x="36.95180722891566" y="69.55421686746988"/>
      <point x="159.51807228915663" y="-11.27710843373494"/>
    </contour>
    <contour>
      <point x="374.0" y="139.04819277108433" type="curve" smooth="yes"/>
      <point x="274.8192771084337" y="139.04819277108433"/>
      <point x="221.3132530120482" y="164.19277108433732"/>
      <point x="221.3132530120482" y="210.3012048192771" type="curve" smooth="yes"/>
      <point x="221.3132530120482" y="257.04819277108436"/>
      <point x="273.8192771084337" y="281.1084337349398"/>
      <point x="374.0" y="281.1084337349398" type="curve" smooth="yes"/>
      <point x="474.5421686746988" y="281.1084337349398"/>
      <point x="526.6867469879518" y="257.04819277108436"/>
      <point x="526.6867469879518" y="210.3012048192771" type="curve" smooth="yes"/>
      <point x="526.6867469879518" y="164.19277108433732"/>
      <point x="473.5421686746988" y="139.04819277108433"/>
    </contour>
    <contour>
      <point x="374.0" y="431.6144578313253" type="curve" smooth="yes"/>
      <point x="289.9036144578314" y="431.6144578313253"/>
      <point x="244.59036144578315" y="455.9397590361446"/>
      <point x="244.59036144578315" y="499.78313253012044" type="curve" smooth="yes"/>
      <point x="244.59036144578315" y="542.6265060240964"/>
      <point x="290.5421686746988" y="565.9518072289156"/>
      <point x="374.0" y="565.9518072289156" type="curve" smooth="yes"/>
      <point x="457.45783132530124" y="565.9518072289156"/>
      <point x="503.77108433734946" y="542.6265060240964"/>
      <point x="503.77108433734946" y="499.78313253012044" type="curve" smooth="yes"/>
      <point x="503.77108433734946" y="455.9397590361446"/>
      <point x="458.09638554216866" y="431.6144578313253"/>
    </contour>
  </outline>
</glyph>
<glyph name="nine" format="2">
  <advance width="748.0"/>
  <unicode hex="0039"/>
  <outline>
    <contour>
      <point x="306.43373493975906" y="-11.27710843373494" type="curve" smooth="yes"/>
      <point x="549.843373493976" y="-11.27710843373494"/>
      <point x="695.1445783132531" y="123.90361445783132"/>
      <point x="695.1445783132531" y="363.34939759036143" type="curve" smooth="yes"/>
      <point x="695.1445783132531" y="588.8192771084337"/>
      <point x="563.0240963855422" y="716.277108433735"/>
      <point x="347.45783132530124" y="716.277108433735" type="curve" smooth="yes"/>
      <point x="159.6867469879518" y="716.277108433735"/>
      <point x="40.132530120481924" y="616.0843373493975"/>
      <point x="40.132530120481924" y="471.1566265060241" type="curve" smooth="yes"/>
      <point x="40.132530120481924" y="334.78313253012044"/>
      <point x="146.2168674698795" y="238.04819277108433"/>
      <point x="302.7590361445783" y="238.04819277108433" type="curve" smooth="yes"/>
      <point x="415.98795180722885" y="238.04819277108433"/>
      <point x="503.04819277108436" y="289.0120481927711"/>
      <point x="521.4216867469879" y="366.3132530120482" type="curve"/>
      <point x="504.77108433734946" y="366.3132530120482" type="line"/>
      <point x="504.77108433734946" y="320.578313253012" type="line" smooth="yes"/>
      <point x="504.77108433734946" y="209.26506024096386"/>
      <point x="433.5421686746988" y="153.1566265060241"/>
      <point x="307.2530120481928" y="153.1566265060241" type="curve" smooth="yes"/>
      <point x="231.53012048192772" y="153.1566265060241"/>
      <point x="164.1807228915663" y="173.96385542168673"/>
      <point x="107.45783132530121" y="213.57831325301203" type="curve"/>
      <point x="38.397590361445786" y="66.43373493975903" type="line"/>
      <point x="107.14457831325302" y="16.710843373493976"/>
      <point x="200.40963855421685" y="-11.27710843373494"/>
    </contour>
    <contour>
      <point x="351.0" y="390.37349397590367" type="curve" smooth="yes"/>
      <point x="273.8915662650602" y="390.37349397590367"/>
      <point x="226.95180722891567" y="423.0481927710843"/>
      <point x="226.95180722891567" y="477.2530120481928" type="curve" smooth="yes"/>
      <point x="226.95180722891567" y="531.2771084337348"/>
      <point x="273.8915662650602" y="564.3132530120482"/>
      <point x="351.0" y="564.3132530120482" type="curve" smooth="yes"/>
      <point x="429.1084337349398" y="564.3132530120482"/>
      <point x="476.04819277108436" y="531.2771084337348"/>
      <point x="476.04819277108436" y="477.2530120481928" type="curve" smooth="yes"/>
      <point x="476.04819277108436" y="423.0481927710843"/>
      <point x="429.1084337349398" y="390.37349397590367"/>
    </contour>
  </outline>
</glyph>
<glyph name="colon" format="2">
  <advance width="324.09638554216866"/>
  <unicode hex="003A"/>
  <outline>
    <contour>
      <point x="61.78313253012049" y="295.48192771084337" type="line"/>
      <point x="262.31325301204816" y="295.48192771084337" type="line"/>
      <point x="262.31325301204816" y="492.1927710843374" type="line"/>
      <point x="61.78313253012049" y="492.1927710843374" type="line"/>
    </contour>
    <contour>
      <point x="61.78313253012049" y="0.0" type="line"/>
      <point x="262.31325301204816" y="0.0" type="line"/>
      <point x="262.31325301204816" y="197.0722891566265" type="line"/>
      <point x="61.78313253012049" y="197.0722891566265" type="line"/>
    </contour>
  </outline>
</glyph>
<glyph name="less" format="2">
  <advance width="748.0"/>
  <unicode hex="003C"/>
  <outline>
    <contour>
      <point x="643.9156626506024" y="20.072289156626503" type="line"/>
      <point x="643.9156626506024" y="164.56626506024097" type="line"/>
      <point x="154.3855421686747" y="331.95180722891564" type="line"/>
      <point x="154.3855421686747" y="242.22891566265062" type="line"/>
      <point x="643.9156626506024" y="409.43373493975906" type="line"/>
      <point x="643.9156626506024" y="554.289156626506" type="line"/>
      <point x="103.0" y="359.6144578313253" type="line"/>
      <point x="103.0" y="214.566265060241" type="line"/>
    </contour>
  </outline>
</glyph>
<glyph name="equal" format="2">
  <advance width="748.0"/>
  <unicode hex="003D"/>
  <outline>
    <contour>
      <point x="103.0" y="330.95180722891564" type="line"/>
      <point x="645.0" y="330.95180722891564" type="line"/>
      <point x="645.0" y="459.61445783132535" type="line"/>
      <point x="103.0" y="459.61445783132535" type="line"/>
    </contour>
    <contour>
      <point x="103.0" y="114.74698795180724" type="line"/>
      <point x="645.0" y="114.74698795180724" type="line"/>
      <point x="645.0" y="243.0481927710843" type="line"/>
      <point x="103.0" y="243.0481927710843" type="line"/>
    </contour>
  </outline>
</glyph>
<glyph name="question" format="2">
  <advance width="584.9879518072289"/>
  <unicode hex="003F"/>
  <outline>
    <contour>
      <point x="228.9156626506024" y="247.9277108433735" type="line"/>
      <point x="344.30120481927713" y="247.9277108433735" type="line"/>
      <point x="347.75903614457826" y="273.84337349397595" type="line" smooth="yes"/>
      <point x="352.30120481927713" y="305.6265060240964"/>
      <point x="376.48192771084337" y="332.50602409638554"/>
      <point x="458.7469879518072" y="380.0120481927711" type="curve" smooth="yes"/>
      <point x="540.6506024096385" y="427.6987951807229"/>
      <point x="576.0240963855421" y="474.421686746988"/>
      <point x="576.0240963855421" y="535.5180722891566" type="curve" smooth="yes"/>
      <point x="576.0240963855421" y="646.1686746987953"/>
      <point x="462.98795180722897" y="716.277108433735"/>
      <point x="299.21686746987956" y="716.277108433735" type="curve" smooth="yes"/>
      <point x="187.3012048192771" y="716.277108433735"/>
      <point x="75.10843373493977" y="683.0120481927711"/>
      <point x="0.8192771084337349" y="630.843373493976" type="curve"/>
      <point x="70.69879518072288" y="483.6987951807229" type="line"/>
      <point x="136.32530120481925" y="529.0361445783132"/>
      <point x="205.67469879518075" y="551.843373493976"/>
      <point x="285.9277108433735" y="551.843373493976" type="curve" smooth="yes"/>
      <point x="343.2289156626506" y="551.843373493976"/>
      <point x="376.27710843373495" y="538.6024096385543"/>
      <point x="376.27710843373495" y="508.4819277108434" type="curve" smooth="yes"/>
      <point x="376.27710843373495" y="491.2530120481928"/>
      <point x="365.84337349397595" y="477.3855421686747"/>
      <point x="317.421686746988" y="445.51807228915663" type="curve" smooth="yes"/>
      <point x="249.91566265060243" y="401.4819277108433"/>
      <point x="228.9156626506024" y="355.6867469879518"/>
      <point x="228.9156626506024" y="305.43373493975906" type="curve" smooth="yes"/>
    </contour>
    <contour>
      <point x="186.2530120481928" y="0.0" type="line"/>
      <point x="386.96385542168673" y="0.0" type="line"/>
      <point x="386.96385542168673" y="197.0722891566265" type="line"/>
      <point x="186.2530120481928" y="197.0722891566265" type="line"/>
    </contour>
  </outline>
</glyph>
<glyph name="at" format="2">
  <advance width="1195.7590361445782"/>
  <unicode hex="0040"/>
  <outline>
    <contour>
      <point x="612.0240963855422" y="-167.73493975903617" type="curve" smooth="yes"/>
      <point x="744.9879518072289" y="-167.73493975903617"/>
      <point x="876.4457831325302" y="-139.48192771084337"/>
      <point x="956.5301204819276" y="-89.97590361445783" type="curve"/>
      <point x="900.7710843373494" y="5.7469879518072275" type="line"/>
      <point x="826.3132530120481" y="-36.759036144578324"/>
      <point x="724.7951807228916" y="-58.73493975903616"/>
      <point x="612.843373493976" y="-58.73493975903616" type="curve" smooth="yes"/>
      <point x="351.96385542168673" y="-58.73493975903616"/>
      <point x="191.44578313253012" y="58.674698795180724"/>
      <point x="191.44578313253012" y="263.6265060240964" type="curve" smooth="yes"/>
      <point x="191.44578313253012" y="473.4939759036145"/>
      <point x="358.87951807228916" y="607.277108433735"/>
      <point x="639.4939759036145" y="607.277108433735" type="curve" smooth="yes"/>
      <point x="875.1807228915662" y="607.277108433735"/>
      <point x="1012.867469879518" y="512.5060240963854"/>
      <point x="1012.867469879518" y="339.0" type="curve" smooth="yes"/>
      <point x="1012.867469879518" y="235.68674698795184"/>
      <point x="964.3614457831325" y="164.36144578313252"/>
      <point x="888.2289156626505" y="164.36144578313252" type="curve" smooth="yes"/>
      <point x="852.8915662650603" y="164.36144578313252"/>
      <point x="835.0843373493975" y="180.16867469879517"/>
      <point x="835.0843373493975" y="216.06024096385542" type="curve" smooth="yes"/>
      <point x="835.0843373493975" y="238.0722891566265"/>
      <point x="842.0" y="267.6385542168675"/>
      <point x="844.9999999999999" y="280.6385542168674" type="curve" smooth="yes"/>
      <point x="894.5301204819277" y="493.0120481927711" type="line"/>
      <point x="752.9518072289156" y="493.0120481927711" type="line"/>
      <point x="730.4939759036145" y="399.65060240963857" type="line"/>
      <point x="757.156626506024" y="399.65060240963857" type="line"/>
      <point x="735.6024096385543" y="470.7469879518072"/>
      <point x="681.3373493975903" y="505.10843373493975"/>
      <point x="591.2530120481928" y="505.10843373493975" type="curve" smooth="yes"/>
      <point x="436.6265060240964" y="505.10843373493975"/>
      <point x="325.8072289156626" y="399.4698795180723"/>
      <point x="325.8072289156626" y="255.20481927710844" type="curve" smooth="yes"/>
      <point x="325.8072289156626" y="131.83132530120483"/>
      <point x="407.3734939759036" y="58.36144578313253"/>
      <point x="533.4698795180723" y="58.36144578313253" type="curve" smooth="yes"/>
      <point x="643.3975903614459" y="58.36144578313253"/>
      <point x="718.3012048192771" y="114.74698795180724"/>
      <point x="757.6626506024096" y="219.15662650602408" type="curve"/>
      <point x="708.8795180722891" y="183.26506024096386" type="line"/>
      <point x="716.9156626506024" y="106.18072289156626"/>
      <point x="771.566265060241" y="58.36144578313253"/>
      <point x="874.7590361445783" y="58.36144578313253" type="curve" smooth="yes"/>
      <point x="1033.1445783132529" y="58.36144578313253"/>
      <point x="1136.0602409638552" y="173.8192771084337"/>
      <point x="1136.0602409638552" y="341.6385542168675" type="curve" smooth="yes"/>
      <point x="1136.0602409638552" y="573.7349397590363"/>
      <point x="936.9518072289158" y="716.277108433735"/>
      <point x="632.0240963855422" y="716.277108433735" type="curve" smooth="yes"/>
      <point x="285.4457831325301" y="716.277108433735"/>
      <point x="59.6987951807229" y="533.0843373493976"/>
      <point x="59.6987951807229" y="266.72289156626505" type="curve" smooth="yes"/>
      <point x="59.6987951807229" y="0.08433734939759052"/>
      <point x="285.45783132530124" y="-167.73493975903617"/>
    </contour>
    <contour>
      <point x="569.6024096385541" y="170.4578313253012" type="curve" smooth="yes"/>
      <point x="508.37349397590356" y="170.4578313253012"/>
      <point x="476.21686746987956" y="200.433734939759"/>
      <point x="476.21686746987956" y="259.66265060240966" type="curve" smooth="yes"/>
      <point x="476.21686746987956" y="338.9638554216868"/>
      <point x="532.9879518072289" y="393.01204819277103"/>
      <point x="620.3734939759037" y="393.01204819277103" type="curve" smooth="yes"/>
      <point x="677.8674698795181" y="393.01204819277103"/>
      <point x="712.8554216867469" y="368.3975903614458"/>
      <point x="712.8554216867469" y="309.8915662650602" type="curve" smooth="yes"/>
      <point x="712.8554216867469" y="236.42168674698794"/>
      <point x="658.8192771084338" y="170.4578313253012"/>
    </contour>
  </outline>
</glyph>
<glyph name="A" format="2">
  <advance width="940.8072289156627"/>
  <unicode hex="0041"/>
  <anchor x="470.4939759036145" y="0.0" name="bottom"/>
  <anchor x="885.1445783132531" y="0.0" name="ogonek"/>
  <anchor x="470.67469879518075" y="705.0" name="top"/>
  <outline>
    <contour>
      <point x="-17.34939759036144" y="0.0" type="line"/>
      <point x="192.59036144578312" y="0.0" type="line"/>
      <point x="296.0361445783132" y="191.89156626506025" type="line"/>
      <point x="210.24096385542168" y="135.65060240963857" type="line"/>
      <point x="730.2048192771084" y="135.65060240963857" type="line"/>
      <point x="644.5903614457831" y="191.89156626506025" type="line"/>
      <point x="748.2168674698795" y="0.0" type="line"/>
      <point x="958.5180722891566" y="0.0" type="line"/>
      <point x="558.3975903614457" y="705.0" type="line"/>
      <point x="382.7710843373494" y="705.0" type="line"/>
    </contour>
    <contour>
      <point x="469.3132530120482" y="515.722891566265" type="line"/>
      <point x="471.3132530120482" y="515.722891566265" type="line"/>
      <point x="620.1204819277109" y="237.0120481927711" type="line"/>
      <point x="662.6867469879518" y="286.1566265060241" type="line"/>
      <point x="277.7590361445783" y="286.1566265060241" type="line"/>
      <point x="320.6867469879518" y="237.0120481927711" type="line"/>
    </contour>
  </outline>
</glyph>
<glyph name="B" format="2">
  <advance width="874.6144578313254"/>
  <unicode hex="0042"/>
  <anchor x="433.2048192771084" y="0.0" name="bottom"/>
  <anchor x="433.3855421686747" y="705.0" name="top"/>
  <outline>
    <contour>
      <point x="84.59036144578313" y="0.0" type="line"/>
      <point x="518.156626506024" y="0.0" type="line" smooth="yes"/>
      <point x="706.7613493975903" y="0.0"/>
      <point x="819.9277108433735" y="76.01204819277109"/>
      <point x="819.9277108433735" y="198.0120481927711" type="curve" smooth="yes"/>
      <point x="819.9277108433735" y="294.72289156626505"/>
      <point x="749.1917108433735" y="354.46631325301206"/>
      <point x="622.7590361445782" y="374.0120481927711" type="curve"/>
      <point x="622.7590361445782" y="357.7349397590361" type="line"/>
      <point x="731.631421686747" y="379.00303614457835"/>
      <point x="796.4698795180724" y="439.28915662650604"/>
      <point x="796.4698795180724" y="525.8192771084337" type="curve" smooth="yes"/>
      <point x="796.4698795180724" y="636.7228915662649"/>
      <point x="690.1154698795181" y="705.0"/>
      <point x="505.433734939759" y="705.0" type="curve" smooth="yes"/>
      <point x="84.59036144578313" y="705.0" type="line"/>
    </contour>
    <contour>
      <point x="285.25301204819283" y="146.6867469879518" type="line"/>
      <point x="285.25301204819283" y="284.56626506024094" type="line"/>
      <point x="496.21686746987956" y="284.56626506024094" type="line" smooth="yes"/>
      <point x="567.9518072289156" y="284.56626506024094"/>
      <point x="619.1807228915662" y="272.2771084337349"/>
      <point x="619.1807228915662" y="216.2168674698795" type="curve" smooth="yes"/>
      <point x="619.1807228915662" y="159.33734939759034"/>
      <point x="567.0481927710844" y="146.6867469879518"/>
      <point x="495.67469879518075" y="146.6867469879518" type="curve" smooth="yes"/>
    </contour>
    <contour>
      <point x="285.25301204819283" y="431.2530120481927" type="line"/>
      <point x="285.25301204819283" y="558.3132530120482" type="line"/>
      <point x="473.75903614457826" y="558.3132530120482" type="line" smooth="yes"/>
      <point x="562.5903614457832" y="558.3132530120482"/>
      <point x="595.9036144578313" y="540.6265060240963"/>
      <point x="595.9036144578313" y="495.4216867469879" type="curve" smooth="yes"/>
      <point x="595.9036144578313" y="449.39759036144574"/>
      <point x="562.7710843373494" y="431.2530120481927"/>
      <point x="474.1204819277108" y="431.2530120481927" type="curve" smooth="yes"/>
    </contour>
  </outline>
</glyph>
<glyph name="C" format="2">
  <advance width="851.855421686747"/>
  <unicode hex="0043"/>
  <anchor x="492.5783132530121" y="0.0" name="bottom"/>
  <anchor x="493.12048192771084" y="705.0" name="top"/>
  <outline>
    <contour>
      <point x="507.3253012048193" y="-11.27710843373494" type="curve" smooth="yes"/>
      <point x="632.9638554216867" y="-11.27710843373494"/>
      <point x="743.5180722891566" y="19.16867469879518"/>
      <point x="815.3373493975903" y="74.51807228915663" type="curve"/>
      <point x="747.3734939759036" y="232.13253012048193" type="line"/>
      <point x="674.6506024096385" y="184.79518072289156"/>
      <point x="604.7590361445783" y="163.80722891566262"/>
      <point x="517.5180722891565" y="163.80722891566262" type="curve" smooth="yes"/>
      <point x="364.75725301204824" y="163.80722891566262"/>
      <point x="280.7469879518072" y="230.4698795180723"/>
      <point x="280.7469879518072" y="352.6385542168675" type="curve" smooth="yes"/>
      <point x="280.7469879518072" y="474.3493975903614"/>
      <point x="364.9379759036145" y="541.1927710843374"/>
      <point x="517.5180722891565" y="541.1927710843374" type="curve" smooth="yes"/>
      <point x="604.7590361445783" y="541.1927710843374"/>
      <point x="674.6506024096385" y="520.2048192771084"/>
      <point x="747.3734939759036" y="472.8674698795181" type="curve"/>
      <point x="815.3373493975903" y="630.4819277108435" type="line"/>
      <point x="743.5180722891566" y="686.1927710843373"/>
      <point x="633.144578313253" y="716.277108433735"/>
      <point x="507.68674698795184" y="716.277108433735" type="curve" smooth="yes"/>
      <point x="236.01204819277106" y="716.277108433735"/>
      <point x="59.6987951807229" y="573.0843373493976"/>
      <point x="59.6987951807229" y="352.0" type="curve" smooth="yes"/>
      <point x="59.6987951807229" y="131.09638554216866"/>
      <point x="235.01204819277106" y="-11.27710843373494"/>
    </contour>
  </outline>
</glyph>
<glyph name="D" format="2">
  <advance width="967.9156626506024"/>
  <unicode hex="0044"/>
  <anchor x="479.7710843373494" y="0.0" name="bottom"/>
  <anchor x="249.78313253012047" y="358.0" name="center"/>
  <anchor x="479.95180722891564" y="705.0" name="top"/>
  <outline>
    <contour>
      <point x="84.59036144578313" y="0.0" type="line"/>
      <point x="444.4216867469879" y="0.0" type="line" smooth="yes"/>
      <point x="745.6385542168675" y="0.0"/>
      <point x="908.578313253012" y="124.09638554216866"/>
      <point x="908.578313253012" y="353.0" type="curve" smooth="yes"/>
      <point x="908.578313253012" y="581.0843373493975"/>
      <point x="745.0" y="705.0"/>
      <point x="444.4216867469879" y="705.0" type="curve" smooth="yes"/>
      <point x="84.59036144578313" y="705.0" type="line"/>
    </contour>
    <contour>
      <point x="294.26506024096386" y="164.71084337349396" type="line"/>
      <point x="294.26506024096386" y="540.289156626506" type="line"/>
      <point x="431.5903614457831" y="540.289156626506" type="line" smooth="yes"/>
      <point x="615.4096385542168" y="540.289156626506"/>
      <point x="691.6265060240964" y="485.53012048192767"/>
      <point x="691.6265060240964" y="353.0" type="curve" smooth="yes"/>
      <point x="691.6265060240964" y="220.289156626506"/>
      <point x="615.5903614457832" y="164.71084337349396"/>
      <point x="431.5903614457831" y="164.71084337349396" type="curve" smooth="yes"/>
    </contour>
  </outline>
</glyph>
<glyph name="E" format="2">
  <advance width="756.0722891566265"/>
  <unicode hex="0045"/>
  <anchor x="412.2048192771084" y="0.0" name="bottom"/>
  <anchor x="637.3132530120482" y="0.0" name="ogonek"/>
  <anchor x="412.2048192771084" y="705.0" name="top"/>
  <anchor x="24.44578313253012" y="705.0" name="topleft"/>
  <outline>
    <contour>
      <point x="84.59036144578313" y="0.0" type="line"/>
      <point x="693.3373493975903" y="0.0" type="line"/>
      <point x="693.3373493975903" y="154.42168674698794" type="line"/>
      <point x="285.25301204819283" y="154.42168674698794" type="line"/>
      <point x="285.25301204819283" y="281.28915662650604" type="line"/>
      <point x="662.710843373494" y="281.28915662650604" type="line"/>
      <point x="662.710843373494" y="435.710843373494" type="line"/>
      <point x="285.25301204819283" y="435.710843373494" type="line"/>
      <point x="285.25301204819283" y="550.578313253012" type="line"/>
      <point x="693.3373493975903" y="550.578313253012" type="line"/>
      <point x="693.3373493975903" y="705.0" type="line"/>
      <point x="84.59036144578313" y="705.0" type="line"/>
    </contour>
  </outline>
</glyph>
<glyph name="F" format="2">
  <advance width="712.433734939759"/>
  <unicode hex="0046"/>
  <anchor x="376.1084337349398" y="0.0" name="bottom"/>
  <anchor x="381.8433734939759" y="705.0" name="top"/>
  <outline>
    <contour>
      <point x="84.59036144578313" y="0.0" type="line"/>
      <point x="294.26506024096386" y="0.0" type="line"/>
      <point x="294.26506024096386" y="272.9156626506024" type="line"/>
      <point x="656.9759036144578" y="272.9156626506024" type="line"/>
      <point x="656.9759036144578" y="427.33734939759034" type="line"/>
      <point x="294.26506024096386" y="427.33734939759034" type="line"/>
      <point x="294.26506024096386" y="550.578313253012" type="line"/>
      <point x="684.2530120481929" y="550.578313253012" type="line"/>
      <point x="684.2530120481929" y="705.0" type="line"/>
      <point x="84.59036144578313" y="705.0" type="line"/>
    </contour>
  </outline>
</glyph>
<glyph name="G" format="2">
  <advance width="925.6867469879518"/>
  <unicode hex="0047"/>
  <anchor x="517.2289156626506" y="0.0" name="bottom"/>
  <anchor x="508.2289156626506" y="705.0" name="top"/>
  <outline>
    <contour>
      <point x="525.7710843373494" y="-11.27710843373494" type="curve" smooth="yes"/>
      <point x="640.7831325301204" y="-11.27710843373494"/>
      <point x="758.2409638554218" y="10.542168674698797"/>
      <point x="847.0" y="48.096385542168676" type="curve"/>
      <point x="847.0" y="402.0602409638554" type="line"/>
      <point x="493.9156626506024" y="402.0602409638554" type="line"/>
      <point x="493.9156626506024" y="262.8433734939759" type="line"/>
      <point x="676.4698795180723" y="262.8433734939759" type="line"/>
      <point x="676.4698795180723" y="140.74698795180723" type="line"/>
      <point x="704.6746987951807" y="181.59036144578315" type="line"/>
      <point x="640.5060240963854" y="165.06024096385542"/>
      <point x="584.1807228915662" y="156.43373493975903"/>
      <point x="528.9518072289156" y="156.43373493975903" type="curve" smooth="yes"/>
      <point x="362.73296385542164" y="156.43373493975903"/>
      <point x="276.65060240963857" y="222.83132530120483"/>
      <point x="276.65060240963857" y="350.81927710843377" type="curve" smooth="yes"/>
      <point x="276.65060240963857" y="478.6265060240964"/>
      <point x="363.245686746988" y="544.4698795180723"/>
      <point x="531.2650602409637" y="544.4698795180723" type="curve" smooth="yes"/>
      <point x="624.8795180722892" y="544.4698795180723"/>
      <point x="699.0481927710844" y="525.3012048192771"/>
      <point x="773.5903614457831" y="482.06024096385545" type="curve"/>
      <point x="842.5542168674698" y="637.2168674698795" type="line"/>
      <point x="768.0963855421687" y="687.6506024096386"/>
      <point x="652.8072289156626" y="716.277108433735"/>
      <point x="525.0722891566265" y="716.277108433735" type="curve" smooth="yes"/>
      <point x="238.65060240963854" y="716.277108433735"/>
      <point x="59.6987951807229" y="575.5421686746988"/>
      <point x="59.6987951807229" y="349.5421686746988" type="curve" smooth="yes"/>
      <point x="59.6987951807229" y="125.27710843373495"/>
      <point x="235.55421686746988" y="-11.27710843373494"/>
    </contour>
  </outline>
</glyph>
<glyph name="H" format="2">
  <advance width="978.9759036144578"/>
  <unicode hex="0048"/>
  <anchor x="489.578313253012" y="0.0" name="bottom"/>
  <anchor x="489.578313253012" y="572.578313253012" name="center"/>
  <anchor x="489.3975903614458" y="705.0" name="top"/>
  <anchor x="24.44578313253012" y="705.0" name="topleft"/>
  <outline>
    <contour>
      <point x="84.59036144578313" y="0.0" type="line"/>
      <point x="294.26506024096386" y="0.0" type="line"/>
      <point x="294.26506024096386" y="274.91566265060237" type="line"/>
      <point x="684.7108433734941" y="274.91566265060237" type="line"/>
      <point x="684.7108433734941" y="0.0" type="line"/>
      <point x="894.3855421686748" y="0.0" type="line"/>
      <point x="894.3855421686748" y="705.0" type="line"/>
      <point x="684.7108433734941" y="705.0" type="line"/>
      <point x="684.7108433734941" y="439.6265060240964" type="line"/>
      <point x="294.26506024096386" y="439.6265060240964" type="line"/>
      <point x="294.26506024096386" y="705.0" type="line"/>
      <point x="84.59036144578313" y="705.0" type="line"/>
    </contour>
  </outline>
</glyph>
<glyph name="I" format="2">
  <advance width="378.49397590361446"/>
  <unicode hex="0049"/>
  <anchor x="189.51807228915663" y="0.0" name="bottom"/>
  <anchor x="245.28915662650604" y="0.0" name="ogonek"/>
  <anchor x="189.51807228915663" y="705.0" name="top"/>
  <anchor x="24.445783132530117" y="705.0" name="topleft"/>
  <outline>
    <contour>
      <point x="84.59036144578313" y="0.0" type="line"/>
      <point x="294.26506024096386" y="0.0" type="line"/>
      <point x="294.26506024096386" y="705.0" type="line"/>
      <point x="84.59036144578313" y="705.0" type="line"/>
    </contour>
  </outline>
</glyph>
<glyph name="J" format="2">
  <advance width="474.06024096385545"/>
  <unicode hex="004A"/>
  <anchor x="284.9036144578313" y="0.0" name="bottom"/>
  <anchor x="284.3614457831325" y="705.0" name="top"/>
  <outline>
    <contour>
      <point x="-0.5301204819277112" y="-10.91566265060241" type="line"/>
      <point x="116.18072289156626" y="-5.457831325301205" type="line" smooth="yes"/>
      <point x="293.6066024096385" y="3.559855421686747"/>
      <point x="389.4698795180723" y="86.56626506024095"/>
      <point x="389.4698795180723" y="232.15662650602408" type="curve" smooth="yes"/>
      <point x="389.4698795180723" y="705.0" type="line"/>
      <point x="179.79518072289156" y="705.0" type="line"/>
      <point x="179.79518072289156" y="229.24096385542168" type="line" smooth="yes"/>
      <point x="179.79518072289156" y="184.3855421686747"/>
      <point x="147.91566265060243" y="158.87951807228913"/>
      <point x="83.86746987951807" y="155.33734939759034" type="curve" smooth="yes"/>
      <point x="-12.903614457831326" y="149.87951807228916" type="line"/>
    </contour>
  </outline>
</glyph>
<glyph name="K" format="2">
  <advance width="863.9156626506024"/>
  <unicode hex="004B"/>
  <anchor x="428.16867469879514" y="0.0" name="bottom"/>
  <anchor x="428.3493975903614" y="705.0" name="top"/>
  <anchor x="24.44578313253012" y="705.0" name="topleft"/>
  <outline>
    <contour>
      <point x="84.59036144578313" y="0.0" type="line"/>
      <point x="294.26506024096386" y="0.0" type="line"/>
      <point x="294.26506024096386" y="316.06024096385545" type="line"/>
      <point x="296.26506024096386" y="316.06024096385545" type="line"/>
      <point x="635.3373493975904" y="0.0" type="line"/>
      <point x="909.6024096385541" y="0.0" type="line"/>
      <point x="454.8072289156626" y="395.2168674698795" type="line"/>
      <point x="453.9879518072289" y="336.71084337349396" type="line"/>
      <point x="893.3493975903615" y="705.0" type="line"/>
      <point x="632.9156626506024" y="705.0" type="line"/>
      <point x="296.26506024096386" y="405.67469879518075" type="line"/>
      <point x="294.26506024096386" y="405.67469879518075" type="line"/>
      <point x="294.26506024096386" y="705.0" type="line"/>
      <point x="84.59036144578313" y="705.0" type="line"/>
    </contour>
  </outline>
</glyph>
<glyph name="L" format="2">
  <advance width="717.4578313253012"/>
  <unicode hex="004C"/>
  <anchor x="388.46987951807233" y="0.0" name="bottom"/>
  <anchor x="244.33734939759037" y="387.0" name="center"/>
  <anchor x="549.3734939759037" y="400.7469879518072" name="dot"/>
  <anchor x="189.51807228915663" y="705.0" name="top"/>
  <anchor x="412.03614457831327" y="705.0" name="topright"/>
  <outline>
    <contour>
      <point x="84.59036144578313" y="0.0" type="line"/>
      <point x="691.710843373494" y="0.0" type="line"/>
      <point x="691.710843373494" y="167.53012048192767" type="line"/>
      <point x="294.26506024096386" y="167.53012048192767" type="line"/>
      <point x="294.26506024096386" y="705.0" type="line"/>
      <point x="84.59036144578313" y="705.0" type="line"/>
    </contour>
  </outline>
</glyph>
<glyph name="M" format="2">
  <advance width="1106.0843373493976"/>
  <unicode hex="004D"/>
  <anchor x="553.4939759036145" y="0.0" name="bottom"/>
  <anchor x="553.4939759036145" y="705.0" name="top"/>
  <outline>
    <contour>
      <point x="86.59036144578313" y="0.0" type="line"/>
      <point x="276.421686746988" y="0.0" type="line"/>
      <point x="276.421686746988" y="432.51807228915663" type="line"/>
      <point x="248.6867469879518" y="432.51807228915663" type="line"/>
      <point x="497.6265060240964" y="103.62650602409639" type="line"/>
      <point x="606.0843373493975" y="103.62650602409639" type="line"/>
      <point x="854.3012048192771" y="432.15662650602417" type="line"/>
      <point x="830.0240963855422" y="432.15662650602417" type="line"/>
      <point x="830.0240963855422" y="0.0" type="line"/>
      <point x="1019.8554216867469" y="0.0" type="line"/>
      <point x="1019.8554216867469" y="705.0" type="line"/>
      <point x="839.5783132530121" y="705.0" type="line"/>
      <point x="534.6746987951807" y="274.5542168674699" type="line"/>
      <point x="575.8674698795181" y="274.5542168674699" type="line"/>
      <point x="266.0481927710843" y="705.0" type="line"/>
      <point x="86.59036144578313" y="705.0" type="line"/>
    </contour>
  </outline>
</glyph>
<glyph name="N" format="2">
  <advance width="945.5060240963855"/>
  <unicode hex="004E"/>
  <anchor x="473.48192771084337" y="0.0" name="bottom"/>
  <anchor x="472.8433734939759" y="705.0" name="top"/>
  <outline>
    <contour>
      <point x="84.59036144578313" y="0.0" type="line"/>
      <point x="284.0722891566265" y="0.0" type="line"/>
      <point x="284.0722891566265" y="449.4457831325302" type="line"/>
      <point x="247.59036144578315" y="449.4457831325302" type="line"/>
      <point x="704.3975903614457" y="0.0" type="line"/>
      <point x="860.9156626506024" y="0.0" type="line"/>
      <point x="860.9156626506024" y="705.0" type="line"/>
      <point x="661.4337349397591" y="705.0" type="line"/>
      <point x="661.4337349397591" y="255.9156626506024" type="line"/>
      <point x="698.277108433735" y="255.9156626506024" type="line"/>
      <point x="241.289156626506" y="705.0" type="line"/>
      <point x="84.59036144578313" y="705.0" type="line"/>
    </contour>
  </outline>
</glyph>
<glyph name="O" format="2">
  <advance width="1001.1927710843374"/>
  <unicode hex="004F"/>
  <anchor x="500.6867469879518" y="-11.27710843373494" name="Qtail"/>
  <anchor x="500.6867469879518" y="0.0" name="bottom"/>
  <anchor x="497.13253012048193" y="353.0" name="center"/>
  <anchor x="573.144578313253" y="0.0" name="ogonek"/>
  <anchor x="500.86746987951807" y="705.0" name="top"/>
  <anchor x="31.457831325301203" y="705.0" name="topleft"/>
  <anchor x="587.9518072289156" y="705.0" name="topright"/>
  <outline>
    <contour>
      <point x="500.86746987951807" y="-11.27710843373494" type="curve" smooth="yes"/>
      <point x="763.0843373493976" y="-11.27710843373494"/>
      <point x="941.855421686747" y="135.91566265060243"/>
      <point x="941.855421686747" y="353.18072289156623" type="curve" smooth="yes"/>
      <point x="941.855421686747" y="570.4457831325302"/>
      <point x="763.722891566265" y="716.277108433735"/>
      <point x="500.86746987951807" y="716.277108433735" type="curve" smooth="yes"/>
      <point x="238.46987951807228" y="716.277108433735"/>
      <point x="59.6987951807229" y="569.4457831325302"/>
      <point x="59.6987951807229" y="352.0" type="curve" smooth="yes"/>
      <point x="59.6987951807229" y="134.73493975903617"/>
      <point x="237.65060240963857" y="-11.27710843373494"/>
    </contour>
    <contour>
      <point x="500.86746987951807" y="156.43373493975903" type="curve" smooth="yes"/>
      <point x="362.32530120481925" y="156.43373493975903"/>
      <point x="276.65060240963857" y="231.19277108433732"/>
      <point x="276.65060240963857" y="352.0" type="curve" smooth="yes"/>
      <point x="276.65060240963857" y="473.1686746987952"/>
      <point x="363.32530120481925" y="548.566265060241"/>
      <point x="500.86746987951807" y="548.566265060241" type="curve" smooth="yes"/>
      <point x="639.4096385542168" y="548.566265060241"/>
      <point x="724.9036144578313" y="474.16867469879514"/>
      <point x="724.9036144578313" y="353.0" type="curve" smooth="yes"/>
      <point x="724.9036144578313" y="232.19277108433735"/>
      <point x="638.2289156626506" y="156.43373493975903"/>
    </contour>
  </outline>
</glyph>
<glyph name="P" format="2">
  <advance width="836.6506024096386"/>
  <unicode hex="0050"/>
  <anchor x="421.13253012048193" y="0.0" name="bottom"/>
  <anchor x="421.3132530120482" y="705.0" name="top"/>
  <outline>
    <contour>
      <point x="84.59036144578313" y="0.0" type="line"/>
      <point x="294.26506024096386" y="0.0" type="line"/>
      <point x="294.26506024096386" y="236.01204819277106" type="line"/>
      <point x="511.1807228915663" y="236.01204819277106" type="line" smooth="yes"/>
      <point x="703.1292048192772" y="236.01204819277106"/>
      <point x="807.9397590361446" y="318.93975903614455"/>
      <point x="807.9397590361446" y="470.68674698795184" type="curve" smooth="yes"/>
      <point x="807.9397590361446" y="622.6144578313254"/>
      <point x="703.1292048192772" y="705.0"/>
      <point x="511.1807228915663" y="705.0" type="curve" smooth="yes"/>
      <point x="84.59036144578313" y="705.0" type="line"/>
    </contour>
    <contour>
      <point x="294.26506024096386" y="390.0722891566265" type="line"/>
      <point x="294.26506024096386" y="550.9397590361446" type="line"/>
      <point x="481.22891566265054" y="550.9397590361446" type="line" smooth="yes"/>
      <point x="569.6867469879519" y="550.9397590361446"/>
      <point x="607.3734939759037" y="527.9759036144579"/>
      <point x="607.3734939759037" y="471.50602409638554" type="curve" smooth="yes"/>
      <point x="607.3734939759037" y="415.8554216867469"/>
      <point x="566.2289156626506" y="390.0722891566265"/>
      <point x="481.22891566265054" y="390.0722891566265" type="curve" smooth="yes"/>
    </contour>
  </outline>
</glyph>
<glyph name="R" format="2">
  <advance width="876.6385542168674"/>
  <unicode hex="0052"/>
  <anchor x="439.4096385542169" y="0.0" name="bottom"/>
  <anchor x="439.22891566265065" y="705.0" name="top"/>
  <outline>
    <contour>
      <point x="84.59036144578313" y="0.0" type="line"/>
      <point x="294.26506024096386" y="0.0" type="line"/>
      <point x="294.26506024096386" y="251.83132530120486" type="line"/>
      <point x="393.1084337349398" y="251.83132530120486" type="line" smooth="yes"/>
      <point x="451.5060240963855" y="251.83132530120486"/>
      <point x="471.93975903614455" y="238.10843373493978"/>
      <point x="490.90361445783134" y="211.25301204819277" type="curve" smooth="yes"/>
      <point x="635.5301204819277" y="0.0" type="line"/>
      <point x="866.4939759036145" y="0.0" type="line"/>
      <point x="728.5301204819277" y="190.38554216867468" type="line" smooth="yes"/>
      <point x="688.5301204819276" y="246.10843373493975"/>
      <point x="635.9759036144578" y="271.9277108433735"/>
      <point x="571.3373493975904" y="271.9277108433735" type="curve" smooth="yes"/>
      <point x="503.3493975903614" y="271.9277108433735" type="line"/>
      <point x="492.6265060240964" y="254.19277108433738" type="line"/>
      <point x="693.1927710843373" y="254.19277108433738"/>
      <point x="807.9397590361446" y="337.4819277108434"/>
      <point x="807.9397590361446" y="483.6867469879518" type="curve" smooth="yes"/>
      <point x="807.9397590361446" y="624.8915662650603"/>
      <point x="700.6506024096386" y="705.0"/>
      <point x="507.90361445783134" y="705.0" type="curve" smooth="yes"/>
      <point x="84.59036144578313" y="705.0" type="line"/>
    </contour>
    <contour>
      <point x="294.26506024096386" y="393.144578313253" type="line"/>
      <point x="294.26506024096386" y="550.9397590361446" type="line"/>
      <point x="479.50602409638554" y="550.9397590361446" type="line" smooth="yes"/>
      <point x="570.6024096385543" y="550.9397590361446"/>
      <point x="607.3734939759037" y="526.3373493975904"/>
      <point x="607.3734939759037" y="474.5903614457831" type="curve" smooth="yes"/>
      <point x="607.3734939759037" y="421.0240963855422"/>
      <point x="570.6024096385543" y="393.144578313253"/>
      <point x="479.50602409638554" y="393.144578313253" type="curve" smooth="yes"/>
    </contour>
  </outline>
</glyph>
<glyph name="S" format="2">
  <advance width="801.2650602409639"/>
  <unicode hex="0053"/>
  <anchor x="412.6746987951807" y="0.0" name="bottom"/>
  <anchor x="414.3253012048193" y="705.0" name="top"/>
  <outline>
    <contour>
      <point x="406.2168674698795" y="-11.27710843373494" type="curve" smooth="yes"/>
      <point x="630.9879518072289" y="-11.27710843373494"/>
      <point x="769.7469879518072" y="74.9277108433735"/>
      <point x="769.7469879518072" y="216.32530120481928" type="curve" smooth="yes"/>
      <point x="769.7469879518072" y="328.96385542168673"/>
      <point x="685.6506024096385" y="396.90361445783134"/>
      <point x="525.8313253012049" y="421.3614457831325" type="curve" smooth="yes"/>
      <point x="363.8072289156626" y="446.27710843373495" type="line" smooth="yes"/>
      <point x="305.53012048192767" y="455.26506024096386"/>
      <point x="271.09638554216866" y="466.4096385542169"/>
      <point x="271.09638554216866" y="498.6144578313253" type="curve" smooth="yes"/>
      <point x="271.09638554216866" y="533.987951807229"/>
      <point x="317.2168674698795" y="553.4819277108434"/>
      <point x="408.31325301204816" y="553.4819277108434" type="curve" smooth="yes"/>
      <point x="519.7710843373494" y="553.4819277108434"/>
      <point x="599.2289156626506" y="531.2168674698795"/>
      <point x="674.1325301204819" y="484.8795180722892" type="curve"/>
      <point x="736.8192771084338" y="631.2048192771084" type="line"/>
      <point x="664.8192771084337" y="684.7349397590363"/>
      <point x="548.433734939759" y="716.277108433735"/>
      <point x="421.0602409638554" y="716.277108433735" type="curve" smooth="yes"/>
      <point x="208.46987951807228" y="716.277108433735"/>
      <point x="65.79518072289157" y="627.8072289156627"/>
      <point x="65.79518072289157" y="482.04819277108436" type="curve" smooth="yes"/>
      <point x="65.79518072289157" y="368.6746987951807"/>
      <point x="147.54216867469881" y="299.566265060241"/>
      <point x="303.6385542168675" y="278.3855421686747" type="curve" smooth="yes"/>
      <point x="477.85542168674704" y="255.1084337349398" type="line" smooth="yes"/>
      <point x="530.8554216867469" y="247.93975903614455"/>
      <point x="563.6265060240964" y="239.78313253012047"/>
      <point x="563.6265060240964" y="206.95180722891567" type="curve" smooth="yes"/>
      <point x="563.6265060240964" y="171.02409638554218"/>
      <point x="515.6867469879518" y="151.51807228915663"/>
      <point x="419.96385542168673" y="151.51807228915663" type="curve" smooth="yes"/>
      <point x="302.60240963855426" y="151.51807228915663"/>
      <point x="205.855421686747" y="177.33734939759037"/>
      <point x="111.75903614457832" y="228.2289156626506" type="curve"/>
      <point x="48.25301204819277" y="72.89156626506025" type="line"/>
      <point x="133.80722891566265" y="20.903614457831324"/>
      <point x="269.66265060240966" y="-11.27710843373494"/>
    </contour>
  </outline>
</glyph>
<glyph name="T" format="2">
  <advance width="790.6385542168674"/>
  <unicode hex="0054"/>
  <anchor x="395.4096385542169" y="0.0" name="bottom"/>
  <anchor x="395.5903614457831" y="358.0" name="center"/>
  <anchor x="395.5903614457831" y="705.0" name="top"/>
  <outline>
    <contour>
      <point x="290.6626506024096" y="0.0" type="line"/>
      <point x="500.3373493975904" y="0.0" type="line"/>
      <point x="500.3373493975904" y="541.566265060241" type="line"/>
      <point x="785.2650602409639" y="541.566265060241" type="line"/>
      <point x="785.2650602409639" y="705.0" type="line"/>
      <point x="5.734939759036145" y="705.0" type="line"/>
      <point x="5.734939759036145" y="541.566265060241" type="line"/>
      <point x="290.6626506024096" y="541.566265060241" type="line"/>
    </contour>
  </outline>
</glyph>
<glyph name="U" format="2">
  <advance width="933.144578313253"/>
  <unicode hex="0055"/>
  <anchor x="466.48192771084337" y="0.0" name="bottom"/>
  <anchor x="537.301204819277" y="0.0" name="ogonek"/>
  <anchor x="466.48192771084337" y="705.0" name="top"/>
  <anchor x="706.7831325301205" y="705.0" name="topright"/>
  <outline>
    <contour>
      <point x="468.12048192771084" y="-11.27710843373494" type="curve" smooth="yes"/>
      <point x="726.987951807229" y="-11.27710843373494"/>
      <point x="854.5542168674699" y="96.65060240963857"/>
      <point x="854.5542168674699" y="304.86746987951807" type="curve" smooth="yes"/>
      <point x="854.5542168674699" y="705.0" type="line"/>
      <point x="647.7951807228915" y="705.0" type="line"/>
      <point x="647.7951807228915" y="305.1325301204819" type="line" smooth="yes"/>
      <point x="647.7951807228915" y="210.67469879518072"/>
      <point x="586.7469879518072" y="156.43373493975903"/>
      <point x="468.12048192771084" y="156.43373493975903" type="curve" smooth="yes"/>
      <point x="349.67469879518075" y="156.43373493975903"/>
      <point x="288.08433734939763" y="210.67469879518072"/>
      <point x="288.08433734939763" y="305.1325301204819" type="curve" smooth="yes"/>
      <point x="288.08433734939763" y="705.0" type="line"/>
      <point x="78.40963855421687" y="705.0" type="line"/>
      <point x="78.40963855421687" y="304.86746987951807" type="line" smooth="yes"/>
      <point x="78.40963855421687" y="98.28915662650603"/>
      <point x="208.43373493975903" y="-11.27710843373494"/>
    </contour>
  </outline>
</glyph>
<glyph name="V" format="2">
  <advance width="910.4819277108435"/>
  <unicode hex="0056"/>
  <anchor x="455.24096385542174" y="0.0" name="bottom"/>
  <anchor x="455.24096385542174" y="705.0" name="top"/>
  <outline>
    <contour>
      <point x="366.9759036144578" y="0.0" type="line"/>
      <point x="543.5060240963855" y="0.0" type="line"/>
      <point x="935.433734939759" y="705.0" type="line"/>
      <point x="710.1084337349397" y="705.0" type="line"/>
      <point x="429.85542168674704" y="173.0120481927711" type="line"/>
      <point x="489.54216867469876" y="173.0120481927711" type="line"/>
      <point x="208.9277108433735" y="705.0" type="line"/>
      <point x="-24.951807228915662" y="705.0" type="line"/>
    </contour>
  </outline>
</glyph>
<glyph name="W" format="2">
  <advance width="1398.0602409638554"/>
  <unicode hex="0057"/>
  <anchor x="699.4819277108434" y="0.0" name="bottom"/>
  <anchor x="699.9397590361447" y="705.0" name="top"/>
  <outline>
    <contour>
      <point x="325.2409638554217" y="0.0" type="line"/>
      <point x="497.5903614457831" y="0.0" type="line"/>
      <point x="712.2168674698795" y="433.4096385542169" type="line"/>
      <point x="685.6626506024096" y="433.4096385542169" type="line"/>
      <point x="900.4698795180723" y="0.0" type="line"/>
      <point x="1073.0" y="0.0" type="line"/>
      <point x="1382.0963855421687" y="705.0" type="line"/>
      <point x="1176.2530120481929" y="705.0" type="line"/>
      <point x="960.2650602409639" y="217.34939759036143" type="line"/>
      <point x="1015.301204819277" y="217.34939759036143" type="line"/>
      <point x="784.2048192771084" y="705.0" type="line"/>
      <point x="626.144578313253" y="705.0" type="line"/>
      <point x="394.867469879518" y="217.34939759036143" type="line"/>
      <point x="450.8072289156626" y="217.34939759036143" type="line"/>
      <point x="234.8192771084337" y="705.0" type="line"/>
      <point x="16.506024096385545" y="705.0" type="line"/>
    </contour>
  </outline>
</glyph>
<glyph name="X" format="2">
  <advance width="856.6506024096386"/>
  <unicode hex="0058"/>
  <anchor x="429.32530120481925" y="0.0" name="bottom"/>
  <anchor x="429.3253012048193" y="705.0" name="top"/>
  <outline>
    <contour>
      <point x="-26.89156626506024" y="0.0" type="line"/>
      <point x="222.54216867469876" y="0.0" type="line"/>
      <point x="459.6265060240964" y="255.61445783132535" type="line"/>
      <point x="393.3855421686747" y="255.61445783132535" type="line"/>
      <point x="628.5542168674699" y="0.0" type="line"/>
      <point x="887.4578313253012" y="0.0" type="line"/>
      <point x="512.9518072289156" y="400.95180722891564" type="line"/>
      <point x="512.9518072289156" y="309.30120481927713" type="line"/>
      <point x="876.0120481927712" y="705.0" type="line"/>
      <point x="626.7590361445782" y="705.0" type="line"/>
      <point x="397.46987951807233" y="452.0843373493976" type="line"/>
      <point x="462.54216867469876" y="452.0843373493976" type="line"/>
      <point x="237.9036144578313" y="705.0" type="line"/>
      <point x="-21.0" y="705.0" type="line"/>
      <point x="344.06024096385545" y="309.30120481927713" type="line"/>
      <point x="344.06024096385545" y="400.95180722891564" type="line"/>
    </contour>
  </outline>
</glyph>
<glyph name="Y" format="2">
  <advance width="788.4698795180723"/>
  <unicode hex="0059"/>
  <anchor x="393.32530120481925" y="0.0" name="bottom"/>
  <anchor x="395.144578313253" y="705.0" name="top"/>
  <anchor x="18.819277108433734" y="705.0" name="topleft"/>
  <outline>
    <contour>
      <point x="289.3975903614458" y="0.0" type="line"/>
      <point x="499.0722891566265" y="0.0" type="line"/>
      <point x="499.0722891566265" y="357.81927710843377" type="line"/>
      <point x="460.3975903614458" y="249.98795180722888" type="line"/>
      <point x="834.2530120481928" y="705.0" type="line"/>
      <point x="601.3734939759037" y="705.0" type="line"/>
      <point x="377.4939759036145" y="429.08433734939763" type="line"/>
      <point x="418.2530120481928" y="429.08433734939763" type="line"/>
      <point x="195.27710843373495" y="705.0" type="line"/>
      <point x="-45.78313253012048" y="705.0" type="line"/>
      <point x="328.61445783132524" y="249.98795180722888" type="line"/>
      <point x="289.3975903614458" y="357.81927710843377" type="line"/>
    </contour>
  </outline>
</glyph>
<glyph name="Z" format="2">
  <advance width="768.4457831325301"/>
  <unicode hex="005A"/>
  <anchor x="396.578313253012" y="0.0" name="bottom"/>
  <anchor x="396.39759036144574" y="705.0" name="top"/>
  <outline>
    <contour>
      <point x="55.54216867469879" y="0.0" type="line"/>
      <point x="743.6265060240963" y="0.0" type="line"/>
      <point x="743.6265060240963" y="158.97590361445782" type="line"/>
      <point x="268.49397590361446" y="158.97590361445782" type="line"/>
      <point x="268.49397590361446" y="109.3012048192771" type="line"/>
      <point x="725.1686746987953" y="557.3012048192771" type="line"/>
      <point x="725.1686746987953" y="705.0" type="line"/>
      <point x="55.54216867469879" y="705.0" type="line"/>
      <point x="55.54216867469879" y="546.0240963855422" type="line"/>
      <point x="512.3975903614459" y="546.0240963855422" type="line"/>
      <point x="512.3975903614459" y="596.0602409638554" type="line"/>
      <point x="55.54216867469879" y="147.6987951807229" type="line"/>
    </contour>
  </outline>
</glyph>
<glyph name="bracketleft" format="2">
  <advance width="474.8192771084337"/>
  <unicode hex="005B"/>
  <outline>
    <contour>
      <point x="127.80722891566265" y="-180.0" type="line"/>
      <point x="457.43373493975906" y="-180.0" type="line"/>
      <point x="457.43373493975906" y="-36.95180722891566" type="line"/>
      <point x="324.5542168674699" y="-36.95180722891566" type="line"/>
      <point x="324.5542168674699" y="561.9518072289156" type="line"/>
      <point x="457.43373493975906" y="561.9518072289156" type="line"/>
      <point x="457.43373493975906" y="705.0" type="line"/>
      <point x="127.80722891566265" y="705.0" type="line"/>
    </contour>
  </outline>
</glyph>
<glyph name="backslash" format="2">
  <advance width="416.14457831325296"/>
  <unicode hex="005C"/>
  <outline>
    <contour>
      <point x="298.5542168674699" y="-84.49397590361446" type="line"/>
      <point x="440.14457831325296" y="-32.265060240963855" type="line"/>
      <point x="117.59036144578313" y="772.855421686747" type="line"/>
      <point x="-24.000000000000004" y="720.6265060240963" type="line"/>
    </contour>
  </outline>
</glyph>
<glyph name="bracketright" format="2">
  <advance width="474.8192771084337"/>
  <unicode hex="005D"/>
  <outline>
    <contour>
      <point x="17.385542168674696" y="-180.0" type="line"/>
      <point x="347.1927710843373" y="-180.0" type="line"/>
      <point x="347.1927710843373" y="705.0" type="line"/>
      <point x="17.385542168674696" y="705.0" type="line"/>
      <point x="17.385542168674696" y="561.9518072289156" type="line"/>
      <point x="150.44578313253012" y="561.9518072289156" type="line"/>
      <point x="150.44578313253012" y="-36.95180722891566" type="line"/>
      <point x="17.385542168674696" y="-36.95180722891566" type="line"/>
    </contour>
  </outline>
</glyph>
<glyph name="asciicircum" format="2">
  <advance width="748.0"/>
  <unicode hex="005E"/>
  <outline>
    <contour>
      <point x="54.12048192771084" y="125.60240963855422" type="line"/>
      <point x="198.61445783132532" y="125.60240963855422" type="line"/>
      <point x="418.95180722891564" y="576.9759036144578" type="line"/>
      <point x="329.4096385542169" y="576.9759036144578" type="line"/>
      <point x="549.3855421686748" y="125.60240963855422" type="line"/>
      <point x="693.8795180722891" y="125.60240963855422" type="line"/>
      <point x="446.43373493975906" y="627.8192771084338" type="line"/>
      <point x="301.56626506024094" y="627.8192771084338" type="line"/>
    </contour>
  </outline>
</glyph>
<glyph name="underscore" format="2">
  <advance width="621.9156626506024"/>
  <unicode hex="005F"/>
  <outline>
    <contour>
      <point x="23.457831325301203" y="-109.73493975903614" type="line"/>
      <point x="598.4578313253012" y="-109.73493975903614" type="line"/>
      <point x="598.4578313253012" y="0.0" type="line"/>
      <point x="23.457831325301203" y="0.0" type="line"/>
    </contour>
  </outline>
</glyph>
<glyph name="a" format="2">
  <advance width="697.2650602409637"/>
  <unicode hex="0061"/>
  <anchor x="348.2168674698795" y="0.0" name="bottom"/>
  <anchor x="589.3493975903615" y="0.0" name="ogonek"/>
  <anchor x="353.85542168674704" y="484.0" name="top"/>
  <outline>
    <contour>
      <point x="275.7228915662651" y="-11.27710843373494" type="curve" smooth="yes"/>
      <point x="372.3373493975904" y="-11.27710843373494"/>
      <point x="435.86746987951807" y="28.433734939759034"/>
      <point x="456.5783132530121" y="101.33734939759037" type="curve"/>
      <point x="446.67469879518075" y="101.15662650602411" type="line"/>
      <point x="446.67469879518075" y="0.0" type="line"/>
      <point x="630.132530120482" y="0.0" type="line"/>
      <point x="630.132530120482" y="270.8433734939759" type="line" smooth="yes"/>
      <point x="630.132530120482" y="431.72289156626505"/>
      <point x="537.0120481927711" y="503.4698795180723"/>
      <point x="337.46987951807233" y="503.4698795180723" type="curve" smooth="yes"/>
      <point x="248.0963855421687" y="503.4698795180723"/>
      <point x="135.2409638554217" y="479.65060240963857"/>
      <point x="67.13253012048195" y="443.1084337349398" type="curve"/>
      <point x="116.98795180722892" y="312.34939759036143" type="line"/>
      <point x="181.18072289156626" y="343.9759036144579"/>
      <point x="257.5542168674699" y="360.8795180722892"/>
      <point x="336.65060240963857" y="360.8795180722892" type="curve" smooth="yes"/>
      <point x="411.5180722891566" y="360.8795180722892"/>
      <point x="444.0361445783132" y="342.8192771084337"/>
      <point x="444.0361445783132" y="302.1566265060241" type="curve" smooth="yes"/>
      <point x="444.0361445783132" y="202.81927710843374" type="line" smooth="yes"/>
      <point x="444.0361445783132" y="149.6987951807229"/>
      <point x="384.5301204819277" y="116.56626506024095"/>
      <point x="310.67469879518075" y="116.56626506024095" type="curve" smooth="yes"/>
      <point x="255.5421686746988" y="116.56626506024095"/>
      <point x="230.77108433734938" y="134.16867469879517"/>
      <point x="230.77108433734938" y="159.20481927710844" type="curve" smooth="yes"/>
      <point x="230.77108433734938" y="185.1566265060241"/>
      <point x="259.66265060240966" y="199.50602409638554"/>
      <point x="370.07228915662654" y="199.50602409638554" type="curve" smooth="yes"/>
      <point x="464.5903614457831" y="199.50602409638554" type="line"/>
      <point x="464.5903614457831" y="293.01204819277115" type="line"/>
      <point x="370.1686746987952" y="293.01204819277115" type="line" smooth="yes"/>
      <point x="121.96385542168674" y="293.01204819277115"/>
      <point x="42.13253012048193" y="247.56626506024097"/>
      <point x="42.13253012048193" y="154.10843373493975" type="curve" smooth="yes"/>
      <point x="42.13253012048193" y="59.096385542168676"/>
      <point x="136.7831325301205" y="-11.27710843373494"/>
    </contour>
  </outline>
</glyph>
<glyph name="b" format="2">
  <advance width="764.1686746987951"/>
  <unicode hex="0062"/>
  <anchor x="380.62650602409644" y="0.0" name="bottom"/>
  <anchor x="396.75903614457826" y="705.0" name="top"/>
  <outline>
    <contour>
      <point x="455.28915662650604" y="-11.27710843373494" type="curve" smooth="yes"/>
      <point x="616.566265060241" y="-11.27710843373494"/>
      <point x="724.5662650602409" y="90.18072289156626"/>
      <point x="724.5662650602409" y="246.27710843373495" type="curve" smooth="yes"/>
      <point x="724.5662650602409" y="402.37349397590367"/>
      <point x="616.566265060241" y="503.4698795180723"/>
      <point x="455.28915662650604" y="503.4698795180723" type="curve" smooth="yes"/>
      <point x="368.144578313253" y="503.4698795180723"/>
      <point x="285.69879518072287" y="467.4939759036145"/>
      <point x="249.96385542168676" y="408.43373493975906" type="curve"/>
      <point x="266.2409638554217" y="408.43373493975906" type="line"/>
      <point x="266.2409638554217" y="705.0" type="line"/>
      <point x="69.49397590361446" y="705.0" type="line"/>
      <point x="69.49397590361446" y="0.0" type="line"/>
      <point x="263.6024096385542" y="0.0" type="line"/>
      <point x="263.6024096385542" y="84.12048192771084" type="line"/>
      <point x="249.96385542168673" y="84.12048192771084" type="line"/>
      <point x="285.69879518072287" y="24.698795180722893"/>
      <point x="367.9638554216867" y="-11.27710843373494"/>
    </contour>
    <contour>
      <point x="395.1204819277108" y="132.13253012048193" type="curve" smooth="yes"/>
      <point x="311.3734939759036" y="132.13253012048193"/>
      <point x="263.6024096385542" y="174.80722891566265"/>
      <point x="263.6024096385542" y="246.27710843373495" type="curve" smooth="yes"/>
      <point x="263.6024096385542" y="317.74698795180717"/>
      <point x="311.3734939759036" y="360.06024096385545"/>
      <point x="395.1204819277108" y="360.06024096385545" type="curve" smooth="yes"/>
      <point x="478.50602409638554" y="360.06024096385545"/>
      <point x="526.6385542168674" y="317.74698795180717"/>
      <point x="526.6385542168674" y="246.27710843373495" type="curve" smooth="yes"/>
      <point x="526.6385542168674" y="174.80722891566265"/>
      <point x="478.50602409638554" y="132.13253012048193"/>
    </contour>
  </outline>
</glyph>
<glyph name="c" format="2">
  <advance width="596.8674698795181"/>
  <unicode hex="0063"/>
  <anchor x="358.48192771084337" y="0.0" name="bottom"/>
  <anchor x="358.48192771084337" y="484.0" name="top"/>
  <outline>
    <contour>
      <point x="366.2289156626506" y="-11.27710843373494" type="curve" smooth="yes"/>
      <point x="454.4216867469879" y="-11.27710843373494"/>
      <point x="539.1686746987953" y="9.807228915662648"/>
      <point x="590.1686746987951" y="44.15662650602409" type="curve"/>
      <point x="532.5783132530121" y="177.8313253012048" type="line"/>
      <point x="487.49397590361446" y="149.3975903614458"/>
      <point x="434.8674698795181" y="134.7710843373494"/>
      <point x="382.43373493975906" y="134.7710843373494" type="curve" smooth="yes"/>
      <point x="289.5783132530121" y="134.7710843373494"/>
      <point x="241.62650602409636" y="177.26506024096383"/>
      <point x="241.62650602409636" y="245.27710843373495" type="curve" smooth="yes"/>
      <point x="241.62650602409636" y="314.289156626506"/>
      <point x="289.5783132530121" y="357.4216867469879"/>
      <point x="383.2530120481928" y="357.4216867469879" type="curve" smooth="yes"/>
      <point x="434.86746987951807" y="357.4216867469879"/>
      <point x="490.4096385542168" y="342.15662650602405"/>
      <point x="532.5783132530121" y="314.90361445783134" type="curve"/>
      <point x="590.1686746987951" y="448.0361445783132" type="line"/>
      <point x="540.987951807229" y="482.7469879518072"/>
      <point x="455.4216867469879" y="503.4698795180723"/>
      <point x="366.2289156626506" y="503.4698795180723" type="curve" smooth="yes"/>
      <point x="166.0843373493976" y="503.4698795180723"/>
      <point x="39.602409638554214" y="402.0120481927711"/>
      <point x="39.602409638554214" y="245.4578313253012" type="curve" smooth="yes"/>
      <point x="39.602409638554214" y="89.36144578313254"/>
      <point x="166.0843373493976" y="-11.27710843373494"/>
    </contour>
  </outline>
</glyph>
<glyph name="d" format="2">
  <advance width="764.1686746987951"/>
  <unicode hex="0064"/>
  <anchor x="384.132530120482" y="0.0" name="bottom"/>
  <anchor x="373.0240963855422" y="246.63855421686748" name="center"/>
  <anchor x="532.301204819277" y="594.1084337349397" name="stroke"/>
  <anchor x="382.95180722891564" y="484.0" name="top"/>
  <anchor x="739.0120481927711" y="705.0" name="topright"/>
  <outline>
    <contour>
      <point x="309.4216867469879" y="-11.27710843373494" type="curve" smooth="yes"/>
      <point x="396.2048192771084" y="-11.27710843373494"/>
      <point x="478.83132530120486" y="24.337349397590362"/>
      <point x="514.0240963855422" y="83.57831325301206" type="curve"/>
      <point x="500.56626506024094" y="83.57831325301206" type="line"/>
      <point x="500.56626506024094" y="0.0" type="line"/>
      <point x="694.6746987951808" y="0.0" type="line"/>
      <point x="694.6746987951808" y="705.0" type="line"/>
      <point x="497.9277108433735" y="705.0" type="line"/>
      <point x="497.9277108433735" y="408.9759036144579" type="line"/>
      <point x="514.0240963855422" y="408.9759036144579" type="line"/>
      <point x="478.8313253012048" y="467.85542168674704"/>
      <point x="396.3855421686747" y="503.4698795180723"/>
      <point x="309.4216867469879" y="503.4698795180723" type="curve" smooth="yes"/>
      <point x="147.24096385542168" y="503.4698795180723"/>
      <point x="39.602409638554214" y="402.37349397590367"/>
      <point x="39.602409638554214" y="246.27710843373495" type="curve" smooth="yes"/>
      <point x="39.602409638554214" y="90.18072289156626"/>
      <point x="147.24096385542168" y="-11.27710843373494"/>
    </contour>
    <contour>
      <point x="369.04819277108436" y="132.13253012048193" type="curve" smooth="yes"/>
      <point x="285.3012048192771" y="132.13253012048193"/>
      <point x="237.53012048192772" y="174.80722891566265"/>
      <point x="237.53012048192772" y="246.27710843373495" type="curve" smooth="yes"/>
      <point x="237.53012048192772" y="317.74698795180717"/>
      <point x="285.3012048192771" y="360.06024096385545"/>
      <point x="369.04819277108436" y="360.06024096385545" type="curve" smooth="yes"/>
      <point x="452.43373493975906" y="360.06024096385545"/>
      <point x="500.56626506024094" y="317.74698795180717"/>
      <point x="500.56626506024094" y="246.27710843373495" type="curve" smooth="yes"/>
      <point x="500.56626506024094" y="174.80722891566265"/>
      <point x="452.43373493975906" y="132.13253012048193"/>
    </contour>
  </outline>
</glyph>
<glyph name="e" format="2">
  <advance width="677.7710843373495"/>
  <unicode hex="0065"/>
  <anchor x="350.3734939759036" y="0.0" name="bottom"/>
  <anchor x="513.8313253012047" y="0.0" name="ogonek"/>
  <anchor x="368.3975903614458" y="484.0" name="top"/>
  <outline>
    <contour>
      <point x="390.78313253012044" y="-11.27710843373494" type="curve" smooth="yes"/>
      <point x="493.5180722891566" y="-11.27710843373494"/>
      <point x="588.2530120481927" y="11.168674698795181"/>
      <point x="641.0843373493976" y="44.06024096385542" type="curve"/>
      <point x="593.0481927710844" y="170.63855421686745" type="line"/>
      <point x="549.6987951807229" y="146.57831325301203"/>
      <point x="478.3253012048193" y="131.3132530120482"/>
      <point x="400.6987951807229" y="131.3132530120482" type="curve" smooth="yes"/>
      <point x="264.5421686746988" y="131.3132530120482"/>
      <point x="226.69879518072287" y="176.1807228915663"/>
      <point x="226.69879518072287" y="254.10843373493978" type="curve" smooth="yes"/>
      <point x="226.69879518072287" y="262.56626506024094" type="line" smooth="yes"/>
      <point x="226.69879518072287" y="337.22891566265065"/>
      <point x="270.6385542168675" y="377.62650602409644"/>
      <point x="364.3012048192771" y="377.62650602409644" type="curve" smooth="yes"/>
      <point x="443.96385542168673" y="377.62650602409644"/>
      <point x="482.91566265060237" y="345.67469879518075"/>
      <point x="485.3734939759036" y="283.12048192771084" type="curve"/>
      <point x="508.83132530120486" y="301.30120481927713" type="line"/>
      <point x="202.60240963855424" y="301.30120481927713" type="line"/>
      <point x="202.60240963855424" y="206.15662650602408" type="line"/>
      <point x="651.0843373493976" y="206.15662650602408" type="line"/>
      <point x="651.0843373493976" y="246.07228915662648" type="line" smooth="yes"/>
      <point x="651.0843373493976" y="405.5421686746988"/>
      <point x="538.6024096385543" y="503.4698795180723"/>
      <point x="356.92771084337346" y="503.4698795180723" type="curve" smooth="yes"/>
      <point x="170.6265060240964" y="503.4698795180723"/>
      <point x="39.602409638554214" y="398.37349397590356"/>
      <point x="39.602409638554214" y="243.73493975903614" type="curve" smooth="yes"/>
      <point x="39.602409638554214" y="86.63855421686746"/>
      <point x="173.72289156626508" y="-11.27710843373494"/>
    </contour>
  </outline>
</glyph>
<glyph name="f" format="2">
  <advance width="481.2409638554216"/>
  <unicode hex="0066"/>
  <anchor x="215.90361445783134" y="0.0" name="bottom"/>
  <anchor x="215.90361445783134" y="705.0" name="top"/>
  <outline>
    <contour>
      <point x="117.34939759036145" y="0.0" type="line"/>
      <point x="314.09638554216866" y="0.0" type="line"/>
      <point x="314.09638554216866" y="352.4216867469879" type="line"/>
      <point x="473.51807228915663" y="352.4216867469879" type="line"/>
      <point x="473.51807228915663" y="492.1927710843374" type="line"/>
      <point x="271.32530120481925" y="492.1927710843374" type="line"/>
      <point x="314.09638554216866" y="449.60240963855415" type="line"/>
      <point x="314.09638554216866" y="504.62650602409633" type="line" smooth="yes"/>
      <point x="314.09638554216866" y="547.0963855421687"/>
      <point x="341.2409638554217" y="562.6867469879519"/>
      <point x="424.2168674698795" y="567.5060240963855" type="curve" smooth="yes"/>
      <point x="503.1566265060241" y="572.144578313253" type="line"/>
      <point x="491.421686746988" y="711.277108433735" type="line"/>
      <point x="401.1686746987952" y="705.1807228915662" type="line" smooth="yes"/>
      <point x="208.0120481927711" y="692.0843373493976"/>
      <point x="117.34939759036145" y="615.9759036144578"/>
      <point x="117.34939759036145" y="466.9397590361446" type="curve" smooth="yes"/>
      <point x="117.34939759036145" y="449.421686746988" type="line"/>
      <point x="160.3012048192771" y="492.1927710843374" type="line"/>
      <point x="1.0843373493975905" y="492.1927710843374" type="line"/>
      <point x="1.0843373493975905" y="352.4216867469879" type="line"/>
      <point x="117.34939759036145" y="352.4216867469879" type="line"/>
    </contour>
  </outline>
</glyph>
<glyph name="g" format="2">
  <advance width="768.2650602409639"/>
  <unicode hex="0067"/>
  <anchor x="383.4939759036145" y="484.0" name="top"/>
  <outline>
    <contour>
      <point x="352.9036144578313" y="-191.27710843373492" type="curve" smooth="yes"/>
      <point x="585.6385542168675" y="-191.27710843373492"/>
      <point x="698.7710843373494" y="-105.53012048192771"/>
      <point x="698.7710843373494" y="70.6987951807229" type="curve" smooth="yes"/>
      <point x="698.7710843373494" y="492.1927710843374" type="line"/>
      <point x="504.66265060240966" y="492.1927710843374" type="line"/>
      <point x="504.66265060240966" y="409.61445783132535" type="line"/>
      <point x="516.4819277108434" y="409.61445783132535" type="line"/>
      <point x="490.48192771084337" y="467.85542168674704"/>
      <point x="412.77108433734935" y="503.4698795180723"/>
      <point x="312.5180722891566" y="503.4698795180723" type="curve" smooth="yes"/>
      <point x="145.6024096385542" y="503.4698795180723"/>
      <point x="39.602409638554214" y="408.83132530120486"/>
      <point x="39.602409638554214" y="257.9156626506024" type="curve" smooth="yes"/>
      <point x="39.602409638554214" y="107.0"/>
      <point x="146.42168674698794" y="12.0"/>
      <point x="314.9759036144578" y="12.0" type="curve" smooth="yes"/>
      <point x="414.2289156626506" y="12.0"/>
      <point x="490.48192771084337" y="47.6144578313253"/>
      <point x="516.4819277108434" y="106.03614457831327" type="curve"/>
      <point x="506.7590361445783" y="106.03614457831327" type="line"/>
      <point x="506.7590361445783" y="48.95180722891566" type="line" smooth="yes"/>
      <point x="506.7590361445783" y="-17.722891566265062"/>
      <point x="456.144578313253" y="-48.68674698795181"/>
      <point x="349.8072289156627" y="-48.68674698795181" type="curve" smooth="yes"/>
      <point x="261.3614457831325" y="-48.68674698795181"/>
      <point x="165.59036144578312" y="-29.590361445783135"/>
      <point x="113.5301204819277" y="1.6506024096385534" type="curve"/>
      <point x="64.3132530120482" y="-128.74698795180726" type="line"/>
      <point x="121.48192771084337" y="-168.63855421686748"/>
      <point x="229.96385542168673" y="-191.27710843373492"/>
    </contour>
    <contour>
      <point x="371.5060240963855" y="155.40963855421688" type="curve" smooth="yes"/>
      <point x="287.9397590361446" y="155.40963855421688"/>
      <point x="237.53012048192772" y="194.0843373493976"/>
      <point x="237.53012048192772" y="257.9156626506024" type="curve" smooth="yes"/>
      <point x="237.53012048192772" y="321.7469879518072"/>
      <point x="287.9397590361446" y="360.06024096385545"/>
      <point x="371.5060240963855" y="360.06024096385545" type="curve" smooth="yes"/>
      <point x="455.0722891566265" y="360.06024096385545"/>
      <point x="505.48192771084337" y="321.7469879518072"/>
      <point x="505.48192771084337" y="257.9156626506024" type="curve" smooth="yes"/>
      <point x="505.48192771084337" y="194.0843373493976"/>
      <point x="455.0722891566265" y="155.40963855421688"/>
    </contour>
  </outline>
</glyph>
<glyph name="h" format="2">
  <advance width="745.8072289156627"/>
  <unicode hex="0068"/>
  <anchor x="374.5903614457831" y="0.0" name="bottom"/>
  <anchor x="374.5903614457831" y="250.0963855421687" name="center"/>
  <anchor x="425.69879518072287" y="350.72289156626505" name="dot"/>
  <anchor x="230.50602409638554" y="594.1084337349397" name="stroke"/>
  <anchor x="376.4096385542168" y="705.0" name="top"/>
  <anchor x="297.39759036144574" y="705.0" name="topright"/>
  <outline>
    <contour>
      <point x="69.49397590361446" y="0.0" type="line"/>
      <point x="266.2409638554217" y="0.0" type="line"/>
      <point x="266.2409638554217" y="246.16867469879523" type="line" smooth="yes"/>
      <point x="266.2409638554217" y="303.18072289156623"/>
      <point x="315.7469879518072" y="354.32530120481925"/>
      <point x="391.578313253012" y="354.32530120481925" type="curve" smooth="yes"/>
      <point x="447.96385542168673" y="354.32530120481925"/>
      <point x="481.9277108433735" y="332.26506024096386"/>
      <point x="481.9277108433735" y="257.8795180722892" type="curve" smooth="yes"/>
      <point x="481.9277108433735" y="0.0" type="line"/>
      <point x="678.6746987951808" y="0.0" type="line"/>
      <point x="678.6746987951808" y="264.9759036144578" type="line" smooth="yes"/>
      <point x="678.6746987951808" y="432.98795180722885"/>
      <point x="605.6024096385541" y="503.4698795180723"/>
      <point x="464.132530120482" y="503.4698795180723" type="curve" smooth="yes"/>
      <point x="371.2530120481927" y="503.4698795180723"/>
      <point x="301.89156626506025" y="468.03614457831327"/>
      <point x="256.2409638554217" y="400.68674698795184" type="curve"/>
      <point x="267.0602409638554" y="400.68674698795184" type="line"/>
      <point x="266.2409638554217" y="705.0" type="line"/>
      <point x="69.49397590361446" y="705.0" type="line"/>
    </contour>
  </outline>
</glyph>
<glyph name="i" format="2">
  <advance width="335.73493975903614"/>
  <unicode hex="0069"/>
  <anchor x="169.32530120481928" y="0.0" name="bottom"/>
  <anchor x="221.18072289156626" y="0.0" name="ogonek"/>
  <outline>
    <contour>
      <point x="62.32530120481929" y="572.301204819277" type="line"/>
      <point x="272.86746987951807" y="572.301204819277" type="line"/>
      <point x="272.86746987951807" y="744.6265060240963" type="line"/>
      <point x="62.32530120481929" y="744.6265060240963" type="line"/>
    </contour>
    <contour>
      <point x="69.49397590361446" y="0.0" type="line"/>
      <point x="266.2409638554217" y="0.0" type="line"/>
      <point x="266.2409638554217" y="492.1927710843374" type="line"/>
      <point x="69.49397590361446" y="492.1927710843374" type="line"/>
    </contour>
  </outline>
</glyph>
<glyph name="k" format="2">
  <advance width="700.4457831325301"/>
  <unicode hex="006B"/>
  <anchor x="349.9036144578313" y="0.0" name="bottom"/>
  <anchor x="376.4096385542168" y="705.0" name="top"/>
  <outline>
    <contour>
      <point x="68.95180722891565" y="0.0" type="line"/>
      <point x="265.69879518072287" y="0.0" type="line"/>
      <point x="265.69879518072287" y="200.95180722891564" type="line"/>
      <point x="267.69879518072287" y="200.95180722891564" type="line"/>
      <point x="483.5301204819277" y="0.0" type="line"/>
      <point x="733.5783132530121" y="0.0" type="line"/>
      <point x="411.8554216867469" y="284.3855421686747" type="line"/>
      <point x="411.8554216867469" y="228.0843373493976" type="line"/>
      <point x="721.6987951807229" y="492.1927710843374" type="line"/>
      <point x="478.92771084337346" y="492.1927710843374" type="line"/>
      <point x="267.69879518072287" y="298.6867469879518" type="line"/>
      <point x="265.69879518072287" y="298.6867469879518" type="line"/>
      <point x="265.69879518072287" y="705.0" type="line"/>
      <point x="68.95180722891565" y="705.0" type="line"/>
    </contour>
  </outline>
</glyph>
<glyph name="l" format="2">
  <advance width="417.8433734939759"/>
  <unicode hex="006C"/>
  <anchor x="243.93975903614455" y="0.0" name="bottom"/>
  <anchor x="177.6867469879518" y="357.0" name="center"/>
  <anchor x="435.7590361445784" y="357.0" name="dot"/>
  <anchor x="167.144578313253" y="705.0" name="top"/>
  <anchor x="310.6746987951807" y="705.0" name="topright"/>
  <outline>
    <contour>
      <point x="301.2289156626506" y="-11.27710843373494" type="curve" smooth="yes"/>
      <point x="338.0722891566265" y="-11.27710843373494"/>
      <point x="374.09638554216866" y="-6.8192771084337345"/>
      <point x="402.0120481927711" y="0.27710843373493965" type="curve"/>
      <point x="404.3734939759036" y="149.14457831325302" type="line"/>
      <point x="395.84337349397595" y="146.60240963855424"/>
      <point x="372.56626506024094" y="144.78313253012047"/>
      <point x="355.56626506024094" y="144.78313253012047" type="curve" smooth="yes"/>
      <point x="296.6867469879518" y="144.78313253012047"/>
      <point x="265.69879518072287" y="170.57831325301203"/>
      <point x="265.69879518072287" y="215.710843373494" type="curve" smooth="yes"/>
      <point x="265.69879518072287" y="705.0" type="line"/>
      <point x="68.95180722891565" y="705.0" type="line"/>
      <point x="68.95180722891565" y="204.61445783132532" type="line" smooth="yes"/>
      <point x="68.95180722891565" y="61.831325301204814"/>
      <point x="141.2409638554217" y="-11.27710843373494"/>
    </contour>
  </outline>
</glyph>
<glyph name="m" format="2">
  <advance width="1112.8192771084337"/>
  <unicode hex="006D"/>
  <anchor x="557.5903614457832" y="0.0" name="bottom"/>
  <anchor x="557.5903614457832" y="484.0" name="top"/>
  <outline>
    <contour>
      <point x="71.49397590361446" y="0.0" type="line"/>
      <point x="268.2409638554217" y="0.0" type="line"/>
      <point x="268.2409638554217" y="246.1686746987952" type="line" smooth="yes"/>
      <point x="268.2409638554217" y="303.18072289156623"/>
      <point x="313.2048192771084" y="354.32530120481925"/>
      <point x="381.13253012048193" y="354.32530120481925" type="curve" smooth="yes"/>
      <point x="429.6144578313253" y="354.32530120481925"/>
      <point x="459.03614457831327" y="332.26506024096386"/>
      <point x="459.03614457831327" y="257.69879518072287" type="curve" smooth="yes"/>
      <point x="459.03614457831327" y="0.0" type="line"/>
      <point x="655.7831325301205" y="0.0" type="line"/>
      <point x="655.7831325301205" y="246.1686746987952" type="line" smooth="yes"/>
      <point x="655.7831325301205" y="303.18072289156623"/>
      <point x="701.1084337349397" y="354.32530120481925"/>
      <point x="768.6746987951807" y="354.32530120481925" type="curve" smooth="yes"/>
      <point x="817.5180722891566" y="354.32530120481925"/>
      <point x="846.9397590361446" y="332.26506024096386"/>
      <point x="846.9397590361446" y="257.69879518072287" type="curve" smooth="yes"/>
      <point x="846.9397590361446" y="0.0" type="line"/>
      <point x="1043.6867469879517" y="0.0" type="line"/>
      <point x="1043.6867469879517" y="264.9759036144578" type="line" smooth="yes"/>
      <point x="1043.6867469879517" y="432.98795180722885"/>
      <point x="972.7594216867469" y="503.4698795180723"/>
      <point x="834.0361445783133" y="503.4698795180723" type="curve" smooth="yes"/>
      <point x="743.6255180722891" y="503.4698795180723"/>
      <point x="670.2299518072289" y="468.05854216867465"/>
      <point x="624.6746987951808" y="400.50602409638554" type="curve"/>
      <point x="634.6746987951808" y="400.50602409638554" type="line"/>
      <point x="604.8873253012048" y="472.3997590361446"/>
      <point x="544.1276144578313" y="503.4698795180723"/>
      <point x="453.6867469879518" y="503.4698795180723" type="curve" smooth="yes"/>
      <point x="366.71084337349396" y="503.4698795180723"/>
      <point x="297.9759036144578" y="467.03614457831327"/>
      <point x="253.144578313253" y="400.68674698795184" type="curve"/>
      <point x="263.96385542168673" y="400.68674698795184" type="line"/>
      <point x="263.96385542168673" y="492.1927710843374" type="line"/>
      <point x="71.49397590361446" y="492.1927710843374" type="line"/>
    </contour>
  </outline>
</glyph>
<glyph name="n" format="2">
  <advance width="745.8072289156627"/>
  <unicode hex="006E"/>
  <anchor x="373.5903614457831" y="0.0" name="bottom"/>
  <anchor x="373.5903614457831" y="484.0" name="top"/>
  <outline>
    <contour>
      <point x="69.49397590361446" y="0.0" type="line"/>
      <point x="266.2409638554217" y="0.0" type="line"/>
      <point x="266.2409638554217" y="246.16867469879523" type="line" smooth="yes"/>
      <point x="266.2409638554217" y="303.18072289156623"/>
      <point x="315.7469879518072" y="354.32530120481925"/>
      <point x="391.578313253012" y="354.32530120481925" type="curve" smooth="yes"/>
      <point x="447.96385542168673" y="354.32530120481925"/>
      <point x="481.9277108433735" y="332.26506024096386"/>
      <point x="481.9277108433735" y="257.8795180722892" type="curve" smooth="yes"/>
      <point x="481.9277108433735" y="0.0" type="line"/>
      <point x="678.6746987951808" y="0.0" type="line"/>
      <point x="678.6746987951808" y="264.9759036144578" type="line" smooth="yes"/>
      <point x="678.6746987951808" y="432.9879518072289"/>
      <point x="605.6024096385541" y="503.4698795180723"/>
      <point x="464.132530120482" y="503.4698795180723" type="curve" smooth="yes"/>
      <point x="371.2530120481927" y="503.4698795180723"/>
      <point x="296.7951807228916" y="468.03614457831327"/>
      <point x="251.144578313253" y="400.68674698795184" type="curve"/>
      <point x="261.96385542168673" y="400.68674698795184" type="line"/>
      <point x="261.96385542168673" y="492.1927710843374" type="line"/>
      <point x="69.49397590361446" y="492.1927710843374" type="line"/>
    </contour>
  </outline>
</glyph>
<glyph name="o" format="2">
  <advance width="738.0963855421687"/>
  <unicode hex="006F"/>
  <anchor x="369.04819277108436" y="0.0" name="bottom"/>
  <anchor x="368.3253012048193" y="246.27710843373495" name="center"/>
  <anchor x="420.8072289156627" y="0.0" name="ogonek"/>
  <anchor x="369.04819277108436" y="484.0" name="top"/>
  <anchor x="438.1566265060241" y="484.0" name="topright"/>
  <outline>
    <contour>
      <point x="369.04819277108436" y="-11.27710843373494" type="curve" smooth="yes"/>
      <point x="577.7469879518072" y="-11.27710843373494"/>
      <point x="698.4939759036145" y="95.09638554216868"/>
      <point x="698.4939759036145" y="246.27710843373495" type="curve" smooth="yes"/>
      <point x="698.4939759036145" y="397.09638554216866"/>
      <point x="577.7469879518072" y="503.4698795180723"/>
      <point x="369.04819277108436" y="503.4698795180723" type="curve" smooth="yes"/>
      <point x="159.9879518072289" y="503.4698795180723"/>
      <point x="39.602409638554214" y="397.09638554216866"/>
      <point x="39.602409638554214" y="246.27710843373495" type="curve" smooth="yes"/>
      <point x="39.602409638554214" y="95.09638554216868"/>
      <point x="159.9879518072289" y="-11.27710843373494"/>
    </contour>
    <contour>
      <point x="369.04819277108436" y="132.13253012048193" type="curve" smooth="yes"/>
      <point x="285.12048192771084" y="132.13253012048193"/>
      <point x="237.53012048192772" y="174.80722891566265"/>
      <point x="237.53012048192772" y="246.27710843373495" type="curve" smooth="yes"/>
      <point x="237.53012048192772" y="317.74698795180717"/>
      <point x="285.12048192771084" y="360.06024096385545"/>
      <point x="369.04819277108436" y="360.06024096385545" type="curve" smooth="yes"/>
      <point x="452.61445783132535" y="360.06024096385545"/>
      <point x="500.56626506024094" y="317.74698795180717"/>
      <point x="500.56626506024094" y="246.27710843373495" type="curve" smooth="yes"/>
      <point x="500.56626506024094" y="174.80722891566265"/>
      <point x="452.61445783132535" y="132.13253012048193"/>
    </contour>
  </outline>
</glyph>
<glyph name="q" format="2">
  <advance width="763.3493975903614"/>
  <unicode hex="0071"/>
  <anchor x="384.04819277108436" y="0.0" name="bottom"/>
  <anchor x="384.04819277108436" y="484.0" name="top"/>
  <outline>
    <contour>
      <point x="497.1084337349398" y="-180.0" type="line"/>
      <point x="693.855421686747" y="-180.0" type="line"/>
      <point x="693.855421686747" y="492.1927710843374" type="line"/>
      <point x="497.28915662650604" y="492.1927710843374" type="line"/>
      <point x="497.28915662650604" y="409.7951807228916" type="line"/>
      <point x="511.566265060241" y="409.7951807228916" type="line"/>
      <point x="485.3855421686747" y="467.85542168674704"/>
      <point x="410.95180722891564" y="503.4698795180723"/>
      <point x="312.69879518072287" y="503.4698795180723" type="curve" smooth="yes"/>
      <point x="143.96385542168673" y="503.4698795180723"/>
      <point x="39.602409638554214" y="402.37349397590367"/>
      <point x="39.602409638554214" y="246.27710843373495" type="curve" smooth="yes"/>
      <point x="39.602409638554214" y="90.18072289156626"/>
      <point x="143.96385542168673" y="-11.27710843373494"/>
      <point x="312.69879518072287" y="-11.27710843373494" type="curve" smooth="yes"/>
      <point x="411.13253012048193" y="-11.27710843373494"/>
      <point x="485.3855421686747" y="24.33734939759036"/>
      <point x="511.56626506024094" y="82.75903614457832" type="curve"/>
      <point x="497.1084337349398" y="82.75903614457832" type="line"/>
    </contour>
    <contour>
      <point x="369.04819277108436" y="132.13253012048193" type="curve" smooth="yes"/>
      <point x="286.93975903614455" y="132.13253012048193"/>
      <point x="237.53012048192772" y="175.6265060240964"/>
      <point x="237.53012048192772" y="246.27710843373495" type="curve" smooth="yes"/>
      <point x="237.53012048192772" y="316.92771084337346"/>
      <point x="286.93975903614455" y="360.06024096385545"/>
      <point x="369.04819277108436" y="360.06024096385545" type="curve" smooth="yes"/>
      <point x="450.7951807228916" y="360.06024096385545"/>
      <point x="500.56626506024094" y="317.74698795180717"/>
      <point x="500.56626506024094" y="246.27710843373495" type="curve" smooth="yes"/>
      <point x="500.56626506024094" y="174.80722891566265"/>
      <point x="450.7951807228916" y="132.13253012048193"/>
    </contour>
  </outline>
</glyph>
<glyph name="r" format="2">
  <advance width="519.433734939759"/>
  <unicode hex="0072"/>
  <anchor x="170.144578313253" y="0.0" name="bottom"/>
  <anchor x="293.144578313253" y="484.0" name="top"/>
  <outline>
    <contour>
      <point x="69.49397590361446" y="0.0" type="line"/>
      <point x="270.33734939759034" y="0.0" type="line"/>
      <point x="270.33734939759034" y="237.3012048192771" type="line" smooth="yes"/>
      <point x="270.33734939759034" y="296.0722891566265"/>
      <point x="309.38554216867465" y="323.2048192771084"/>
      <point x="407.0722891566265" y="332.56626506024094" type="curve" smooth="yes"/>
      <point x="516.3493975903615" y="342.75903614457826" type="line"/>
      <point x="504.61445783132524" y="505.83132530120486" type="line"/>
      <point x="449.3012048192771" y="502.1927710843374" type="line" smooth="yes"/>
      <point x="338.3855421686747" y="494.83132530120486"/>
      <point x="267.93975903614455" y="449.5421686746988"/>
      <point x="248.96385542168673" y="369.09638554216866" type="curve"/>
      <point x="261.96385542168673" y="369.09638554216866" type="line"/>
      <point x="261.96385542168673" y="492.1927710843374" type="line"/>
      <point x="69.49397590361446" y="492.1927710843374" type="line"/>
    </contour>
  </outline>
</glyph>
<glyph name="s" format="2">
  <advance width="613.6746987951806"/>
  <unicode hex="0073"/>
  <anchor x="309.1927710843373" y="0.0" name="bottom"/>
  <anchor x="317.2048192771084" y="484.0" name="top"/>
  <outline>
    <contour>
      <point x="306.91566265060237" y="-11.27710843373494" type="curve" smooth="yes"/>
      <point x="472.7831325301205" y="-11.27710843373494"/>
      <point x="581.3614457831325" y="54.19277108433735"/>
      <point x="581.3614457831325" y="160.1325301204819" type="curve" smooth="yes"/>
      <point x="581.3614457831325" y="239.42168674698794"/>
      <point x="525.4457831325301" y="286.1566265060241"/>
      <point x="426.26506024096386" y="296.69879518072287" type="curve" smooth="yes"/>
      <point x="271.95180722891564" y="313.2409638554217" type="line" smooth="yes"/>
      <point x="235.5421686746988" y="316.9638554216868"/>
      <point x="226.66265060240966" y="328.66265060240966"/>
      <point x="226.66265060240966" y="341.710843373494" type="curve" smooth="yes"/>
      <point x="226.66265060240966" y="362.1204819277109"/>
      <point x="249.98795180722894" y="374.98795180722885"/>
      <point x="311.4698795180723" y="374.98795180722885" type="curve" smooth="yes"/>
      <point x="378.9156626506024" y="374.98795180722885"/>
      <point x="455.30120481927713" y="360.2650602409638"/>
      <point x="517.867469879518" y="333.1927710843374" type="curve"/>
      <point x="566.2650602409639" y="451.7590361445783" type="line"/>
      <point x="517.2530120481928" y="482.92771084337346"/>
      <point x="430.144578313253" y="503.4698795180723"/>
      <point x="325.5783132530121" y="503.4698795180723" type="curve" smooth="yes"/>
      <point x="165.0" y="503.4698795180723"/>
      <point x="51.313253012048186" y="434.9156626506024"/>
      <point x="51.313253012048186" y="333.1566265060241" type="curve" smooth="yes"/>
      <point x="51.313253012048186" y="257.6867469879518"/>
      <point x="108.32530120481928" y="205.13253012048193"/>
      <point x="210.33734939759037" y="194.40963855421685" type="curve" smooth="yes"/>
      <point x="364.65060240963857" y="177.86746987951807" type="line" smooth="yes"/>
      <point x="394.67469879518075" y="174.42168674698797"/>
      <point x="406.8313253012048" y="165.0843373493976"/>
      <point x="406.8313253012048" y="149.93975903614458" type="curve" smooth="yes"/>
      <point x="406.8313253012048" y="128.34939759036143"/>
      <point x="376.144578313253" y="116.3855421686747"/>
      <point x="324.7590361445783" y="116.3855421686747" type="curve" smooth="yes"/>
      <point x="249.22891566265062" y="116.3855421686747"/>
      <point x="150.55421686746988" y="133.74698795180723"/>
      <point x="82.34939759036145" y="164.83132530120483" type="curve"/>
      <point x="44.963855421686745" y="39.25301204819277" type="line"/>
      <point x="102.07228915662651" y="8.44578313253012"/>
      <point x="196.54216867469881" y="-11.27710843373494"/>
    </contour>
  </outline>
</glyph>
<glyph name="t" format="2">
  <advance width="508.89156626506025"/>
  <unicode hex="0074"/>
  <anchor x="298.7951807228916" y="0.0" name="bottom"/>
  <anchor x="237.25301204819277" y="250.6987951807229" name="center"/>
  <anchor x="212.08433734939757" y="635.0" name="top"/>
  <anchor x="366.39759036144574" y="705.0" name="topright"/>
  <outline>
    <contour>
      <point x="366.8072289156627" y="-11.27710843373494" type="curve" smooth="yes"/>
      <point x="423.83132530120486" y="-11.27710843373494"/>
      <point x="469.7469879518072" y="-2.63855421686747"/>
      <point x="510.6867469879518" y="15.734939759036143" type="curve"/>
      <point x="484.75903614457826" y="155.32530120481928" type="line"/>
      <point x="459.1204819277109" y="148.14457831325302"/>
      <point x="435.03614457831327" y="144.78313253012047"/>
      <point x="408.49397590361446" y="144.78313253012047" type="curve" smooth="yes"/>
      <point x="338.61445783132535" y="144.78313253012047"/>
      <point x="310.2771084337349" y="165.66265060240966"/>
      <point x="310.2771084337349" y="217.6987951807229" type="curve" smooth="yes"/>
      <point x="310.2771084337349" y="352.4216867469879" type="line"/>
      <point x="489.1566265060241" y="352.4216867469879" type="line"/>
      <point x="489.1566265060241" y="492.1927710843374" type="line"/>
      <point x="310.2771084337349" y="492.1927710843374" type="line"/>
      <point x="310.2771084337349" y="635.0" type="line"/>
      <point x="113.53012048192771" y="635.0" type="line"/>
      <point x="113.53012048192771" y="492.1927710843374" type="line"/>
      <point x="-2.5542168674698793" y="492.1927710843374" type="line"/>
      <point x="-2.5542168674698793" y="352.4216867469879" type="line"/>
      <point x="113.53012048192771" y="352.4216867469879" type="line"/>
      <point x="113.53012048192771" y="208.6987951807229" type="line" smooth="yes"/>
      <point x="113.53012048192771" y="62.01204819277109"/>
      <point x="199.09638554216866" y="-11.27710843373494"/>
    </contour>
  </outline>
</glyph>
<glyph name="u" format="2">
  <advance width="739.6265060240963"/>
  <unicode hex="0075"/>
  <anchor x="369.31325301204816" y="0.0" name="bottom"/>
  <anchor x="629.1686746987951" y="0.0" name="ogonek"/>
  <anchor x="369.31325301204816" y="484.3614457831325" name="top"/>
  <anchor x="527.0963855421686" y="484.0" name="topright"/>
  <outline>
    <contour>
      <point x="278.31325301204816" y="-11.27710843373494" type="curve" smooth="yes"/>
      <point x="369.9757469879518" y="-11.27710843373494"/>
      <point x="442.6863855421687" y="24.64734939759036"/>
      <point x="488.3012048192771" y="91.6867469879518" type="curve"/>
      <point x="477.66265060240966" y="91.6867469879518" type="line"/>
      <point x="477.66265060240966" y="0.0" type="line"/>
      <point x="670.132530120482" y="0.0" type="line"/>
      <point x="670.132530120482" y="492.1927710843374" type="line"/>
      <point x="473.3855421686747" y="492.1927710843374" type="line"/>
      <point x="473.3855421686747" y="245.66265060240963" type="line" smooth="yes"/>
      <point x="473.3855421686747" y="188.65060240963857"/>
      <point x="424.96730120481925" y="137.8674698795181"/>
      <point x="351.2289156626506" y="137.8674698795181" type="curve" smooth="yes"/>
      <point x="296.46032530120476" y="137.8674698795181"/>
      <point x="263.87951807228916" y="159.56626506024094"/>
      <point x="263.87951807228916" y="234.13253012048193" type="curve" smooth="yes"/>
      <point x="263.87951807228916" y="492.1927710843374" type="line"/>
      <point x="67.13253012048193" y="492.1927710843374" type="line"/>
      <point x="67.13253012048193" y="227.39759036144576" type="line" smooth="yes"/>
      <point x="67.13253012048193" y="59.3855421686747"/>
      <point x="139.28869879518072" y="-11.27710843373494"/>
    </contour>
  </outline>
</glyph>
<glyph name="v" format="2">
  <advance width="665.8795180722892"/>
  <unicode hex="0076"/>
  <anchor x="335.39759036144574" y="0.0" name="bottom"/>
  <anchor x="335.39759036144574" y="484.0" name="top"/>
  <outline>
    <contour>
      <point x="251.04819277108433" y="0.0" type="line"/>
      <point x="414.83132530120486" y="0.0" type="line"/>
      <point x="685.3012048192771" y="492.1927710843374" type="line"/>
      <point x="490.3855421686747" y="492.1927710843374" type="line"/>
      <point x="313.566265060241" y="158.9156626506024" type="line"/>
      <point x="364.96385542168673" y="158.9156626506024" type="line"/>
      <point x="188.50602409638554" y="492.1927710843374" type="line"/>
      <point x="-19.240963855421683" y="492.1927710843374" type="line"/>
    </contour>
  </outline>
</glyph>
<glyph name="w" format="2">
  <advance width="1075.3373493975905"/>
  <unicode hex="0077"/>
  <anchor x="537.7590361445783" y="0.0" name="bottom"/>
  <anchor x="537.7590361445783" y="484.0" name="top"/>
  <outline>
    <contour>
      <point x="242.97590361445785" y="0.0" type="line"/>
      <point x="408.3012048192771" y="0.0" type="line"/>
      <point x="575.4216867469879" y="328.98795180722897" type="line"/>
      <point x="500.27710843373495" y="328.98795180722897" type="line"/>
      <point x="667.3975903614459" y="0.0" type="line"/>
      <point x="832.9036144578313" y="0.0" type="line"/>
      <point x="1083.867469879518" y="492.1927710843374" type="line"/>
      <point x="888.9518072289156" y="492.1927710843374" type="line"/>
      <point x="739.2891566265059" y="179.3975903614458" type="line"/>
      <point x="762.3734939759037" y="179.3975903614458" type="line"/>
      <point x="605.4457831325301" y="492.1927710843374" type="line"/>
      <point x="480.08433734939763" y="492.1927710843374" type="line"/>
      <point x="322.9759036144578" y="179.3975903614458" type="line"/>
      <point x="346.4216867469879" y="179.3975903614458" type="line"/>
      <point x="199.3975903614458" y="492.1927710843374" type="line"/>
      <point x="-8.349397590361443" y="492.1927710843374" type="line"/>
    </contour>
  </outline>
</glyph>
<glyph name="x" format="2">
  <advance width="699.4698795180723"/>
  <unicode hex="0078"/>
  <anchor x="350.50602409638554" y="0.0" name="bottom"/>
  <anchor x="350.50602409638554" y="484.0" name="top"/>
  <outline>
    <contour>
      <point x="-20.710843373493972" y="0.0" type="line"/>
      <point x="210.06024096385542" y="0.0" type="line"/>
      <point x="384.18072289156623" y="179.12048192771084" type="line"/>
      <point x="316.1084337349398" y="179.12048192771084" type="line"/>
      <point x="483.4939759036145" y="0.0" type="line"/>
      <point x="723.1807228915663" y="0.0" type="line"/>
      <point x="430.9518072289157" y="297.6867469879518" type="line"/>
      <point x="430.9518072289157" y="210.32530120481925" type="line"/>
      <point x="705.9036144578314" y="492.1927710843374" type="line"/>
      <point x="475.1325301204819" y="492.1927710843374" type="line"/>
      <point x="316.10843373493975" y="327.71084337349396" type="line"/>
      <point x="384.9036144578313" y="327.71084337349396" type="line"/>
      <point x="235.25301204819277" y="492.1927710843374" type="line"/>
      <point x="-4.253012048192771" y="492.1927710843374" type="line"/>
      <point x="270.2409638554217" y="211.42168674698794" type="line"/>
      <point x="270.2409638554217" y="296.31325301204816" type="line"/>
    </contour>
  </outline>
</glyph>
<glyph name="y" format="2">
  <advance width="665.6987951807229"/>
  <unicode hex="0079"/>
  <anchor x="529.9156626506024" y="0.0" name="bottom"/>
  <anchor x="333.9397590361446" y="484.0" name="top"/>
  <outline>
    <contour>
      <point x="115.26506024096388" y="-180.0" type="line"/>
      <point x="315.9156626506024" y="-180.0" type="line"/>
      <point x="685.301204819277" y="492.1927710843374" type="line"/>
      <point x="490.2048192771084" y="492.1927710843374" type="line"/>
      <point x="319.8433734939759" y="170.289156626506" type="line"/>
      <point x="359.0481927710843" y="170.289156626506" type="line"/>
      <point x="188.32530120481928" y="492.1927710843374" type="line"/>
      <point x="-19.421686746987948" y="492.1927710843374" type="line"/>
      <point x="252.2168674698795" y="-2.337349397590364" type="line"/>
      <point x="252.2168674698795" y="71.71084337349397" type="line"/>
    </contour>
  </outline>
</glyph>
<glyph name="z" format="2">
  <advance width="598.9638554216867"/>
  <unicode hex="007A"/>
  <anchor x="306.2048192771084" y="0.0" name="bottom"/>
  <anchor x="306.2048192771084" y="484.0" name="top"/>
  <outline>
    <contour>
      <point x="53.97590361445783" y="0.0" type="line"/>
      <point x="570.9759036144578" y="0.0" type="line"/>
      <point x="570.9759036144578" y="139.77108433734938" type="line"/>
      <point x="226.96385542168676" y="139.77108433734938" type="line"/>
      <point x="226.96385542168676" y="92.63855421686748" type="line"/>
      <point x="557.6144578313254" y="363.51807228915663" type="line"/>
      <point x="557.6144578313254" y="492.1927710843374" type="line"/>
      <point x="53.97590361445783" y="492.1927710843374" type="line"/>
      <point x="53.97590361445783" y="352.4216867469879" type="line"/>
      <point x="379.89156626506025" y="352.4216867469879" type="line"/>
      <point x="379.89156626506025" y="399.9156626506024" type="line"/>
      <point x="53.97590361445783" y="128.67469879518072" type="line"/>
    </contour>
  </outline>
</glyph>
<glyph name="braceleft" format="2">
  <advance width="521.6385542168674"/>
  <unicode hex="007B"/>
  <outline>
    <contour>
      <point x="344.2650602409638" y="-180.0" type="curve" smooth="yes"/>
      <point x="504.2530120481928" y="-180.0" type="line"/>
      <point x="504.2530120481928" y="-36.95180722891566" type="line"/>
      <point x="423.4578313253012" y="-36.95180722891566" type="line" smooth="yes"/>
      <point x="389.0963855421686" y="-36.95180722891566"/>
      <point x="371.3734939759036" y="-20.228915662650614"/>
      <point x="371.3734939759036" y="10.951807228915651" type="curve" smooth="yes"/>
      <point x="371.3734939759036" y="136.32530120481928" type="line" smooth="yes"/>
      <point x="371.3734939759036" y="210.89156626506022"/>
      <point x="320.18072289156623" y="263.3614457831325"/>
      <point x="247.1686746987952" y="263.3614457831325" type="curve"/>
      <point x="247.1686746987952" y="259.3614457831325" type="line"/>
      <point x="320.18072289156623" y="259.3614457831325"/>
      <point x="371.3734939759036" y="312.0120481927711"/>
      <point x="371.3734939759036" y="386.5783132530121" type="curve" smooth="yes"/>
      <point x="371.3734939759036" y="514.0481927710845" type="line" smooth="yes"/>
      <point x="371.3734939759036" y="545.2289156626506"/>
      <point x="389.0963855421686" y="561.9518072289156"/>
      <point x="423.4578313253012" y="561.9518072289156" type="curve" smooth="yes"/>
      <point x="504.2530120481928" y="561.9518072289156" type="line"/>
      <point x="504.2530120481928" y="705.0" type="line"/>
      <point x="344.2650602409638" y="705.0" type="line" smooth="yes"/>
      <point x="238.48192771084337" y="705.0"/>
      <point x="174.62650602409641" y="646.7831325301205"/>
      <point x="174.62650602409641" y="551.5542168674698" type="curve" smooth="yes"/>
      <point x="174.62650602409641" y="411.0602409638554" type="line" smooth="yes"/>
      <point x="174.62650602409641" y="358.0722891566265"/>
      <point x="154.73493975903614" y="339.43373493975906"/>
      <point x="100.74698795180724" y="335.43373493975906" type="curve" smooth="yes"/>
      <point x="47.433734939759034" y="331.1566265060241" type="line"/>
      <point x="47.433734939759034" y="192.56626506024097" type="line"/>
      <point x="100.74698795180724" y="188.289156626506" type="line" smooth="yes"/>
      <point x="155.8192771084337" y="184.289156626506"/>
      <point x="174.62650602409641" y="163.566265060241"/>
      <point x="174.62650602409641" y="111.8433734939759" type="curve" smooth="yes"/>
      <point x="174.62650602409641" y="-26.55421686746988" type="line" smooth="yes"/>
      <point x="174.62650602409641" y="-121.7831325301205"/>
      <point x="238.48192771084337" y="-180.0"/>
    </contour>
  </outline>
</glyph>
<glyph name="braceright" format="2">
  <advance width="521.6385542168674"/>
  <unicode hex="007D"/>
  <outline>
    <contour>
      <point x="17.385542168674696" y="-180.0" type="line"/>
      <point x="177.5542168674699" y="-180.0" type="line" smooth="yes"/>
      <point x="283.33734939759034" y="-180.0"/>
      <point x="347.1927710843373" y="-121.78313253012048"/>
      <point x="347.1927710843373" y="-26.55421686746988" type="curve" smooth="yes"/>
      <point x="347.1927710843373" y="111.8433734939759" type="line" smooth="yes"/>
      <point x="347.1927710843373" y="163.56626506024094"/>
      <point x="365.8192771084337" y="184.289156626506"/>
      <point x="420.8915662650602" y="188.289156626506" type="curve" smooth="yes"/>
      <point x="474.3855421686747" y="192.56626506024097" type="line"/>
      <point x="474.3855421686747" y="331.1566265060241" type="line"/>
      <point x="420.8915662650602" y="335.43373493975906" type="line" smooth="yes"/>
      <point x="366.9036144578313" y="339.2530120481927"/>
      <point x="347.1927710843373" y="358.0722891566265"/>
      <point x="347.1927710843373" y="411.0602409638554" type="curve" smooth="yes"/>
      <point x="347.1927710843373" y="551.5542168674698" type="line" smooth="yes"/>
      <point x="347.1927710843373" y="646.7831325301205"/>
      <point x="283.33734939759034" y="705.0"/>
      <point x="177.5542168674699" y="705.0" type="curve" smooth="yes"/>
      <point x="17.385542168674696" y="705.0" type="line"/>
      <point x="17.385542168674696" y="561.9518072289156" type="line"/>
      <point x="98.5421686746988" y="561.9518072289156" type="line" smooth="yes"/>
      <point x="132.72289156626505" y="561.9518072289156"/>
      <point x="150.44578313253012" y="545.2289156626506"/>
      <point x="150.44578313253012" y="514.0481927710845" type="curve" smooth="yes"/>
      <point x="150.44578313253012" y="386.5783132530121" type="line" smooth="yes"/>
      <point x="150.44578313253012" y="312.0120481927711"/>
      <point x="201.81927710843374" y="259.3614457831325"/>
      <point x="274.4698795180723" y="259.3614457831325" type="curve"/>
      <point x="274.4698795180723" y="263.3614457831325" type="line"/>
      <point x="201.81927710843374" y="263.3614457831325"/>
      <point x="150.44578313253012" y="211.07228915662648"/>
      <point x="150.44578313253012" y="136.32530120481928" type="curve" smooth="yes"/>
      <point x="150.44578313253012" y="10.951807228915651" type="line" smooth="yes"/>
      <point x="150.44578313253012" y="-20.228915662650614"/>
      <point x="132.72289156626505" y="-36.95180722891566"/>
      <point x="98.5421686746988" y="-36.95180722891566" type="curve" smooth="yes"/>
      <point x="17.385542168674696" y="-36.95180722891566" type="line"/>
    </contour>
  </outline>
</glyph>
<glyph name="asciitilde" format="2">
  <advance width="748.0"/>
  <unicode hex="007E"/>
  <outline>
    <contour>
      <point x="498.8072289156626" y="195.14457831325302" type="curve" smooth="yes"/>
      <point x="580.9277108433735" y="195.14457831325302"/>
      <point x="640.0481927710844" y="233.89156626506022"/>
      <point x="672.855421686747" y="309.44578313253015" type="curve"/>
      <point x="574.7710843373495" y="372.6024096385542" type="line"/>
      <point x="555.2409638554217" y="334.2530120481928"/>
      <point x="530.6024096385543" y="317.43373493975906"/>
      <point x="493.69879518072287" y="317.43373493975906" type="curve" smooth="yes"/>
      <point x="463.4216867469879" y="317.43373493975906"/>
      <point x="429.96385542168673" y="329.2530120481928"/>
      <point x="384.26506024096386" y="346.14457831325296" type="curve" smooth="yes"/>
      <point x="316.0120481927711" y="370.6746987951807"/>
      <point x="281.45783132530124" y="379.03614457831327"/>
      <point x="247.55421686746988" y="379.03614457831327" type="curve" smooth="yes"/>
      <point x="166.43373493975903" y="379.03614457831327"/>
      <point x="106.49397590361446" y="339.46987951807233"/>
      <point x="75.14457831325302" y="263.7349397590361" type="curve"/>
      <point x="173.49397590361448" y="201.57831325301206" type="line"/>
      <point x="192.12048192771084" y="239.74698795180723"/>
      <point x="218.2168674698795" y="257.3855421686747"/>
      <point x="255.66265060240963" y="257.3855421686747" type="curve" smooth="yes"/>
      <point x="282.566265060241" y="257.3855421686747"/>
      <point x="305.566265060241" y="248.20481927710844"/>
      <point x="365.7349397590362" y="226.39759036144574" type="curve" smooth="yes"/>
      <point x="430.9879518072289" y="202.86746987951807"/>
      <point x="463.0843373493976" y="195.14457831325302"/>
    </contour>
  </outline>
</glyph>
<glyph name="exclamdown" format="2">
  <advance width="324.9156626506024"/>
  <unicode hex="00A1"/>
  <outline>
    <contour>
      <point x="44.385542168674704" y="-180.0" type="line"/>
      <point x="280.5301204819277" y="-180.0" type="line"/>
      <point x="220.46987951807228" y="244.08433734939757" type="line"/>
      <point x="104.44578313253011" y="244.08433734939757" type="line"/>
    </contour>
    <contour>
      <point x="62.60240963855423" y="295.12048192771084" type="line"/>
      <point x="263.13253012048193" y="295.12048192771084" type="line"/>
      <point x="263.13253012048193" y="492.1927710843374" type="line"/>
      <point x="62.60240963855423" y="492.1927710843374" type="line"/>
    </contour>
  </outline>
</glyph>
<glyph name="cent" format="2">
  <advance width="748.0"/>
  <unicode hex="00A2"/>
  <outline>
    <contour>
      <point x="318.7349397590361" y="-115.0" type="line"/>
      <point x="472.87951807228916" y="-115.0" type="line"/>
      <point x="472.87951807228916" y="28.662650602409634" type="line"/>
      <point x="431.6746987951807" y="-5.999999999999999" type="line"/>
      <point x="523.867469879518" y="-5.8192771084337345"/>
      <point x="610.2530120481928" y="15.265060240963859"/>
      <point x="661.0722891566264" y="49.433734939759034" type="curve"/>
      <point x="602.8433734939758" y="186.2048192771084" type="line"/>
      <point x="559.1204819277108" y="158.95180722891567"/>
      <point x="504.7710843373494" y="143.32530120481928"/>
      <point x="442.69879518072287" y="143.32530120481928" type="curve" smooth="yes"/>
      <point x="350.12048192771084" y="143.32530120481928"/>
      <point x="294.8915662650602" y="180.9036144578313"/>
      <point x="294.8915662650602" y="246.27710843373492" type="curve" smooth="yes"/>
      <point x="294.8915662650602" y="313.10843373493975"/>
      <point x="351.5783132530121" y="352.3253012048193"/>
      <point x="444.51807228915663" y="352.3253012048193" type="curve" smooth="yes"/>
      <point x="505.5903614457831" y="352.3253012048193"/>
      <point x="562.6746987951807" y="336.0602409638554"/>
      <point x="603.6626506024096" y="309.6265060240964" type="curve"/>
      <point x="661.0722891566264" y="442.7590361445783" type="line"/>
      <point x="612.8915662650603" y="477.28915662650604"/>
      <point x="525.5060240963857" y="498.1927710843374"/>
      <point x="432.0361445783132" y="498.1927710843374" type="curve"/>
      <point x="472.87951807228916" y="463.2650602409639" type="line"/>
      <point x="472.87951807228916" y="612.3734939759037" type="line"/>
      <point x="318.7349397590361" y="612.3734939759037" type="line"/>
      <point x="318.7349397590361" y="450.9759036144578" type="line"/>
      <point x="346.75903614457826" y="491.6385542168675" type="line"/>
      <point x="190.03614457831327" y="468.9759036144578"/>
      <point x="92.86746987951808" y="377.53012048192767"/>
      <point x="92.86746987951808" y="245.45783132530119" type="curve" smooth="yes"/>
      <point x="92.86746987951808" y="110.74698795180723"/>
      <point x="194.1325301204819" y="18.481927710843372"/>
      <point x="357.2289156626506" y="-1.2650602409638556" type="curve"/>
      <point x="318.7349397590361" y="39.31325301204819" type="line"/>
    </contour>
  </outline>
</glyph>
<glyph name="sterling" format="2">
  <advance width="748.0"/>
  <unicode hex="00A3"/>
  <outline>
    <contour>
      <point x="51.6144578313253" y="0.0" type="line"/>
      <point x="709.2168674698795" y="0.0" type="line"/>
      <point x="709.2168674698795" y="160.1566265060241" type="line"/>
      <point x="354.77108433734935" y="160.1566265060241" type="line"/>
      <point x="354.77108433734935" y="288.9518072289157" type="line"/>
      <point x="540.4216867469879" y="288.9518072289157" type="line"/>
      <point x="540.4216867469879" y="417.77108433734935" type="line"/>
      <point x="354.77108433734935" y="417.77108433734935" type="line"/>
      <point x="354.77108433734935" y="470.566265060241" type="line" smooth="yes"/>
      <point x="354.77108433734935" y="538.698795180723"/>
      <point x="388.6385542168675" y="561.6746987951808"/>
      <point x="469.2168674698795" y="561.6746987951808" type="curve" smooth="yes"/>
      <point x="541.4578313253012" y="561.6746987951808"/>
      <point x="600.3493975903615" y="544.5060240963857"/>
      <point x="656.0722891566265" y="507.62650602409644" type="curve"/>
      <point x="727.6746987951807" y="647.5783132530121" type="line"/>
      <point x="664.3975903614459" y="690.8313253012047"/>
      <point x="562.8433734939758" y="716.277108433735"/>
      <point x="456.4578313253012" y="716.277108433735" type="curve" smooth="yes"/>
      <point x="256.7710843373494" y="716.277108433735"/>
      <point x="143.4578313253012" y="631.698795180723"/>
      <point x="143.4578313253012" y="481.855421686747" type="curve" smooth="yes"/>
      <point x="143.4578313253012" y="417.77108433734935" type="line"/>
      <point x="51.6144578313253" y="417.77108433734935" type="line"/>
      <point x="51.6144578313253" y="288.9518072289157" type="line"/>
      <point x="143.4578313253012" y="288.9518072289157" type="line"/>
      <point x="143.4578313253012" y="160.1566265060241" type="line"/>
      <point x="51.6144578313253" y="160.1566265060241" type="line"/>
    </contour>
  </outline>
</glyph>
<glyph name="currency" format="2">
  <advance width="748.0"/>
  <unicode hex="00A4"/>
  <outline>
    <contour>
      <point x="150.12048192771087" y="-36.10843373493976" type="line"/>
      <point x="230.75903614457832" y="40.71084337349398" type="line"/>
      <point x="271.3012048192771" y="14.722891566265062"/>
      <point x="320.4698795180722" y="-0.5421686746987953"/>
      <point x="374.1807228915663" y="-0.5421686746987953" type="curve" smooth="yes"/>
      <point x="427.8915662650602" y="-0.5421686746987953"/>
      <point x="477.06024096385545" y="14.903614457831324"/>
      <point x="517.6024096385541" y="40.71084337349398" type="curve"/>
      <point x="598.2409638554217" y="-36.10843373493975" type="line"/>
      <point x="667.9277108433735" y="37.39759036144578" type="line"/>
      <point x="589.9277108433736" y="111.21686746987952" type="line"/>
      <point x="616.2771084337348" y="150.30120481927713"/>
      <point x="631.3614457831325" y="196.289156626506"/>
      <point x="631.3614457831325" y="246.63855421686748" type="curve" smooth="yes"/>
      <point x="631.3614457831325" y="296.9879518072289"/>
      <point x="616.277108433735" y="343.1566265060241"/>
      <point x="590.1084337349397" y="382.0602409638554" type="curve"/>
      <point x="667.7469879518072" y="456.06024096385545" type="line"/>
      <point x="598.2409638554218" y="529.3855421686746" type="line"/>
      <point x="517.6024096385543" y="452.56626506024094" type="line"/>
      <point x="476.87951807228916" y="478.55421686746985"/>
      <point x="427.8915662650602" y="493.8192771084337"/>
      <point x="374.1807228915663" y="493.8192771084337" type="curve" smooth="yes"/>
      <point x="320.28915662650604" y="493.8192771084337"/>
      <point x="271.4819277108434" y="478.55421686746985"/>
      <point x="230.57831325301206" y="452.56626506024094" type="curve"/>
      <point x="149.93975903614458" y="529.2048192771084" type="line"/>
      <point x="80.25301204819277" y="456.2409638554217" type="line"/>
      <point x="158.0722891566265" y="382.2409638554216" type="line"/>
      <point x="131.9036144578313" y="343.15662650602405"/>
      <point x="116.81927710843374" y="297.1686746987952"/>
      <point x="116.81927710843374" y="246.63855421686748" type="curve" smooth="yes"/>
      <point x="116.81927710843374" y="196.28915662650604"/>
      <point x="132.0843373493976" y="150.1204819277108"/>
      <point x="158.0722891566265" y="111.39759036144578" type="curve"/>
      <point x="80.25301204819277" y="37.39759036144578" type="line"/>
    </contour>
    <contour>
      <point x="374.18072289156623" y="128.12048192771084" type="curve" smooth="yes"/>
      <point x="305.5301204819277" y="128.12048192771084"/>
      <point x="252.93975903614455" y="179.6144578313253"/>
      <point x="252.93975903614455" y="246.63855421686748" type="curve" smooth="yes"/>
      <point x="252.93975903614455" y="314.0240963855421"/>
      <point x="305.34939759036143" y="365.51807228915663"/>
      <point x="374.18072289156623" y="365.51807228915663" type="curve" smooth="yes"/>
      <point x="443.01204819277103" y="365.3373493975904"/>
      <point x="495.2409638554217" y="314.0240963855421"/>
      <point x="495.2409638554217" y="246.63855421686748" type="curve" smooth="yes"/>
      <point x="495.2409638554217" y="179.6144578313253"/>
      <point x="443.01204819277103" y="128.12048192771084"/>
    </contour>
  </outline>
</glyph>
<glyph name="yen" format="2">
  <advance width="748.0"/>
  <unicode hex="00A5"/>
  <outline>
    <contour>
      <point x="269.2530120481927" y="0.0" type="line"/>
      <point x="479.7469879518073" y="0.0" type="line"/>
      <point x="479.7469879518073" y="146.96385542168673" type="line"/>
      <point x="672.6626506024096" y="146.96385542168673" type="line"/>
      <point x="672.6626506024096" y="255.56626506024097" type="line"/>
      <point x="479.7469879518073" y="255.56626506024097" type="line"/>
      <point x="479.7469879518073" y="305.1566265060241" type="line"/>
      <point x="672.6626506024096" y="305.1566265060241" type="line"/>
      <point x="672.6626506024096" y="413.75903614457826" type="line"/>
      <point x="514.1204819277108" y="413.75903614457826" type="line"/>
      <point x="514.1204819277108" y="391.3012048192771" type="line"/>
      <point x="780.3253012048193" y="705.0" type="line"/>
      <point x="554.0963855421686" y="705.0" type="line"/>
      <point x="353.71084337349396" y="461.8554216867469" type="line"/>
      <point x="396.1084337349398" y="461.8554216867469" type="line"/>
      <point x="195.9036144578313" y="705.0" type="line"/>
      <point x="-30.686746987951807" y="705.0" type="line"/>
      <point x="244.0722891566265" y="391.3012048192771" type="line"/>
      <point x="244.0722891566265" y="413.75903614457826" type="line"/>
      <point x="76.97590361445782" y="413.75903614457826" type="line"/>
      <point x="76.97590361445782" y="305.1566265060241" type="line"/>
      <point x="269.2530120481927" y="305.1566265060241" type="line"/>
      <point x="269.2530120481927" y="255.56626506024097" type="line"/>
      <point x="76.97590361445782" y="255.56626506024097" type="line"/>
      <point x="76.97590361445782" y="146.96385542168673" type="line"/>
      <point x="269.2530120481927" y="146.96385542168673" type="line"/>
    </contour>
  </outline>
</glyph>
<glyph name="brokenbar" format="2">
  <advance width="375.92771084337346"/>
  <unicode hex="00A6"/>
  <outline>
    <contour>
      <point x="89.59036144578313" y="371.3614457831325" type="line"/>
      <point x="286.33734939759034" y="371.3614457831325" type="line"/>
      <point x="286.33734939759034" y="705.0" type="line"/>
      <point x="89.59036144578313" y="705.0" type="line"/>
    </contour>
    <contour>
      <point x="89.59036144578313" y="-180.0" type="line"/>
      <point x="286.33734939759034" y="-180.0" type="line"/>
      <point x="286.33734939759034" y="154.0" type="line"/>
      <point x="89.59036144578313" y="154.0" type="line"/>
    </contour>
  </outline>
</glyph>
<glyph name="section" format="2">
  <advance width="731.1204819277109"/>
  <unicode hex="00A7"/>
  <outline>
    <contour>
      <point x="337.6024096385542" y="-191.27710843373492" type="curve" smooth="yes"/>
      <point x="533.3012048192771" y="-191.27710843373492"/>
      <point x="645.6024096385541" y="-122.00000000000001"/>
      <point x="645.6024096385541" y="-1.7108433734939754" type="curve" smooth="yes"/>
      <point x="645.6024096385541" y="47.132530120481924"/>
      <point x="626.6746987951808" y="86.06024096385542"/>
      <point x="585.0" y="123.34939759036145" type="curve"/>
      <point x="569.9879518072289" y="72.3012048192771" type="line"/>
      <point x="654.6746987951808" y="117.3132530120482"/>
      <point x="695.7831325301206" y="173.68674698795184"/>
      <point x="695.7831325301206" y="244.5301204819277" type="curve" smooth="yes"/>
      <point x="695.7831325301206" y="322.8072289156626"/>
      <point x="645.5903614457832" y="377.0963855421687"/>
      <point x="535.6265060240964" y="415.9879518072289" type="curve" smooth="yes"/>
      <point x="340.433734939759" y="483.9277108433735" type="line" smooth="yes"/>
      <point x="292.4939759036144" y="500.7228915662651"/>
      <point x="274.1566265060241" y="516.867469879518"/>
      <point x="274.1566265060241" y="539.5421686746988" type="curve" smooth="yes"/>
      <point x="274.1566265060241" y="569.2048192771084"/>
      <point x="309.7469879518072" y="585.7951807228916"/>
      <point x="380.8674698795181" y="585.7951807228916" type="curve" smooth="yes"/>
      <point x="454.4096385542169" y="585.7951807228916"/>
      <point x="531.9518072289156" y="569.8072289156627"/>
      <point x="600.8915662650602" y="541.6385542168675" type="curve"/>
      <point x="651.4698795180723" y="663.6626506024096" type="line"/>
      <point x="593.6385542168675" y="696.8313253012047"/>
      <point x="498.8072289156627" y="716.277108433735"/>
      <point x="394.69879518072287" y="716.277108433735" type="curve" smooth="yes"/>
      <point x="199.00000000000003" y="716.277108433735"/>
      <point x="86.6987951807229" y="647.0"/>
      <point x="86.6987951807229" y="526.710843373494" type="curve" smooth="yes"/>
      <point x="86.6987951807229" y="477.8674698795181"/>
      <point x="105.62650602409639" y="438.9397590361446"/>
      <point x="147.3012048192771" y="401.65060240963857" type="curve"/>
      <point x="162.3132530120482" y="452.6987951807229" type="line"/>
      <point x="77.62650602409639" y="407.6867469879518"/>
      <point x="36.518072289156635" y="351.3132530120482"/>
      <point x="36.518072289156635" y="280.4698795180723" type="curve" smooth="yes"/>
      <point x="36.518072289156635" y="202.19277108433735"/>
      <point x="86.71084337349397" y="147.90361445783134"/>
      <point x="196.67469879518072" y="109.0120481927711" type="curve" smooth="yes"/>
      <point x="391.86746987951807" y="41.07228915662651" type="line" smooth="yes"/>
      <point x="438.16867469879514" y="25.096385542168687"/>
      <point x="458.144578313253" y="8.132530120481926"/>
      <point x="458.144578313253" y="-13.722891566265059" type="curve" smooth="yes"/>
      <point x="458.144578313253" y="-43.74698795180722"/>
      <point x="420.91566265060237" y="-60.79518072289159"/>
      <point x="353.89156626506025" y="-60.79518072289159" type="curve" smooth="yes"/>
      <point x="269.71084337349396" y="-60.79518072289159"/>
      <point x="171.96385542168673" y="-36.79518072289157"/>
      <point x="111.3132530120482" y="-0.8915662650602396" type="curve"/>
      <point x="57.81927710843374" y="-127.37349397590361" type="line"/>
      <point x="123.20481927710844" y="-168.0963855421687"/>
      <point x="225.59036144578315" y="-191.27710843373492"/>
    </contour>
    <contour>
      <point x="209.50602409638554" y="316.6867469879518" type="curve" smooth="yes"/>
      <point x="209.50602409638554" y="338.48192771084337"/>
      <point x="220.31325301204816" y="357.5542168674699"/>
      <point x="243.74698795180723" y="375.6385542168675" type="curve"/>
      <point x="199.26506024096383" y="376.6385542168674" type="line"/>
      <point x="218.25301204819274" y="364.9397590361446"/>
      <point x="256.86746987951807" y="348.86746987951807"/>
      <point x="284.0843373493976" y="339.433734939759" type="curve" smooth="yes"/>
      <point x="431.2409638554217" y="286.04819277108436" type="line" smooth="yes"/>
      <point x="498.4457831325301" y="261.71084337349396"/>
      <point x="522.7951807228916" y="240.81927710843374"/>
      <point x="522.7951807228916" y="208.3132530120482" type="curve" smooth="yes"/>
      <point x="522.7951807228916" y="186.51807228915663"/>
      <point x="511.98795180722885" y="167.44578313253012"/>
      <point x="488.5542168674699" y="149.36144578313252" type="curve"/>
      <point x="533.0361445783133" y="148.36144578313252" type="line"/>
      <point x="514.0481927710844" y="160.06024096385545"/>
      <point x="475.2530120481928" y="176.3132530120482"/>
      <point x="448.2168674698795" y="185.56626506024097" type="curve" smooth="yes"/>
      <point x="301.0602409638554" y="238.95180722891564" type="line" smooth="yes"/>
      <point x="234.03614457831324" y="263.10843373493975"/>
      <point x="209.50602409638554" y="284.1807228915663"/>
    </contour>
  </outline>
</glyph>
<glyph name="copyright" format="2">
  <advance width="1015.9156626506024"/>
  <unicode hex="00A9"/>
  <outline>
    <contour>
      <point x="508.4578313253012" y="-11.27710843373494" type="curve" smooth="yes"/>
      <point x="774.4578313253013" y="-11.27710843373494"/>
      <point x="962.8313253012049" y="139.63855421686748"/>
      <point x="962.8313253012049" y="353.0" type="curve" smooth="yes"/>
      <point x="962.8313253012049" y="566.1807228915663"/>
      <point x="775.277108433735" y="716.277108433735"/>
      <point x="508.4578313253012" y="716.277108433735" type="curve" smooth="yes"/>
      <point x="242.45783132530119" y="716.277108433735"/>
      <point x="54.08433734939759" y="565.3614457831326"/>
      <point x="54.08433734939759" y="352.0" type="curve" smooth="yes"/>
      <point x="54.08433734939759" y="138.81927710843374"/>
      <point x="241.63855421686748" y="-11.27710843373494"/>
    </contour>
    <contour>
      <point x="535.7590361445783" y="137.0" type="curve" smooth="yes"/>
      <point x="611.5783132530121" y="137.0"/>
      <point x="678.6746987951808" y="153.90361445783134"/>
      <point x="719.5783132530121" y="182.89156626506025" type="curve"/>
      <point x="671.4578313253012" y="289.26506024096386" type="line"/>
      <point x="632.1927710843373" y="267.1927710843373"/>
      <point x="599.843373493976" y="259.10843373493975"/>
      <point x="552.867469879518" y="259.10843373493975" type="curve" smooth="yes"/>
      <point x="465.7469879518073" y="259.10843373493975"/>
      <point x="419.6867469879518" y="290.433734939759"/>
      <point x="419.6867469879518" y="354.18072289156623" type="curve" smooth="yes"/>
      <point x="419.6867469879518" y="415.56626506024094"/>
      <point x="464.9277108433735" y="445.8915662650602"/>
      <point x="550.7710843373494" y="445.8915662650602" type="curve" smooth="yes"/>
      <point x="597.1084337349398" y="445.8915662650602"/>
      <point x="629.4578313253012" y="437.44578313253015"/>
      <point x="671.4578313253012" y="414.73493975903614" type="curve"/>
      <point x="719.5783132530121" y="520.8313253012049" type="line"/>
      <point x="674.5783132530121" y="551.4578313253012"/>
      <point x="608.3012048192771" y="568.0"/>
      <point x="532.1204819277109" y="568.0" type="curve" smooth="yes"/>
      <point x="363.73493975903614" y="568.0"/>
      <point x="255.710843373494" y="484.26506024096386"/>
      <point x="255.710843373494" y="351.72289156626505" type="curve" smooth="yes"/>
      <point x="255.710843373494" y="220.0"/>
      <point x="364.27710843373495" y="137.0"/>
    </contour>
    <contour>
      <point x="508.4578313253012" y="56.036144578313255" type="curve" smooth="yes"/>
      <point x="280.38554216867476" y="56.036144578313255"/>
      <point x="128.67469879518072" y="173.74698795180723"/>
      <point x="128.67469879518072" y="352.0" type="curve" smooth="yes"/>
      <point x="128.67469879518072" y="530.2530120481929"/>
      <point x="280.566265060241" y="648.9638554216868"/>
      <point x="508.4578313253012" y="648.9638554216868" type="curve" smooth="yes"/>
      <point x="736.8915662650603" y="648.9638554216868"/>
      <point x="888.2409638554218" y="531.2530120481929"/>
      <point x="888.2409638554218" y="353.0" type="curve" smooth="yes"/>
      <point x="888.2409638554218" y="174.74698795180723"/>
      <point x="736.710843373494" y="56.036144578313255"/>
    </contour>
  </outline>
</glyph>
<glyph name="ordfeminine" format="2">
  <advance width="432.7831325301205"/>
  <unicode hex="00AA"/>
  <outline>
    <contour>
      <point x="168.90361445783134" y="403.34939759036143" type="curve" smooth="yes"/>
      <point x="227.81927710843374" y="403.34939759036143"/>
      <point x="264.08433734939763" y="423.9879518072289"/>
      <point x="281.433734939759" y="466.2650602409639" type="curve"/>
      <point x="284.2530120481928" y="466.2650602409639" type="line"/>
      <point x="284.2530120481928" y="410.62650602409644" type="line"/>
      <point x="399.62650602409644" y="410.62650602409644" type="line"/>
      <point x="399.62650602409644" y="573.5060240963855" type="line" smooth="yes"/>
      <point x="399.62650602409644" y="668.8072289156627"/>
      <point x="340.87951807228916" y="716.277108433735"/>
      <point x="217.74698795180726" y="716.277108433735" type="curve" smooth="yes"/>
      <point x="150.73493975903617" y="716.277108433735"/>
      <point x="83.90361445783132" y="702.4578313253012"/>
      <point x="36.795180722891565" y="678.4578313253013" type="curve"/>
      <point x="65.5421686746988" y="600.4819277108434" type="line"/>
      <point x="106.37349397590361" y="619.843373493976"/>
      <point x="158.289156626506" y="630.5662650602409"/>
      <point x="206.83132530120483" y="630.5662650602409" type="curve" smooth="yes"/>
      <point x="252.97590361445785" y="630.5662650602409"/>
      <point x="277.0602409638554" y="622.4939759036145"/>
      <point x="277.0602409638554" y="594.3493975903615" type="curve" smooth="yes"/>
      <point x="277.0602409638554" y="526.6144578313254" type="line" smooth="yes"/>
      <point x="277.0602409638554" y="499.4698795180723"/>
      <point x="241.90361445783134" y="479.4096385542169"/>
      <point x="196.12048192771084" y="479.4096385542169" type="curve" smooth="yes"/>
      <point x="162.6024096385542" y="479.4096385542169"/>
      <point x="143.4457831325301" y="490.30120481927713"/>
      <point x="143.4457831325301" y="506.2771084337349" type="curve" smooth="yes"/>
      <point x="143.4457831325301" y="531.5301204819277"/>
      <point x="188.36144578313252" y="534.0602409638554"/>
      <point x="232.1686746987952" y="534.0602409638554" type="curve" smooth="yes"/>
      <point x="289.9759036144578" y="534.0602409638554" type="line"/>
      <point x="289.9759036144578" y="592.1927710843373" type="line"/>
      <point x="232.4457831325301" y="592.1927710843373" type="line" smooth="yes"/>
      <point x="80.97590361445783" y="592.1927710843373"/>
      <point x="21.337349397590362" y="567.5542168674699"/>
      <point x="21.337349397590362" y="505.6385542168675" type="curve" smooth="yes"/>
      <point x="21.337349397590362" y="445.44578313253015"/>
      <point x="84.34939759036145" y="403.34939759036143"/>
    </contour>
  </outline>
</glyph>
<glyph name="logicalnot" format="2">
  <advance width="748.0"/>
  <unicode hex="00AC"/>
  <outline>
    <contour>
      <point x="508.51807228915663" y="125.60240963855422" type="line"/>
      <point x="645.0" y="125.60240963855422" type="line"/>
      <point x="645.0" y="450.3253012048193" type="line"/>
      <point x="103.0" y="450.3253012048193" type="line"/>
      <point x="103.0" y="321.66265060240966" type="line"/>
      <point x="508.51807228915663" y="321.66265060240966" type="line"/>
    </contour>
  </outline>
</glyph>
<glyph name="registered" format="2">
  <advance width="1015.9156626506024"/>
  <unicode hex="00AE"/>
  <outline>
    <contour>
      <point x="508.4578313253012" y="-11.27710843373494" type="curve" smooth="yes"/>
      <point x="774.4578313253013" y="-11.27710843373494"/>
      <point x="962.8313253012049" y="139.63855421686748"/>
      <point x="962.8313253012049" y="353.0" type="curve" smooth="yes"/>
      <point x="962.8313253012049" y="566.1807228915663"/>
      <point x="775.277108433735" y="716.277108433735"/>
      <point x="508.4578313253012" y="716.277108433735" type="curve" smooth="yes"/>
      <point x="242.45783132530119" y="716.277108433735"/>
      <point x="54.08433734939759" y="565.3614457831326"/>
      <point x="54.08433734939759" y="352.0" type="curve" smooth="yes"/>
      <point x="54.08433734939759" y="138.81927710843374"/>
      <point x="241.63855421686748" y="-11.27710843373494"/>
    </contour>
    <contour>
      <point x="508.4578313253012" y="56.036144578313255" type="curve" smooth="yes"/>
      <point x="280.38554216867476" y="56.036144578313255"/>
      <point x="128.67469879518072" y="173.74698795180723"/>
      <point x="128.67469879518072" y="352.0" type="curve" smooth="yes"/>
      <point x="128.67469879518072" y="530.2530120481929"/>
      <point x="280.566265060241" y="648.9638554216868"/>
      <point x="508.4578313253012" y="648.9638554216868" type="curve" smooth="yes"/>
      <point x="736.8915662650603" y="648.9638554216868"/>
      <point x="888.2409638554218" y="531.2530120481929"/>
      <point x="888.2409638554218" y="353.0" type="curve" smooth="yes"/>
      <point x="888.2409638554218" y="174.74698795180723"/>
      <point x="736.710843373494" y="56.036144578313255"/>
    </contour>
    <contour>
      <point x="303.9518072289157" y="143.63855421686748" type="line"/>
      <point x="442.8072289156626" y="143.63855421686748" type="line"/>
      <point x="442.8072289156626" y="316.51807228915663" type="line"/>
      <point x="408.14457831325296" y="290.04819277108436" type="line"/>
      <point x="485.6867469879519" y="290.04819277108436" type="line" smooth="yes"/>
      <point x="524.5903614457832" y="290.04819277108436"/>
      <point x="538.5783132530121" y="278.68674698795184"/>
      <point x="546.566265060241" y="258.1566265060241" type="curve" smooth="yes"/>
      <point x="587.2530120481929" y="143.63855421686748" type="line"/>
      <point x="738.8433734939758" y="143.63855421686748" type="line"/>
      <point x="689.5180722891566" y="273.71084337349396" type="line" smooth="yes"/>
      <point x="674.433734939759" y="313.9879518072289"/>
      <point x="644.5180722891566" y="330.62650602409644"/>
      <point x="596.4939759036145" y="330.62650602409644" type="curve"/>
      <point x="549.0120481927711" y="316.98795180722897" type="line"/>
      <point x="665.3855421686746" y="316.98795180722897"/>
      <point x="731.9397590361447" y="360.8072289156627"/>
      <point x="731.9397590361447" y="442.2650602409639" type="curve" smooth="yes"/>
      <point x="731.9397590361447" y="519.7228915662652"/>
      <point x="671.0240963855422" y="564.8192771084337"/>
      <point x="559.1084337349398" y="564.8192771084337" type="curve" smooth="yes"/>
      <point x="303.9518072289157" y="564.8192771084337" type="line"/>
    </contour>
    <contour>
      <point x="442.8072289156626" y="387.855421686747" type="line"/>
      <point x="442.8072289156626" y="466.83132530120486" type="line"/>
      <point x="535.9879518072289" y="466.83132530120486" type="line" smooth="yes"/>
      <point x="575.6626506024097" y="466.83132530120486"/>
      <point x="592.7228915662652" y="454.75903614457826"/>
      <point x="592.7228915662652" y="427.6144578313253" type="curve" smooth="yes"/>
      <point x="592.7228915662652" y="401.10843373493975"/>
      <point x="574.0240963855422" y="387.855421686747"/>
      <point x="535.9879518072289" y="387.855421686747" type="curve" smooth="yes"/>
    </contour>
  </outline>
</glyph>
<glyph name="degree" format="2">
  <advance width="432.3132530120482"/>
  <unicode hex="00B0"/>
  <outline>
    <contour>
      <point x="215.92771084337352" y="365.6746987951807" type="curve" smooth="yes"/>
      <point x="320.7710843373494" y="365.6746987951807"/>
      <point x="397.421686746988" y="440.04819277108436"/>
      <point x="397.421686746988" y="541.156626506024" type="curve" smooth="yes"/>
      <point x="397.421686746988" y="641.2650602409639"/>
      <point x="319.31325301204816" y="716.4578313253012"/>
      <point x="215.92771084337352" y="716.4578313253012" type="curve" smooth="yes"/>
      <point x="112.36144578313254" y="716.4578313253012"/>
      <point x="35.07228915662651" y="641.0843373493975"/>
      <point x="35.07228915662651" y="541.156626506024" type="curve" smooth="yes"/>
      <point x="35.07228915662651" y="440.2289156626506"/>
      <point x="111.72289156626506" y="365.6746987951807"/>
    </contour>
    <contour>
      <point x="215.92771084337352" y="463.3855421686747" type="curve" smooth="yes"/>
      <point x="173.04819277108433" y="463.3855421686747"/>
      <point x="142.33734939759034" y="497.2771084337349"/>
      <point x="142.33734939759034" y="541.156626506024" type="curve" smooth="yes"/>
      <point x="142.33734939759034" y="584.0361445783132"/>
      <point x="173.04819277108433" y="618.7469879518072"/>
      <point x="215.92771084337352" y="618.7469879518072" type="curve" smooth="yes"/>
      <point x="257.8072289156627" y="618.7469879518072"/>
      <point x="289.1566265060241" y="584.0361445783132"/>
      <point x="289.1566265060241" y="541.156626506024" type="curve" smooth="yes"/>
      <point x="289.1566265060241" y="497.2771084337349"/>
      <point x="257.8072289156627" y="463.3855421686747"/>
    </contour>
  </outline>
</glyph>
<glyph name="plusminus" format="2">
  <advance width="748.0"/>
  <unicode hex="00B1"/>
  <outline>
    <contour>
      <point x="305.7590361445783" y="167.25301204819277" type="line"/>
      <point x="442.2409638554217" y="167.25301204819277" type="line"/>
      <point x="442.2409638554217" y="300.7228915662651" type="line"/>
      <point x="645.0" y="300.7228915662651" type="line"/>
      <point x="645.0" y="429.0240963855422" type="line"/>
      <point x="442.2409638554217" y="429.0240963855422" type="line"/>
      <point x="442.2409638554217" y="562.4939759036145" type="line"/>
      <point x="305.7590361445783" y="562.4939759036145" type="line"/>
      <point x="305.7590361445783" y="429.0240963855422" type="line"/>
      <point x="103.0" y="429.0240963855422" type="line"/>
      <point x="103.0" y="300.7228915662651" type="line"/>
      <point x="305.7590361445783" y="300.7228915662651" type="line"/>
    </contour>
    <contour>
      <point x="103.0" y="0.0" type="line"/>
      <point x="645.0" y="0.0" type="line"/>
      <point x="645.0" y="128.66265060240963" type="line"/>
      <point x="103.0" y="128.66265060240963" type="line"/>
    </contour>
  </outline>
</glyph>
<glyph name="micro" format="2">
  <advance width="739.6265060240964"/>
  <unicode hex="00B5"/>
  <outline>
    <contour>
      <point x="67.49397590361447" y="-180.0" type="line"/>
      <point x="264.2409638554217" y="-180.0" type="line"/>
      <point x="247.95180722891567" y="25.927710843373497" type="line"/>
      <point x="250.06024096385542" y="25.927710843373497" type="line"/>
      <point x="273.86746987951807" y="-1.3855421686746983"/>
      <point x="304.0" y="-11.27710843373494"/>
      <point x="342.7590361445783" y="-11.27710843373494" type="curve" smooth="yes"/>
      <point x="413.9759036144578" y="-11.27710843373494"/>
      <point x="456.75903614457826" y="25.156626506024097"/>
      <point x="476.55421686746985" y="91.6867469879518" type="curve"/>
      <point x="478.0240963855421" y="91.6867469879518" type="line"/>
      <point x="478.0240963855421" y="0.0" type="line"/>
      <point x="670.4939759036145" y="0.0" type="line"/>
      <point x="670.4939759036145" y="492.1927710843374" type="line"/>
      <point x="473.7469879518072" y="492.1927710843374" type="line"/>
      <point x="473.7469879518072" y="246.02409638554215" type="line" smooth="yes"/>
      <point x="473.7469879518072" y="189.0120481927711"/>
      <point x="425.06024096385545" y="138.2289156626506"/>
      <point x="351.5903614457832" y="138.2289156626506" type="curve" smooth="yes"/>
      <point x="297.0240963855421" y="138.2289156626506"/>
      <point x="264.2409638554217" y="159.92771084337352"/>
      <point x="264.2409638554217" y="234.49397590361446" type="curve" smooth="yes"/>
      <point x="264.2409638554217" y="492.1927710843374" type="line"/>
      <point x="67.49397590361447" y="492.1927710843374" type="line"/>
    </contour>
  </outline>
</glyph>
<glyph name="paragraph" format="2">
  <advance width="810.168674698795"/>
  <unicode hex="00B6"/>
  <outline>
    <contour>
      <point x="313.8433734939759" y="-180.0" type="line"/>
      <point x="451.60240963855415" y="-180.0" type="line"/>
      <point x="451.60240963855415" y="573.0602409638554" type="line"/>
      <point x="587.8192771084338" y="573.0602409638554" type="line"/>
      <point x="587.8192771084338" y="-180.0" type="line"/>
      <point x="725.5783132530121" y="-180.0" type="line"/>
      <point x="725.5783132530121" y="705.0" type="line"/>
      <point x="317.9397590361446" y="705.0" type="line" smooth="yes"/>
      <point x="143.6265060240964" y="705.0"/>
      <point x="34.96385542168675" y="615.3373493975904"/>
      <point x="34.96385542168675" y="472.30120481927713" type="curve" smooth="yes"/>
      <point x="34.96385542168675" y="328.6265060240964"/>
      <point x="142.80722891566265" y="236.96385542168673"/>
      <point x="313.8433734939759" y="236.96385542168673" type="curve"/>
    </contour>
  </outline>
</glyph>
<glyph name="periodcentered" format="2">
  <advance width="324.9156626506024"/>
  <unicode hex="00B7"/>
  <outline>
    <contour>
      <point x="57.686746987951814" y="170.65060240963857" type="line"/>
      <point x="266.4096385542169" y="170.65060240963857" type="line"/>
      <point x="266.4096385542169" y="367.72289156626505" type="line"/>
      <point x="57.686746987951814" y="367.72289156626505" type="line"/>
    </contour>
  </outline>
</glyph>
<glyph name="ordmasculine" format="2">
  <advance width="452.7951807228916"/>
  <unicode hex="00BA"/>
  <outline>
    <contour>
      <point x="226.57831325301206" y="403.1686746987952" type="curve" smooth="yes"/>
      <point x="354.6144578313253" y="403.1686746987952"/>
      <point x="432.9036144578313" y="462.1686746987952"/>
      <point x="432.9036144578313" y="559.9036144578314" type="curve" smooth="yes"/>
      <point x="432.9036144578313" y="657.277108433735"/>
      <point x="354.6144578313253" y="716.277108433735"/>
      <point x="226.57831325301206" y="716.277108433735" type="curve" smooth="yes"/>
      <point x="98.18072289156626" y="716.277108433735"/>
      <point x="19.89156626506024" y="657.277108433735"/>
      <point x="19.89156626506024" y="559.9036144578314" type="curve" smooth="yes"/>
      <point x="19.89156626506024" y="462.1686746987952"/>
      <point x="98.18072289156626" y="403.1686746987952"/>
    </contour>
    <contour>
      <point x="226.57831325301206" y="492.0602409638554" type="curve" smooth="yes"/>
      <point x="174.89156626506025" y="492.0602409638554"/>
      <point x="145.73493975903617" y="516.6746987951807"/>
      <point x="145.73493975903617" y="559.9036144578314" type="curve" smooth="yes"/>
      <point x="145.73493975903617" y="603.132530120482"/>
      <point x="174.89156626506025" y="627.7469879518072"/>
      <point x="226.57831325301206" y="627.7469879518072" type="curve" smooth="yes"/>
      <point x="277.9036144578313" y="627.7469879518072"/>
      <point x="307.06024096385545" y="603.132530120482"/>
      <point x="307.06024096385545" y="559.9036144578314" type="curve" smooth="yes"/>
      <point x="307.06024096385545" y="516.6746987951808"/>
      <point x="277.9036144578313" y="492.0602409638554"/>
    </contour>
  </outline>
</glyph>
<glyph name="questiondown" format="2">
  <advance width="584.9879518072289"/>
  <unicode hex="00BF"/>
  <outline>
    <contour>
      <point x="282.49397590361446" y="-191.9156626506024" type="curve" smooth="yes"/>
      <point x="394.5903614457831" y="-191.9156626506024"/>
      <point x="506.7831325301205" y="-159.83132530120483"/>
      <point x="582.8915662650602" y="-106.48192771084337" type="curve"/>
      <point x="512.6506024096386" y="40.481927710843365" type="line"/>
      <point x="445.3855421686747" y="-5.493975903614464"/>
      <point x="376.85542168674704" y="-27.481927710843387"/>
      <point x="294.96385542168673" y="-27.481927710843387" type="curve" smooth="yes"/>
      <point x="237.57831325301206" y="-27.481927710843387"/>
      <point x="207.43373493975903" y="-15.240963855421692"/>
      <point x="207.43373493975903" y="9.975903614457833" type="curve" smooth="yes"/>
      <point x="207.43373493975903" y="28.30120481927711"/>
      <point x="223.144578313253" y="44.265060240963855"/>
      <point x="266.28915662650604" y="67.03614457831326" type="curve" smooth="yes"/>
      <point x="327.9759036144579" y="99.97590361445782"/>
      <point x="354.43373493975906" y="138.59036144578315"/>
      <point x="354.43373493975906" y="186.75903614457835" type="curve" smooth="yes"/>
      <point x="354.43373493975906" y="244.4457831325301" type="line"/>
      <point x="239.40963855421688" y="244.4457831325301" type="line"/>
      <point x="235.59036144578315" y="218.53012048192772" type="line" smooth="yes"/>
      <point x="230.68674698795178" y="189.0120481927711"/>
      <point x="207.13253012048196" y="165.3975903614458"/>
      <point x="124.78313253012048" y="123.9879518072289" type="curve" smooth="yes"/>
      <point x="44.42168674698795" y="83.20481927710844"/>
      <point x="7.686746987951809" y="38.48192771084337"/>
      <point x="7.686746987951809" y="-21.518072289156624" type="curve" smooth="yes"/>
      <point x="7.686746987951809" y="-124.62650602409639"/>
      <point x="119.0" y="-191.9156626506024"/>
    </contour>
    <contour>
      <point x="196.7469879518072" y="295.12048192771084" type="line"/>
      <point x="397.0963855421687" y="295.12048192771084" type="line"/>
      <point x="397.0963855421687" y="492.1927710843374" type="line"/>
      <point x="196.7469879518072" y="492.1927710843374" type="line"/>
    </contour>
  </outline>
</glyph>
<glyph name="AE" format="2">
  <advance width="1247.2409638554218"/>
  <unicode hex="00C6"/>
  <anchor x="609.0963855421687" y="0.0" name="bottom"/>
  <anchor x="609.5542168674699" y="705.0" name="top"/>
  <outline>
    <contour>
      <point x="-65.36144578313252" y="0.0" type="line"/>
      <point x="164.86746987951807" y="0.0" type="line"/>
      <point x="303.7590361445783" y="187.33734939759037" type="line"/>
      <point x="217.03614457831327" y="135.65060240963857" type="line"/>
      <point x="695.2048192771084" y="135.65060240963857" type="line"/>
      <point x="629.6024096385541" y="194.25301204819277" type="line"/>
      <point x="686.421686746988" y="0.0" type="line"/>
      <point x="1184.5060240963855" y="0.0" type="line"/>
      <point x="1184.5060240963855" y="154.42168674698794" type="line"/>
      <point x="787.6265060240963" y="154.42168674698794" type="line"/>
      <point x="856.8674698795181" y="102.46987951807229" type="line"/>
      <point x="787.0722891566265" y="336.71084337349396" type="line"/>
      <point x="744.0361445783132" y="281.28915662650604" type="line"/>
      <point x="1157.2289156626507" y="281.28915662650604" type="line"/>
      <point x="1157.2289156626507" y="435.710843373494" type="line"/>
      <point x="709.0" y="435.710843373494" type="line"/>
      <point x="773.8795180722891" y="380.10843373493975" type="line"/>
      <point x="710.6385542168675" y="591.9638554216868" type="line"/>
      <point x="661.2168674698795" y="550.578313253012" type="line"/>
      <point x="1184.5060240963855" y="550.578313253012" type="line"/>
      <point x="1184.5060240963855" y="705.0" type="line"/>
      <point x="478.3012048192771" y="705.0" type="line"/>
    </contour>
    <contour>
      <point x="537.4578313253012" y="503.4457831325301" type="line"/>
      <point x="539.4578313253012" y="503.4457831325301" type="line"/>
      <point x="617.4096385542168" y="235.0120481927711" type="line"/>
      <point x="661.9156626506024" y="290.2530120481928" type="line"/>
      <point x="312.95180722891564" y="290.2530120481928" type="line"/>
      <point x="343.6144578313253" y="241.3855421686747" type="line"/>
    </contour>
  </outline>
</glyph>
<glyph name="multiply" format="2">
  <advance width="748.0"/>
  <unicode hex="00D7"/>
  <outline>
    <contour>
      <point x="203.6024096385542" y="25.518072289156628" type="line"/>
      <point x="374.0" y="196.0963855421687" type="line"/>
      <point x="544.3975903614459" y="25.518072289156628" type="line"/>
      <point x="635.6626506024096" y="116.6024096385542" type="line"/>
      <point x="465.0843373493976" y="286.6385542168675" type="line"/>
      <point x="635.6626506024096" y="457.39759036144574" type="line"/>
      <point x="544.3975903614459" y="548.8433734939758" type="line"/>
      <point x="373.8192771084337" y="379.90361445783134" type="line"/>
      <point x="202.87951807228913" y="548.8433734939758" type="line"/>
      <point x="112.33734939759036" y="457.39759036144574" type="line"/>
      <point x="282.73493975903614" y="286.81927710843377" type="line"/>
      <point x="112.33734939759036" y="116.6024096385542" type="line"/>
    </contour>
  </outline>
</glyph>
<glyph name="Thorn" format="2">
  <advance width="833.3734939759036"/>
  <unicode hex="00DE"/>
  <anchor x="424.4096385542169" y="0.0" name="bottom"/>
  <anchor x="424.5903614457831" y="705.0" name="top"/>
  <outline>
    <contour>
      <point x="84.59036144578313" y="0.0" type="line"/>
      <point x="294.26506024096386" y="0.0" type="line"/>
      <point x="294.26506024096386" y="132.96385542168676" type="line"/>
      <point x="511.18072289156623" y="132.96385542168676" type="line" smooth="yes"/>
      <point x="703.0120481927712" y="132.96385542168676"/>
      <point x="807.9397590361446" y="215.89156626506025"/>
      <point x="807.9397590361446" y="367.6385542168675" type="curve" smooth="yes"/>
      <point x="807.9397590361446" y="519.566265060241"/>
      <point x="703.0120481927712" y="601.9518072289156"/>
      <point x="511.18072289156623" y="601.9518072289156" type="curve" smooth="yes"/>
      <point x="294.26506024096386" y="601.9518072289156" type="line"/>
      <point x="294.26506024096386" y="705.0" type="line"/>
      <point x="84.59036144578313" y="705.0" type="line"/>
    </contour>
    <contour>
      <point x="294.26506024096386" y="287.0240963855422" type="line"/>
      <point x="294.26506024096386" y="447.8915662650603" type="line"/>
      <point x="481.22891566265065" y="447.8915662650603" type="line" smooth="yes"/>
      <point x="569.6867469879518" y="447.8915662650603"/>
      <point x="607.3734939759036" y="424.9277108433735"/>
      <point x="607.3734939759036" y="368.4578313253012" type="curve" smooth="yes"/>
      <point x="607.3734939759036" y="312.8072289156626"/>
      <point x="566.2289156626506" y="287.0240963855422"/>
      <point x="481.22891566265065" y="287.0240963855422" type="curve" smooth="yes"/>
    </contour>
  </outline>
</glyph>
<glyph name="germandbls" format="2">
  <advance width="848.8192771084338"/>
  <unicode hex="00DF"/>
  <outline>
    <contour>
      <point x="564.2289156626506" y="-11.27710843373494" type="curve" smooth="yes"/>
      <point x="730.3734939759037" y="-11.27710843373494"/>
      <point x="829.1204819277109" y="58.28915662650602"/>
      <point x="829.1204819277109" y="170.04819277108433" type="curve" smooth="yes"/>
      <point x="829.1204819277109" y="253.96385542168673"/>
      <point x="772.9518072289156" y="301.433734939759"/>
      <point x="658.0481927710844" y="321.6144578313253" type="curve" smooth="yes"/>
      <point x="563.4939759036145" y="338.433734939759"/>
      <point x="544.1807228915662" y="344.96385542168673"/>
      <point x="544.1807228915662" y="369.73493975903614" type="curve" smooth="yes"/>
      <point x="544.1807228915662" y="389.1566265060241"/>
      <point x="560.3373493975904" y="401.32530120481925"/>
      <point x="607.2530120481928" y="437.7951807228916" type="curve" smooth="yes"/>
      <point x="659.3253012048193" y="476.6144578313253"/>
      <point x="684.6626506024096" y="513.156626506024"/>
      <point x="684.6626506024096" y="560.8674698795181" type="curve" smooth="yes"/>
      <point x="684.6626506024096" y="661.1686746987951"/>
      <point x="586.2530120481928" y="716.277108433735"/>
      <point x="406.6265060240964" y="716.277108433735" type="curve" smooth="yes"/>
      <point x="182.80722891566268" y="716.277108433735"/>
      <point x="68.95180722891565" y="629.710843373494"/>
      <point x="68.95180722891565" y="459.566265060241" type="curve" smooth="yes"/>
      <point x="68.95180722891565" y="0.0" type="line"/>
      <point x="265.69879518072287" y="0.0" type="line"/>
      <point x="265.69879518072287" y="477.9518072289157" type="line" smooth="yes"/>
      <point x="265.69879518072287" y="548.722891566265"/>
      <point x="313.6746987951807" y="581.698795180723"/>
      <point x="413.0" y="581.698795180723" type="curve" smooth="yes"/>
      <point x="471.8674698795181" y="581.698795180723"/>
      <point x="501.12048192771084" y="568.9879518072289"/>
      <point x="501.12048192771084" y="541.6626506024097" type="curve" smooth="yes"/>
      <point x="501.12048192771084" y="521.3373493975904"/>
      <point x="487.51807228915663" y="508.2650602409638"/>
      <point x="451.8072289156627" y="477.8072289156627" type="curve" smooth="yes"/>
      <point x="392.0843373493976" y="428.144578313253"/>
      <point x="365.73493975903614" y="388.50602409638554"/>
      <point x="365.73493975903614" y="340.33734939759034" type="curve" smooth="yes"/>
      <point x="365.73493975903614" y="259.6987951807229"/>
      <point x="426.2771084337349" y="214.40963855421685"/>
      <point x="543.6385542168675" y="198.96385542168676" type="curve" smooth="yes"/>
      <point x="631.6987951807229" y="186.97590361445782"/>
      <point x="651.4939759036145" y="177.81927710843374"/>
      <point x="651.4939759036145" y="161.3132530120482" type="curve" smooth="yes"/>
      <point x="651.4939759036145" y="138.81927710843374"/>
      <point x="629.4578313253012" y="127.855421686747"/>
      <point x="581.7951807228916" y="127.855421686747" type="curve" smooth="yes"/>
      <point x="516.7951807228916" y="127.855421686747"/>
      <point x="437.32530120481925" y="144.03614457831324"/>
      <point x="373.04819277108436" y="178.56626506024094" type="curve"/>
      <point x="316.9156626506024" y="51.98795180722891" type="line"/>
      <point x="381.2048192771084" y="11.265060240963855"/>
      <point x="479.31325301204816" y="-11.27710843373494"/>
    </contour>
  </outline>
</glyph>
<glyph name="ae" format="2">
  <advance width="1074.4698795180723"/>
  <unicode hex="00E6"/>
  <anchor x="533.2048192771084" y="0.0" name="bottom"/>
  <anchor x="533.2048192771084" y="484.0" name="top"/>
  <outline>
    <contour>
      <point x="289.0120481927711" y="-11.27710843373494" type="curve" smooth="yes"/>
      <point x="413.0120481927711" y="-11.27710843373494"/>
      <point x="500.0963855421687" y="31.87951807228916"/>
      <point x="536.8313253012049" y="108.02409638554217" type="curve"/>
      <point x="488.0722891566265" y="108.02409638554217" type="line"/>
      <point x="542.289156626506" y="31.1566265060241"/>
      <point x="650.3855421686746" y="-11.27710843373494"/>
      <point x="787.4819277108434" y="-11.27710843373494" type="curve" smooth="yes"/>
      <point x="890.0361445783133" y="-11.27710843373494"/>
      <point x="984.9518072289156" y="11.168674698795181"/>
      <point x="1037.7831325301206" y="42.42168674698795" type="curve"/>
      <point x="992.2048192771084" y="169.36144578313252" type="line"/>
      <point x="948.8554216867469" y="147.7590361445783"/>
      <point x="877.4819277108434" y="131.49397590361446"/>
      <point x="801.2168674698795" y="131.49397590361446" type="curve" smooth="yes"/>
      <point x="678.5301204819277" y="131.49397590361446"/>
      <point x="629.9397590361446" y="167.1686746987952"/>
      <point x="629.9397590361446" y="254.10843373493978" type="curve" smooth="yes"/>
      <point x="629.9397590361446" y="262.566265060241" type="line" smooth="yes"/>
      <point x="629.9397590361446" y="335.13253012048193"/>
      <point x="674.3373493975905" y="377.62650602409644"/>
      <point x="762.6385542168675" y="377.62650602409644" type="curve" smooth="yes"/>
      <point x="840.0240963855422" y="377.62650602409644"/>
      <point x="879.6144578313252" y="346.3132530120482"/>
      <point x="882.0722891566264" y="283.12048192771084" type="curve"/>
      <point x="905.3493975903615" y="298.10843373493975" type="line"/>
      <point x="600.9277108433735" y="298.10843373493975" type="line"/>
      <point x="600.9277108433735" y="204.60240963855424" type="line"/>
      <point x="1047.7831325301206" y="204.60240963855424" type="line"/>
      <point x="1047.7831325301206" y="246.07228915662648" type="line" smooth="yes"/>
      <point x="1047.7831325301206" y="405.3614457831325"/>
      <point x="935.4819277108434" y="503.4698795180723"/>
      <point x="753.8072289156626" y="503.4698795180723" type="curve" smooth="yes"/>
      <point x="672.0963855421686" y="503.4698795180723"/>
      <point x="592.2289156626505" y="477.867469879518"/>
      <point x="539.2048192771084" y="432.37349397590367" type="curve"/>
      <point x="564.3132530120482" y="432.37349397590367" type="line"/>
      <point x="523.4578313253013" y="478.77108433734935"/>
      <point x="445.9036144578313" y="503.4698795180723"/>
      <point x="343.74698795180717" y="503.4698795180723" type="curve" smooth="yes"/>
      <point x="244.81927710843374" y="503.4698795180723"/>
      <point x="138.51807228915663" y="480.46987951807233"/>
      <point x="67.13253012048195" y="443.1084337349398" type="curve"/>
      <point x="116.98795180722892" y="312.1686746987952" type="line"/>
      <point x="179.36144578313252" y="343.1566265060241"/>
      <point x="257.3734939759036" y="360.8795180722892"/>
      <point x="332.55421686746985" y="360.8795180722892" type="curve" smooth="yes"/>
      <point x="409.96385542168673" y="360.8795180722892"/>
      <point x="442.0240963855422" y="343.27710843373495"/>
      <point x="442.0240963855422" y="302.1566265060241" type="curve" smooth="yes"/>
      <point x="442.0240963855422" y="202.63855421686748" type="line" smooth="yes"/>
      <point x="442.0240963855422" y="152.51807228915663"/>
      <point x="388.0722891566265" y="116.56626506024095"/>
      <point x="310.6746987951807" y="116.56626506024095" type="curve" smooth="yes"/>
      <point x="259.6385542168674" y="116.56626506024095"/>
      <point x="230.77108433734938" y="132.5301204819277"/>
      <point x="230.77108433734938" y="159.20481927710844" type="curve" smooth="yes"/>
      <point x="230.77108433734938" y="192.1566265060241"/>
      <point x="270.8313253012048" y="204.60240963855424"/>
      <point x="370.07228915662654" y="204.60240963855424" type="curve" smooth="yes"/>
      <point x="464.5903614457831" y="204.60240963855424" type="line"/>
      <point x="464.5903614457831" y="298.10843373493975" type="line"/>
      <point x="370.34939759036143" y="298.10843373493975" type="line" smooth="yes"/>
      <point x="134.96385542168676" y="298.10843373493975"/>
      <point x="42.13253012048193" y="256.2048192771084"/>
      <point x="42.13253012048193" y="153.289156626506" type="curve" smooth="yes"/>
      <point x="42.13253012048193" y="54.18072289156626"/>
      <point x="139.24096385542168" y="-11.27710843373494"/>
    </contour>
  </outline>
</glyph>
<glyph name="eth" format="2">
  <advance width="741.8313253012049"/>
  <unicode hex="00F0"/>
  <outline>
    <contour>
      <point x="368.04819277108436" y="-11.27710843373494" type="curve" smooth="yes"/>
      <point x="584.2048192771084" y="-11.27710843373494"/>
      <point x="705.0481927710844" y="89.63855421686748"/>
      <point x="705.0481927710844" y="268.3975903614458" type="curve" smooth="yes"/>
      <point x="705.0481927710844" y="412.9759036144578"/>
      <point x="640.1325301204819" y="520.6144578313252"/>
      <point x="515.0240963855422" y="597.1686746987951" type="curve"/>
      <point x="516.3855421686748" y="579.698795180723" type="line"/>
      <point x="639.1204819277108" y="630.3373493975904" type="line"/>
      <point x="602.1084337349398" y="716.4578313253012" type="line"/>
      <point x="408.89156626506025" y="637.4457831325301" type="line"/>
      <point x="445.34939759036143" y="634.8192771084338" type="line"/>
      <point x="369.67469879518075" y="669.289156626506"/>
      <point x="274.09638554216866" y="697.5542168674699"/>
      <point x="158.89156626506028" y="716.4578313253012" type="curve"/>
      <point x="139.06024096385542" y="616.5542168674698" type="line"/>
      <point x="201.31325301204816" y="607.9277108433735"/>
      <point x="257.566265060241" y="592.0361445783133"/>
      <point x="300.14457831325296" y="576.6626506024097" type="curve"/>
      <point x="302.69879518072287" y="594.6746987951808" type="line"/>
      <point x="128.144578313253" y="522.8554216867469" type="line"/>
      <point x="165.97590361445785" y="436.73493975903614" type="line"/>
      <point x="408.93975903614455" y="536.4819277108434" type="line"/>
      <point x="378.5421686746988" y="538.0240963855422" type="line"/>
      <point x="464.8072289156627" y="488.84337349397595"/>
      <point x="520.9518072289158" y="416.87951807228916"/>
      <point x="521.0481927710842" y="330.421686746988" type="curve"/>
      <point x="574.5421686746988" y="330.421686746988" type="line"/>
      <point x="533.0602409638554" y="403.9879518072289"/>
      <point x="445.16867469879514" y="439.43373493975906"/>
      <point x="334.6385542168675" y="439.43373493975906" type="curve" smooth="yes"/>
      <point x="159.16867469879517" y="439.43373493975906"/>
      <point x="39.602409638554214" y="348.433734939759"/>
      <point x="39.602409638554214" y="214.80722891566265" type="curve" smooth="yes"/>
      <point x="39.602409638554214" y="76.44578313253011"/>
      <point x="167.5421686746988" y="-11.27710843373494"/>
    </contour>
    <contour>
      <point x="368.86746987951807" y="129.67469879518072" type="curve" smooth="yes"/>
      <point x="285.3012048192771" y="129.67469879518072"/>
      <point x="237.53012048192772" y="161.07228915662648"/>
      <point x="237.53012048192772" y="214.1686746987952" type="curve" smooth="yes"/>
      <point x="237.53012048192772" y="267.0843373493976"/>
      <point x="285.48192771084337" y="298.30120481927713"/>
      <point x="368.86746987951807" y="298.30120481927713" type="curve" smooth="yes"/>
      <point x="452.6144578313253" y="298.30120481927713"/>
      <point x="500.566265060241" y="267.0843373493976"/>
      <point x="500.566265060241" y="214.1686746987952" type="curve" smooth="yes"/>
      <point x="500.566265060241" y="160.89156626506022"/>
      <point x="452.6144578313253" y="129.67469879518072"/>
    </contour>
  </outline>
</glyph>
<glyph name="divide" format="2">
  <advance width="748.0"/>
  <unicode hex="00F7"/>
  <outline>
    <contour>
      <point x="103.0" y="222.7590361445783" type="line"/>
      <point x="645.0" y="222.7590361445783" type="line"/>
      <point x="645.0" y="351.421686746988" type="line"/>
      <point x="103.0" y="351.421686746988" type="line"/>
    </contour>
    <contour>
      <point x="301.5903614457831" y="24.60240963855422" type="line"/>
      <point x="446.4096385542169" y="24.60240963855422" type="line"/>
      <point x="446.4096385542169" y="155.7710843373494" type="line"/>
      <point x="301.5903614457831" y="155.7710843373494" type="line"/>
    </contour>
    <contour>
      <point x="301.5903614457831" y="418.4096385542169" type="line"/>
      <point x="446.4096385542169" y="418.4096385542169" type="line"/>
      <point x="446.4096385542169" y="549.578313253012" type="line"/>
      <point x="301.5903614457831" y="549.578313253012" type="line"/>
    </contour>
  </outline>
</glyph>
